<svg width="40" height="39" viewBox="0 0 40 39" fill="none" xmlns="http://www.w3.org/2000/svg">
<path d="M11.6195 0C5.34527 0 0 5.5926 0 12.856C0 17.8667 1.96819 22.0853 4.57669 25.5798C7.17623 29.0623 10.53 31.9854 13.562 34.432L18.7933 38.6533C19.3662 39.1156 20.1174 39.1156 20.6903 38.6533L25.9216 34.432C28.9536 31.9854 32.3074 29.0623 34.9069 25.5798C37.5154 22.0853 39.4836 17.8667 39.4836 12.856C39.4836 5.5926 34.1383 0 27.8641 0C24.6299 0 21.784 1.80782 19.7418 4.147C17.6996 1.80782 14.8537 0 11.6195 0Z" fill="#297FB8"/>
</svg>
