<svg width="228" height="376" viewBox="0 0 228 376" fill="none" xmlns="http://www.w3.org/2000/svg">
    <path
        d="M7.45287 1C7.45287 1 256.367 106.29 224.503 211.81C211.323 255.397 182.838 292.689 144.344 316.75C111.505 337.27 54.0454 368.32 -2.00078 375.05V1H7.45287Z"
        fill="#7AB7DF" />
    <path
        d="M-1.98418 0C-1.98418 0 247.885 98.31 217.066 196.82C204.209 237.94 176.325 272.63 139.545 294.82C107.79 314 52.2211 343 -1.98409 349.24L-1.98418 0Z"
        fill="url(#paint0_linear_1142_157)" />
    <path
        d="M95.5307 209C82.3403 209 71.6474 198.255 71.6474 185C71.6474 171.745 82.3403 161 95.5307 161C108.721 161 119.414 171.745 119.414 185C119.414 198.255 108.721 209 95.5307 209Z"
        stroke="white" stroke-width="4" stroke-miterlimit="10" />
    <path
        d="M55.7126 159C49.1174 159 43.771 153.627 43.771 147C43.771 140.373 49.1174 135 55.7126 135C62.3078 135 67.6543 140.373 67.6543 147C67.6543 153.627 62.3078 159 55.7126 159Z"
        fill="white" />
    <path
        d="M105.465 146C96.1223 146 88.5481 138.389 88.5481 129C88.5481 119.611 96.1223 112 105.465 112C114.809 112 122.383 119.611 122.383 129C122.383 138.389 114.809 146 105.465 146Z"
        fill="white" />
    <path
        d="M58.6981 120C53.7517 120 49.7418 115.971 49.7418 111C49.7418 106.029 53.7517 102 58.6981 102C63.6444 102 67.6543 106.029 67.6543 111C67.6543 115.971 63.6444 120 58.6981 120Z"
        fill="white" />
    <defs>
        <linearGradient id="paint0_linear_1142_157" x1="108.858" y1="0" x2="108.858" y2="349.24"
            gradientUnits="userSpaceOnUse">
            <stop stop-color="#2980B9" stop-opacity="0" />
            <stop offset="1" stop-color="#2980B9" />
        </linearGradient>
    </defs>
</svg>