<svg width="791" height="824" viewBox="0 0 791 824" fill="none" xmlns="http://www.w3.org/2000/svg">
    <path
        d="M0 267.45C0 267.45 193.33 173.76 304.39 210.57C415.45 247.38 526.51 556.9 526.51 556.9C526.51 556.9 565.18 656.51 486.39 733.71C453.12 766.31 405.67 787.2 354.14 793.37C263.13 804.25 54.24 823.72 0 781V267.45Z"
        fill="#7AB7DF" />
    <path
        d="M0 306.391C0 306.391 185.24 216.621 291.65 251.891C398.06 287.161 504.47 583.721 504.47 583.721C504.47 583.721 541.47 679.161 466.03 753.131C434.15 784.371 388.69 804.381 339.32 810.291C252.11 820.721 52 839.381 0 798.431V306.391Z"
        fill="url(#paint0_linear_875_1357)" />
    <path
        d="M257 128C268.598 128 278 118.598 278 107C278 95.402 268.598 86 257 86C245.402 86 236 95.402 236 107C236 118.598 245.402 128 257 128Z"
        fill="url(#paint1_linear_875_1357)" />
    <path
        d="M688.191 569.32C705.953 569.32 720.351 554.921 720.351 537.16C720.351 519.398 705.953 505 688.191 505C670.43 505 656.031 519.398 656.031 537.16C656.031 554.921 670.43 569.32 688.191 569.32Z"
        fill="#2980B9" />
    <path
        d="M681 437C692.046 437 701 428.046 701 417C701 405.954 692.046 397 681 397C669.954 397 661 405.954 661 417C661 428.046 669.954 437 681 437Z"
        fill="url(#paint2_linear_875_1357)" />
    <path
        d="M596.2 635.5C611.686 635.5 624.24 622.946 624.24 607.46C624.24 591.974 611.686 579.42 596.2 579.42C580.714 579.42 568.16 591.974 568.16 607.46C568.16 622.946 580.714 635.5 596.2 635.5Z"
        stroke="url(#paint3_linear_875_1357)" stroke-width="5" stroke-miterlimit="10" />
    <path
        d="M551 493C557.075 493 562 488.075 562 482C562 475.925 557.075 471 551 471C544.925 471 540 475.925 540 482C540 488.075 544.925 493 551 493Z"
        fill="url(#paint4_linear_875_1357)" />
    <path
        d="M59 202C65.0751 202 70 197.075 70 191C70 184.925 65.0751 180 59 180C52.9249 180 48 184.925 48 191C48 197.075 52.9249 202 59 202Z"
        fill="#2980B9" />
    <path
        d="M633 139C639.075 139 644 134.075 644 128C644 121.925 639.075 117 633 117C626.925 117 622 121.925 622 128C622 134.075 626.925 139 633 139Z"
        fill="url(#paint5_linear_875_1357)" />
    <path
        d="M386 88C397.598 88 407 78.598 407 67C407 55.402 397.598 46 386 46C374.402 46 365 55.402 365 67C365 78.598 374.402 88 386 88Z"
        stroke="#2980B9" stroke-width="5" stroke-miterlimit="10" />
    <path
        d="M643.394 4.81111L449.032 103.673C446.846 104.784 445.975 107.457 447.087 109.643L447.813 111.069C448.924 113.255 451.597 114.125 453.783 113.014L648.145 14.1522C650.331 13.0405 651.201 10.3674 650.089 8.18174L649.364 6.75563C648.252 4.56997 645.579 3.69938 643.394 4.81111Z"
        fill="#2980B9" />
    <path
        d="M726.246 2.54634L606.034 63.6921C603.848 64.8038 602.977 67.4769 604.089 69.6626L604.815 71.0887C605.926 73.2743 608.599 74.1449 610.785 73.0332L730.998 11.8874C733.183 10.7757 734.054 8.10263 732.942 5.91697L732.217 4.49086C731.105 2.3052 728.432 1.43461 726.246 2.54634Z"
        fill="#2980B9" />
    <path
        d="M782.237 185.56L662.024 246.706C659.838 247.818 658.968 250.491 660.079 252.676L660.805 254.102C661.916 256.288 664.59 257.159 666.775 256.047L786.988 194.901C789.174 193.789 790.044 191.116 788.932 188.931L788.207 187.505C787.095 185.319 784.422 184.448 782.237 185.56Z"
        fill="#2980B9" />
    <path
        d="M630.359 705.1C661.484 684.582 710.059 652.56 710.059 652.56C710.828 652.052 711.483 651.39 711.983 650.616C712.483 649.842 712.817 648.973 712.964 648.064C713.112 647.155 713.069 646.224 712.84 645.332C712.61 644.44 712.198 643.605 711.629 642.88L707.899 638.12C706.873 636.807 705.392 635.926 703.748 635.651C702.105 635.375 700.418 635.724 699.019 636.63L577.999 714.88C577.033 715.508 576.216 716.341 575.606 717.319C574.997 718.297 574.609 719.397 574.471 720.541C574.333 721.686 574.447 722.846 574.806 723.941C575.165 725.037 575.76 726.04 576.549 726.88C576.549 726.88 578.395 728.677 579.439 729.95"
        stroke="url(#paint6_linear_875_1357)" stroke-width="3" stroke-miterlimit="10" stroke-linecap="round" />
    <path
        d="M184.701 88.3901L263.461 36.4701C264.219 35.9662 264.865 35.3109 265.358 34.5454C265.85 33.7799 266.179 32.9207 266.324 32.0219C266.469 31.1231 266.426 30.2041 266.198 29.3226C265.97 28.4412 265.563 27.6164 265.001 26.9001L261.321 22.2001C260.306 20.9017 258.842 20.0306 257.217 19.7585C255.591 19.4863 253.923 19.833 252.541 20.7301L132.911 98.0601C131.951 98.6781 131.139 99.5001 130.533 100.467C129.927 101.435 129.542 102.524 129.404 103.657C129.267 104.79 129.381 105.94 129.738 107.024C130.095 108.108 130.687 109.1 131.471 109.93L134.321 112.93"
        stroke="#2980B9" stroke-width="3" stroke-miterlimit="10" stroke-linecap="round" />
    <path
        d="M50 546C63.2548 546 74 535.255 74 522C74 508.745 63.2548 498 50 498C36.7452 498 26 508.745 26 522C26 535.255 36.7452 546 50 546Z"
        stroke="white" stroke-width="4" stroke-miterlimit="10" />
    <path
        d="M90 496C96.6274 496 102 490.627 102 484C102 477.373 96.6274 472 90 472C83.3726 472 78 477.373 78 484C78 490.627 83.3726 496 90 496Z"
        fill="white" />
    <path
        d="M40 483C49.3888 483 57 475.389 57 466C57 456.611 49.3888 449 40 449C30.6112 449 23 456.611 23 466C23 475.389 30.6112 483 40 483Z"
        fill="white" />
    <path
        d="M87 457C91.9706 457 96 452.971 96 448C96 443.029 91.9706 439 87 439C82.0294 439 78 443.029 78 448C78 452.971 82.0294 457 87 457Z"
        fill="white" />
    <path
        d="M398.52 652.199C411.774 652.199 422.52 641.454 422.52 628.199C422.52 614.944 411.774 604.199 398.52 604.199C385.265 604.199 374.52 614.944 374.52 628.199C374.52 641.454 385.265 652.199 398.52 652.199Z"
        stroke="white" stroke-width="4" stroke-miterlimit="10" />
    <path
        d="M351.85 612.67C361.238 612.67 368.85 605.059 368.85 595.67C368.85 586.281 361.238 578.67 351.85 578.67C342.461 578.67 334.85 586.281 334.85 595.67C334.85 605.059 342.461 612.67 351.85 612.67Z"
        fill="white" />
    <path
        d="M215.745 398.55L240.904 355.883C241.964 354.073 242.27 351.917 241.756 349.882C241.242 347.848 239.949 346.097 238.156 345.007V345.007C237.229 344.444 236.196 344.075 235.121 343.924C234.047 343.772 232.952 343.842 231.905 344.127C230.858 344.413 229.88 344.909 229.031 345.585C228.182 346.261 227.479 347.103 226.966 348.059L202.19 393.181L185.98 419.964C184.563 419.757 183.117 419.992 181.838 420.637C180.558 421.281 179.509 422.304 178.831 423.566C178.153 424.828 177.88 426.268 178.049 427.691C178.217 429.114 178.82 430.45 179.774 431.518C180.729 432.586 181.989 433.335 183.383 433.662C184.778 433.989 186.239 433.878 187.568 433.345C188.898 432.813 190.031 431.883 190.814 430.684C191.597 429.484 191.992 428.072 191.946 426.64L215.745 398.55Z"
        fill="#A0616A" />
    <path
        d="M239.793 366.298C240.301 366.18 240.755 365.901 241.086 365.504C241.416 365.107 241.606 364.614 241.625 364.1C241.661 363.467 241.896 362.861 242.299 362.366C242.377 362.271 242.463 362.182 242.553 362.098C243.113 361.606 243.544 360.988 243.809 360.297C244.075 359.606 244.167 358.862 244.078 358.128C243.751 355.717 244.635 352.921 245.718 350.612C246.903 348.086 248.244 345.585 248.782 342.852C249.557 338.91 248.38 334.239 243.452 333.07C241.349 332.605 239.147 332.868 237.218 333.817C233.157 335.747 230.677 339.588 228.34 343.284C228.34 343.284 222.756 349.013 218.863 351.797C219.879 352.186 219.755 353.784 218.911 354.465C218.068 355.147 216.897 355.212 215.82 355.382C214.463 355.596 212.92 356.209 213.003 357.874C213.034 358.272 213.149 358.659 213.339 359.011C213.529 359.363 213.791 359.672 214.108 359.92C220.002 364.723 226.84 368.273 234.192 370.346C235.825 370.805 237.656 371.172 239.158 370.39C240.66 369.607 241.243 367.17 239.793 366.298Z"
        fill="#F3DE22" />
    <path d="M278 440.846L226.582 440.046L225 428.046L229.746 400.846H270.09L278 440.846Z" fill="#A0616A" />
    <path d="M209 688.846H200.192L196 654.846H209V688.846Z" fill="#A0616A" />
    <path
        d="M214 703.846H207.653L206.52 697.918L203.618 703.846H186.784C185.977 703.846 185.192 703.591 184.542 703.118C183.892 702.645 183.412 701.978 183.171 701.216C182.931 700.454 182.944 699.636 183.207 698.882C183.47 698.127 183.97 697.476 184.634 697.022L198.077 687.838V681.846L212.217 682.681L214 703.846Z"
        fill="#2F2E41" />
    <path d="M327 660.793L319.798 665.846L297 640.302L307.63 632.846L327 660.793Z" fill="#A0616A" />
    <path
        d="M339 669.985L334.028 673.529L329.867 669.363L330.868 675.782L317.681 685.182C317.049 685.632 316.292 685.865 315.522 685.845C314.752 685.825 314.008 685.553 313.399 685.071C312.79 684.588 312.348 683.919 312.137 683.161C311.927 682.403 311.959 681.596 312.229 680.858L317.688 665.917L314.379 661.065L325.916 653.846L339 669.985Z"
        fill="#2F2E41" />
    <path
        d="M276.955 430.439L223.769 426.846C223.769 426.846 211.446 455.387 211.643 459.16C211.84 462.932 216.926 461.796 211.641 467.47C206.356 473.144 206.356 465.289 206.356 473.144C206.356 481 184.988 655.398 194.391 656.969C210.845 659.326 210.061 656.184 210.061 656.184L235.881 575.078C235.881 575.078 282.5 643.409 297.034 639.687C311.568 635.964 308.787 631.045 308.787 631.045L277.646 567.669C277.646 567.669 273.003 567.661 273.657 562.431C274.311 557.201 270.349 558.086 270.349 558.086C270.349 558.086 264.399 556.226 266.613 553.178C268.827 550.131 262.95 548.368 262.95 548.368L280.101 482.547C280.101 482.547 292.315 454.114 276.955 430.439Z"
        fill="#2F2E41" />
    <path
        d="M272.575 320.846L254.223 321.781L248.097 332.167C248.097 332.167 230.64 333.455 230.64 347.682C230.64 361.91 218.725 355.718 224.29 373.832C229.855 391.945 231.123 395.437 226.169 398.038C221.214 400.639 214.223 400.079 220.468 404.311C226.713 408.544 229.069 410.124 227.498 411.705C225.927 413.286 256.617 400.849 274.262 408.648C274.262 408.648 279.199 404.888 278.091 401.578C276.984 398.268 276.381 399.548 278.253 396.537C280.126 393.526 300 341.154 300 341.154C300 341.154 295.965 333.606 287.26 333.926C278.555 334.246 272.575 320.846 272.575 320.846Z"
        fill="#F3DE22" />
    <path
        d="M337 496.279L304.333 513.846L279.25 468.044C276.899 463.752 276.366 458.71 277.766 454.027C279.167 449.344 282.388 445.405 286.72 443.075C291.052 440.746 296.14 440.217 300.865 441.605C305.591 442.993 309.566 446.185 311.917 450.477L337 496.279ZM304.969 511.721L334.856 495.649L310.527 451.225C309.462 449.28 308.021 447.562 306.287 446.168C304.552 444.775 302.557 443.734 300.416 443.105C298.275 442.476 296.03 442.271 293.809 442.502C291.588 442.732 289.435 443.394 287.472 444.45C285.51 445.505 283.776 446.933 282.37 448.653C280.965 450.372 279.915 452.349 279.28 454.471C278.646 456.593 278.44 458.817 278.673 461.018C278.906 463.219 279.575 465.352 280.64 467.297L304.969 511.721Z"
        fill="#3F3D56" />
    <path
        d="M364.746 529.235L316.656 555.095C315.498 555.722 314.168 555.965 312.86 555.791C311.553 555.616 310.335 555.033 309.386 554.125L276.912 523.237C276.206 522.565 275.67 521.739 275.348 520.823C275.025 519.908 274.925 518.931 275.056 517.97C275.186 517.009 275.544 516.093 276.099 515.295C276.654 514.497 277.392 513.84 278.252 513.377L350.378 474.591C351.237 474.129 352.195 473.874 353.173 473.848C354.151 473.822 355.121 474.024 356.005 474.439C356.889 474.854 357.662 475.47 358.26 476.237C358.859 477.004 359.267 477.899 359.45 478.852L367.887 522.666C368.138 523.949 367.968 525.279 367.403 526.46C366.838 527.642 365.907 528.614 364.746 529.235Z"
        fill="#F3DE22" />
    <path d="M314.647 494.012L309.795 496.645L314.308 504.962L319.16 502.329L314.647 494.012Z" fill="#3F3D56" />
    <path
        d="M302 403.779L300.586 354.546C300.52 352.46 299.63 350.484 298.108 349.043C296.586 347.603 294.554 346.814 292.451 346.847V346.847C291.363 346.864 290.289 347.1 289.296 347.542C288.303 347.984 287.412 348.621 286.675 349.416C285.939 350.211 285.373 351.146 285.013 352.165C284.653 353.184 284.506 354.264 284.581 355.341L287.63 406.438L288.163 437.564C286.85 438.141 285.747 439.105 285.005 440.324C284.264 441.544 283.918 442.961 284.016 444.382C284.114 445.803 284.651 447.16 285.554 448.268C286.456 449.376 287.681 450.182 289.061 450.576C290.441 450.969 291.91 450.932 293.268 450.469C294.626 450.005 295.807 449.139 296.651 447.986C297.496 446.834 297.962 445.451 297.986 444.027C298.011 442.603 297.593 441.205 296.789 440.025L302 403.779Z"
        fill="#A0616A" />
    <path
        d="M305.966 364.305C306.336 363.939 306.573 363.464 306.639 362.954C306.706 362.445 306.599 361.928 306.335 361.483C306.019 360.928 305.889 360.291 305.964 359.661C305.979 359.539 306.003 359.419 306.035 359.3C306.246 358.59 306.277 357.841 306.127 357.117C305.977 356.392 305.649 355.714 305.172 355.139C303.574 353.27 302.803 350.439 302.469 347.916C302.103 345.156 301.886 342.334 300.853 339.739C299.362 335.995 295.8 332.658 290.939 334.255C288.882 334.965 287.139 336.345 286.004 338.161C283.58 341.926 283.554 346.479 283.571 350.835L282.7 349.114C282.804 353.871 281.921 358.6 280.103 363.017C281.187 362.812 281.954 364.231 281.603 365.25C281.253 366.27 280.285 366.94 279.455 367.649C278.41 368.543 277.422 369.871 278.404 371.237C278.648 371.558 278.957 371.825 279.313 372.024C279.668 372.222 280.062 372.346 280.469 372.389C288.145 373.361 295.945 372.777 303.379 370.672C305.029 370.203 306.799 369.553 307.658 368.102C308.517 366.652 307.685 364.282 305.966 364.305Z"
        fill="#F3DE22" />
    <path
        d="M290.23 295.576C289.169 299.474 290.388 305.61 290.848 309.248C291.339 313.137 284.543 316.618 280.654 316.838C280.75 315.55 280.386 314.271 279.625 313.224C279.616 314.469 279.357 315.7 278.864 316.846H246.415C242.328 309.216 238.851 298.79 242.605 288.01C242.795 285.845 243.626 283.784 244.993 282.086C246.36 280.387 248.202 279.127 250.288 278.464L267.982 272.846C274.96 272.846 283.522 273.828 287.379 278.982C289.086 281.355 290.229 284.081 290.723 286.955C291.217 289.829 291.048 292.776 290.23 295.576V295.576Z"
        fill="#2F2E41" />
    <path
        d="M260.5 316.846C270.717 316.846 279 308.563 279 298.346C279 288.128 270.717 279.846 260.5 279.846C250.283 279.846 242 288.128 242 298.346C242 308.563 250.283 316.846 260.5 316.846Z"
        fill="#A0616A" />
    <path
        d="M283 293.913V297.854H267.364C267.523 297.093 267.523 296.308 267.365 295.547C267.207 294.786 266.894 294.066 266.445 293.432C266.432 294.975 266.05 296.491 265.329 297.854C256.288 300.535 248.7 300.484 242.481 297.854C242.024 297.854 241.571 297.763 241.149 297.588C240.727 297.412 240.343 297.155 240.02 296.831C239.696 296.507 239.44 296.122 239.265 295.698C239.09 295.274 239 294.82 239 294.362C239 282.28 248.494 272.1 260.537 271.851C263.464 271.788 266.375 272.313 269.097 273.394C271.82 274.475 274.3 276.09 276.392 278.145C278.485 280.2 280.147 282.653 281.281 285.361C282.416 288.068 283 290.976 283 293.913V293.913Z"
        fill="#2F2E41" />
    <path
        d="M280.39 266.791C278.529 265.927 276.433 265.561 274.964 263.846L275.519 266.751C272.5 265.15 268.99 264.715 265.667 265.531C264.69 265.725 263.789 266.189 263.066 266.869C262.666 267.288 262.366 267.791 262.187 268.341C262.009 268.891 261.957 269.473 262.036 270.045C262.122 270.54 262.312 271.012 262.593 271.43C262.874 271.849 263.239 272.204 263.666 272.474C264.434 272.906 265.277 273.191 266.151 273.314C269.784 274.046 273.418 274.779 277.051 275.511C278.409 275.907 279.846 275.952 281.226 275.643C281.981 275.387 282.645 274.918 283.135 274.294C283.625 273.669 283.92 272.916 283.985 272.128C284.192 269.647 282.251 267.654 280.39 266.791Z"
        fill="#2F2E41" />
    <rect x="158.629" y="382.486" width="7.00683" height="53" transform="rotate(-31.2993 158.629 382.486)"
        fill="#2F2E41" />
    <rect x="163.211" y="384.777" width="1.50174" height="6" transform="rotate(-32.1694 163.211 384.777)"
        fill="#ECD1D1" />
    <rect x="168" y="392.646" width="1.50174" height="11.6989" transform="rotate(-32.1694 168 392.646)"
        fill="#ECD1D1" />
    <defs>
        <linearGradient id="paint0_linear_875_1357" x1="256.771" y1="243.68" x2="256.771" y2="823.71"
            gradientUnits="userSpaceOnUse">
            <stop stop-color="#2F8ECC" stop-opacity="0" />
            <stop offset="0.972916" stop-color="#2980B9" />
        </linearGradient>
        <linearGradient id="paint1_linear_875_1357" x1="236" y1="107" x2="278" y2="107" gradientUnits="userSpaceOnUse">
            <stop stop-color="#2980B9" />
            <stop offset="0.32" stop-color="#2980B9" />
            <stop offset="0.484375" stop-color="#2980B9" />
            <stop offset="0.84" stop-color="#2980B9" />
            <stop offset="1" stop-color="#2980B9" />
        </linearGradient>
        <linearGradient id="paint2_linear_875_1357" x1="661" y1="417" x2="701" y2="417" gradientUnits="userSpaceOnUse">
            <stop stop-color="#2980B9" />
            <stop offset="0.32" stop-color="#2980B9" />
            <stop offset="0.484375" stop-color="#2980B9" />
            <stop offset="0.84" stop-color="#2980B9" />
            <stop offset="1" stop-color="#2980B9" />
        </linearGradient>
        <linearGradient id="paint3_linear_875_1357" x1="565.66" y1="607.46" x2="626.74" y2="607.46"
            gradientUnits="userSpaceOnUse">
            <stop stop-color="#2980B9" />
            <stop offset="0.317708" stop-color="#2980B9" />
            <stop offset="0.84" stop-color="#2980B9" />
            <stop offset="1" stop-color="#2980B9" />
        </linearGradient>
        <linearGradient id="paint4_linear_875_1357" x1="540" y1="482" x2="562" y2="482" gradientUnits="userSpaceOnUse">
            <stop stop-color="#2980B9" />
            <stop offset="0.32" stop-color="#2980B9" />
            <stop offset="0.484375" stop-color="#2980B9" />
            <stop offset="0.84" stop-color="#2980B9" />
            <stop offset="1" stop-color="#2980B9" />
        </linearGradient>
        <linearGradient id="paint5_linear_875_1357" x1="622" y1="128" x2="644" y2="128" gradientUnits="userSpaceOnUse">
            <stop stop-color="#60BCCB" />
            <stop offset="0.32" stop-color="#57BFC3" />
            <stop offset="0.84" stop-color="#3EC6AF" />
            <stop offset="1" stop-color="#35C9A7" />
        </linearGradient>
        <linearGradient id="paint6_linear_875_1357" x1="574.051" y1="680.733" x2="713.325" y2="685.037"
            gradientUnits="userSpaceOnUse">
            <stop stop-color="#2980B9" />
            <stop offset="0.32" stop-color="#2980B9" />
            <stop offset="0.453125" stop-color="#2980B9" />
            <stop offset="0.84" stop-color="#2980B9" />
            <stop offset="1" stop-color="#2980B9" />
        </linearGradient>
    </defs>
</svg>