<svg width="231" height="375" viewBox="0 0 231 375" fill="none" xmlns="http://www.w3.org/2000/svg">
<path d="M221.5 0.845703C221.5 0.845703 -28.63 106.136 3.38996 211.656C16.6338 255.242 45.2586 292.534 83.9399 316.596C116.94 337.116 174.68 368.166 231 374.896V0.845703H221.5Z" fill="#7AB7DF"/>
<path d="M231.001 -0.154297C231.001 -0.154297 -20.0894 98.1557 10.8806 196.666C23.8006 237.786 51.8206 272.476 88.7806 294.666C120.691 313.846 176.531 342.846 231.001 349.086L231.001 -0.154297Z" fill="url(#paint0_linear_1142_152)"/>
<path d="M133 208.846C146.255 208.846 157 198.101 157 184.846C157 171.591 146.255 160.846 133 160.846C119.745 160.846 109 171.591 109 184.846C109 198.101 119.745 208.846 133 208.846Z" stroke="white" stroke-width="4" stroke-miterlimit="10"/>
<path d="M173 158.846C179.627 158.846 185 153.473 185 146.846C185 140.218 179.627 134.846 173 134.846C166.373 134.846 161 140.218 161 146.846C161 153.473 166.373 158.846 173 158.846Z" fill="white"/>
<path d="M123 145.846C132.389 145.846 140 138.235 140 128.846C140 119.457 132.389 111.846 123 111.846C113.611 111.846 106 119.457 106 128.846C106 138.235 113.611 145.846 123 145.846Z" fill="white"/>
<path d="M170 119.846C174.971 119.846 179 115.816 179 110.846C179 105.875 174.971 101.846 170 101.846C165.029 101.846 161 105.875 161 110.846C161 115.816 165.029 119.846 170 119.846Z" fill="white"/>
<defs>
<linearGradient id="paint0_linear_1142_152" x1="119.618" y1="-0.154297" x2="119.618" y2="349.086" gradientUnits="userSpaceOnUse">
<stop stop-color="#2980B9" stop-opacity="0"/>
<stop offset="1" stop-color="#2980B9"/>
</linearGradient>
</defs>
</svg>
