<svg width="789" height="824" viewBox="0 0 789 824" fill="none" xmlns="http://www.w3.org/2000/svg">
    <path
        d="M-2 267.295C-2 267.295 191.33 173.605 302.39 210.415C413.45 247.225 524.51 556.745 524.51 556.745C524.51 556.745 563.18 656.355 484.39 733.555C451.12 766.155 403.67 787.045 352.14 793.215C261.13 804.095 52.24 823.565 -2 780.845V267.295Z"
        fill="#7AB7DF" />
    <path
        d="M-2 306.237C-2 306.237 183.24 216.467 289.65 251.737C396.06 287.007 502.47 583.566 502.47 583.566C502.47 583.566 539.47 679.007 464.03 752.977C432.15 784.217 386.69 804.226 337.32 810.136C250.11 820.566 50 839.226 -2 798.276V306.237Z"
        fill="url(#paint0_linear_875_1262)" />
    <path
        d="M255 127.846C266.598 127.846 276 118.444 276 106.846C276 95.2477 266.598 85.8457 255 85.8457C243.402 85.8457 234 95.2477 234 106.846C234 118.444 243.402 127.846 255 127.846Z"
        fill="url(#paint1_linear_875_1262)" />
    <path
        d="M686.191 569.166C703.953 569.166 718.351 554.767 718.351 537.006C718.351 519.244 703.953 504.846 686.191 504.846C668.43 504.846 654.031 519.244 654.031 537.006C654.031 554.767 668.43 569.166 686.191 569.166Z"
        fill="#2980B9" />
    <path
        d="M679 436.846C690.046 436.846 699 427.891 699 416.846C699 405.8 690.046 396.846 679 396.846C667.954 396.846 659 405.8 659 416.846C659 427.891 667.954 436.846 679 436.846Z"
        fill="url(#paint2_linear_875_1262)" />
    <path
        d="M594.2 635.346C609.686 635.346 622.24 622.792 622.24 607.306C622.24 591.82 609.686 579.266 594.2 579.266C578.714 579.266 566.16 591.82 566.16 607.306C566.16 622.792 578.714 635.346 594.2 635.346Z"
        stroke="url(#paint3_linear_875_1262)" stroke-width="5" stroke-miterlimit="10" />
    <path
        d="M549 492.846C555.075 492.846 560 487.921 560 481.846C560 475.771 555.075 470.846 549 470.846C542.925 470.846 538 475.771 538 481.846C538 487.921 542.925 492.846 549 492.846Z"
        fill="url(#paint4_linear_875_1262)" />
    <path
        d="M57 201.846C63.0751 201.846 68 196.921 68 190.846C68 184.771 63.0751 179.846 57 179.846C50.9249 179.846 46 184.771 46 190.846C46 196.921 50.9249 201.846 57 201.846Z"
        fill="#2980B9" />
    <path
        d="M631 138.846C637.075 138.846 642 133.921 642 127.846C642 121.771 637.075 116.846 631 116.846C624.925 116.846 620 121.771 620 127.846C620 133.921 624.925 138.846 631 138.846Z"
        fill="url(#paint5_linear_875_1262)" />
    <path
        d="M384 87.8457C395.598 87.8457 405 78.4437 405 66.8457C405 55.2477 395.598 45.8457 384 45.8457C372.402 45.8457 363 55.2477 363 66.8457C363 78.4437 372.402 87.8457 384 87.8457Z"
        stroke="#2980B9" stroke-width="5" stroke-miterlimit="10" />
    <path
        d="M641.394 4.65681L447.032 103.518C444.846 104.63 443.975 107.303 445.087 109.489L445.813 110.915C446.924 113.1 449.597 113.971 451.783 112.859L646.145 13.9979C648.331 12.8862 649.201 10.2131 648.089 8.02745L647.364 6.60133C646.252 4.41568 643.579 3.54508 641.394 4.65681Z"
        fill="#2980B9" />
    <path
        d="M724.246 2.39204L604.034 63.5378C601.848 64.6495 600.977 67.3226 602.089 69.5083L602.815 70.9344C603.926 73.12 606.599 73.9906 608.785 72.8789L728.998 11.7331C731.183 10.6214 732.054 7.94833 730.942 5.76268L730.217 4.33656C729.105 2.15091 726.432 1.28031 724.246 2.39204Z"
        fill="#2980B9" />
    <path
        d="M780.237 185.406L660.024 246.551C657.838 247.663 656.968 250.336 658.079 252.522L658.805 253.948C659.916 256.134 662.59 257.004 664.775 255.893L784.988 194.747C787.174 193.635 788.044 190.962 786.932 188.776L786.207 187.35C785.095 185.165 782.422 184.294 780.237 185.406Z"
        fill="#2980B9" />
    <path
        d="M628.359 704.946C659.484 684.428 708.059 652.406 708.059 652.406C708.828 651.898 709.483 651.236 709.983 650.462C710.483 649.688 710.817 648.819 710.964 647.91C711.112 647 711.069 646.07 710.84 645.178C710.61 644.286 710.198 643.451 709.629 642.726L705.899 637.966C704.873 636.653 703.392 635.772 701.748 635.496C700.105 635.221 698.418 635.57 697.019 636.476L575.999 714.726C575.033 715.354 574.216 716.187 573.606 717.165C572.997 718.143 572.609 719.243 572.471 720.387C572.333 721.531 572.447 722.692 572.806 723.787C573.165 724.882 573.76 725.885 574.549 726.726C574.549 726.726 576.395 728.523 577.439 729.796"
        stroke="url(#paint6_linear_875_1262)" stroke-width="3" stroke-miterlimit="10" stroke-linecap="round" />
    <path
        d="M182.701 88.2358L261.461 36.3158C262.219 35.8119 262.865 35.1566 263.358 34.3911C263.85 33.6256 264.179 32.7664 264.324 31.8676C264.469 30.9688 264.426 30.0498 264.198 29.1684C263.97 28.2869 263.563 27.4621 263.001 26.7458L259.321 22.0458C258.306 20.7474 256.842 19.8763 255.217 19.6042C253.591 19.332 251.923 19.6787 250.541 20.5758L130.911 97.9058C129.951 98.5238 129.139 99.3458 128.533 100.313C127.927 101.28 127.542 102.369 127.404 103.503C127.267 104.636 127.381 105.786 127.738 106.87C128.095 107.954 128.687 108.946 129.471 109.776L132.321 112.776"
        stroke="#2980B9" stroke-width="3" stroke-miterlimit="10" stroke-linecap="round" />
    <path
        d="M48 545.846C61.2548 545.846 72 535.101 72 521.846C72 508.591 61.2548 497.846 48 497.846C34.7452 497.846 24 508.591 24 521.846C24 535.101 34.7452 545.846 48 545.846Z"
        stroke="white" stroke-width="4" stroke-miterlimit="10" />
    <path
        d="M88 495.846C94.6274 495.846 100 490.473 100 483.846C100 477.218 94.6274 471.846 88 471.846C81.3726 471.846 76 477.218 76 483.846C76 490.473 81.3726 495.846 88 495.846Z"
        fill="white" />
    <path
        d="M38 482.846C47.3888 482.846 55 475.235 55 465.846C55 456.457 47.3888 448.846 38 448.846C28.6112 448.846 21 456.457 21 465.846C21 475.235 28.6112 482.846 38 482.846Z"
        fill="white" />
    <path
        d="M85 456.846C89.9706 456.846 94 452.816 94 447.846C94 442.875 89.9706 438.846 85 438.846C80.0294 438.846 76 442.875 76 447.846C76 452.816 80.0294 456.846 85 456.846Z"
        fill="white" />
    <path
        d="M396.52 652.045C409.774 652.045 420.52 641.3 420.52 628.045C420.52 614.79 409.774 604.045 396.52 604.045C383.265 604.045 372.52 614.79 372.52 628.045C372.52 641.3 383.265 652.045 396.52 652.045Z"
        stroke="white" stroke-width="4" stroke-miterlimit="10" />
    <path
        d="M349.85 612.516C359.238 612.516 366.85 604.904 366.85 595.516C366.85 586.127 359.238 578.516 349.85 578.516C340.461 578.516 332.85 586.127 332.85 595.516C332.85 604.904 340.461 612.516 349.85 612.516Z"
        fill="white" />
    <path opacity="0.24"
        d="M598.769 431.245H227.859C216.398 431.232 205.41 426.673 197.305 418.569C189.201 410.464 184.642 399.476 184.629 388.015V186.015C184.642 174.554 189.201 163.566 197.305 155.462C205.41 147.357 216.398 142.798 227.859 142.785H598.769C610.228 142.798 621.215 147.356 629.319 155.458C637.423 163.56 641.983 174.546 641.999 186.005V388.005C641.988 399.468 637.431 410.459 629.326 418.565C621.221 426.672 610.232 431.232 598.769 431.245V431.245Z"
        fill="#6EB2DB" />
    <path
        d="M575.39 430.176H225.24C214.419 430.165 204.045 425.862 196.394 418.211C188.743 410.56 184.44 400.186 184.43 389.366V198.656C184.44 187.835 188.743 177.461 196.394 169.81C204.045 162.159 214.419 157.856 225.24 157.846H575.39C586.21 157.856 596.584 162.159 604.235 169.81C611.886 177.461 616.189 187.835 616.2 198.656V389.366C616.186 400.185 611.883 410.558 604.232 418.208C596.582 425.859 586.209 430.162 575.39 430.176V430.176Z"
        fill="#2B3C49" />
    <path opacity="0.23" d="M298.789 157.846L479.449 430.176L501.999 429.846L318.999 157.846H298.789Z" fill="#E8ECEF" />
    <path opacity="0.23" d="M357.789 157.846L538.449 430.176L576.999 429.846L409.999 157.846H357.789Z" fill="#E8ECEF" />
    <path
        d="M401.86 251.846H398.14C379.837 251.846 365 266.683 365 284.986V288.706C365 307.008 379.837 321.846 398.14 321.846H401.86C420.163 321.846 435 307.008 435 288.706V284.986C435 266.683 420.163 251.846 401.86 251.846Z"
        fill="#E8ECEF" />
    <path d="M372.42 385.846H222V379.846H372.42" fill="url(#paint7_linear_875_1262)" />
    <path d="M372.42 379.846H570V385.846H372.42" fill="#CED6DB" />
    <path
        d="M220.5 176.846C222.985 176.846 225 174.831 225 172.346C225 169.86 222.985 167.846 220.5 167.846C218.015 167.846 216 169.86 216 172.346C216 174.831 218.015 176.846 220.5 176.846Z"
        fill="#D5D8DB" />
    <path
        d="M234.5 176.846C236.985 176.846 239 174.831 239 172.346C239 169.86 236.985 167.846 234.5 167.846C232.015 167.846 230 169.86 230 172.346C230 174.831 232.015 176.846 234.5 176.846Z"
        fill="#D5D8DB" />
    <path
        d="M249.5 176.846C251.985 176.846 254 174.831 254 172.346C254 169.86 251.985 167.846 249.5 167.846C247.015 167.846 245 169.86 245 172.346C245 174.831 247.015 176.846 249.5 176.846Z"
        fill="#D5D8DB" />
    <path
        d="M594.48 112.845C607.7 108.845 620.85 108.575 633.96 113.435C640.456 115.975 646.462 119.623 651.71 124.215C653.53 125.745 652.46 127.065 651.5 127.985C648.23 131.095 645.58 134.725 642.17 137.795C633.3 145.795 625.17 154.535 616.68 162.995C616.205 163.393 615.858 163.921 615.68 164.515C614.711 170.838 614.16 177.219 614.031 183.615C613.971 194.825 614.031 206.045 614.031 217.265C614.031 222.835 614.03 222.625 608.66 222.265C598.554 221.518 588.868 217.915 580.73 211.875C567.22 202.095 559.73 188.785 557.73 172.175C555.97 157.175 560.08 143.975 568.73 131.935C568.893 131.601 569.001 131.243 569.05 130.875C576.45 123.335 584.29 116.455 594.48 112.845Z"
        fill="#EF7B80" />
    <path
        d="M665.709 169.615C665.959 169.615 666.209 169.615 666.459 169.565C672.629 168.495 673.619 169.365 673.079 175.415C670.779 201.115 649.829 222.885 624.449 225.965C624.199 225.965 623.949 225.965 623.699 225.965C617.249 226.425 617.329 226.205 617.419 219.635C617.629 205.325 617.499 191.005 617.499 176.695C617.499 169.785 617.499 169.785 624.279 169.555H626.049H628.049L665.709 169.615Z"
        fill="#F9D478" />
    <path
        d="M622.92 166.845C621.92 166.565 620.39 167.255 620.01 165.845C619.69 164.625 621.01 163.935 621.74 163.175C632.36 152.455 642.987 141.751 653.62 131.065C658.28 126.395 658.25 126.455 662.55 131.705C667.548 137.776 671.177 144.853 673.19 152.455C673.58 154.595 674.61 163.155 674.87 164.695C674.8 167.025 673.08 166.695 671.58 166.775C671.05 166.775 667.53 166.775 667 166.825C665.45 166.955 645.36 166.905 644 166.825C635.63 166.895 627.83 167.115 622.92 166.845Z"
        fill="#F98FF9" />
    <path
        d="M589.349 314.446C579.919 314.446 579.269 313.836 579.349 306.256C579.349 297.946 580.349 296.986 588.209 296.986C595.869 296.986 596.599 298.336 596.989 307.766C597.239 314.656 593.389 314.966 589.349 314.446Z"
        fill="#E2E9F2" />
    <path
        d="M587.61 336.935C579.98 336.825 579.11 335.815 579.27 327.235C579.39 320.635 580.99 319.235 588.44 319.335C595.63 319.415 596.98 321.115 596.83 329.905C596.72 336.005 595.37 337.045 587.61 336.935Z"
        fill="#E2E9F2" />
    <path
        d="M588.07 292.166C580.48 292.166 579.33 290.966 579.36 283.276C579.36 276.276 580.85 274.836 588.07 274.846C595.47 274.846 596.79 276.436 596.73 285.216C596.68 291.236 595.49 292.186 588.07 292.166Z"
        fill="#E2E9F2" />
    <path
        d="M665.711 275.615H606.091C604.274 275.615 602.801 277.088 602.801 278.905V286.875C602.801 288.692 604.274 290.165 606.091 290.165H665.711C667.528 290.165 669.001 288.692 669.001 286.875V278.905C669.001 277.088 667.528 275.615 665.711 275.615Z"
        fill="#E077DD" />
    <path
        d="M649.711 298.615H605.091C603.274 298.615 601.801 300.088 601.801 301.905V309.875C601.801 311.692 603.274 313.165 605.091 313.165H649.711C651.528 313.165 653.001 311.692 653.001 309.875V301.905C653.001 300.088 651.528 298.615 649.711 298.615Z"
        fill="#E077DD" />
    <path
        d="M678.711 320.615H604.091C602.274 320.615 600.801 322.088 600.801 323.905V331.875C600.801 333.692 602.274 335.165 604.091 335.165H678.711C680.528 335.165 682.001 333.692 682.001 331.875V323.905C682.001 322.088 680.528 320.615 678.711 320.615Z"
        fill="#E077DD" />
    <path
        d="M388.07 276.665V297.535C388.07 298.083 388.212 298.623 388.482 299.1C388.752 299.578 389.141 299.977 389.611 300.26C390.081 300.543 390.616 300.699 391.164 300.714C391.713 300.729 392.256 300.602 392.74 300.345L413.94 289.075C414.464 288.795 414.899 288.375 415.196 287.862C415.493 287.348 415.64 286.762 415.622 286.169C415.603 285.576 415.419 285 415.09 284.506C414.761 284.012 414.3 283.62 413.76 283.375L392.56 273.765C392.076 273.546 391.544 273.452 391.014 273.491C390.484 273.531 389.972 273.703 389.525 273.991C389.078 274.28 388.711 274.676 388.457 275.143C388.203 275.61 388.07 276.133 388.07 276.665Z"
        fill="#414344" />
    <path
        d="M365 390.846C369.418 390.846 373 387.264 373 382.846C373 378.427 369.418 374.846 365 374.846C360.582 374.846 357 378.427 357 382.846C357 387.264 360.582 390.846 365 390.846Z"
        fill="url(#paint8_linear_875_1262)" />
    <path
        d="M263 751.846C333.14 751.846 390 749.159 390 745.846C390 742.532 333.14 739.846 263 739.846C192.86 739.846 136 742.532 136 745.846C136 749.159 192.86 751.846 263 751.846Z"
        fill="#A5D8DB" />
    <path
        d="M357.41 268.845C358.216 271.29 358.02 273.956 356.863 276.256C355.706 278.557 353.684 280.304 351.24 281.115C350.696 281.295 350.137 281.426 349.57 281.505L338.28 358.575L319.76 349.525L338.39 272.595C338.225 270.224 338.931 267.874 340.376 265.986C341.821 264.099 343.904 262.803 346.236 262.343C348.568 261.883 350.988 262.289 353.042 263.486C355.095 264.683 356.641 266.589 357.39 268.845H357.41Z"
        fill="#9E616A" />
    <path
        d="M222.561 515.695C224.056 513.6 224.658 510.996 224.234 508.457C223.81 505.918 222.396 503.652 220.301 502.155C219.832 501.825 219.337 501.534 218.821 501.285L226.441 419.285L210.491 427.455L205.491 506.455C204.608 508.678 204.571 511.147 205.388 513.395C206.205 515.643 207.82 517.513 209.924 518.649C212.029 519.785 214.478 520.109 216.805 519.559C219.133 519.009 221.178 517.623 222.551 515.665L222.561 515.695Z"
        fill="#9E616A" />
    <path d="M233.459 474.236L301.919 471.596L305.869 400.506H226.879L233.459 474.236Z" fill="#9E616A" />
    <path d="M220.75 725.306H232.45L238.02 680.186H220.75V725.306Z" fill="#9E616A" />
    <path
        d="M217.849 719.536L236.339 718.436V726.356L253.929 738.496C254.758 739.116 255.374 739.977 255.691 740.962C256.009 741.947 256.014 743.006 255.705 743.994C255.395 744.981 254.787 745.848 253.964 746.476C253.141 747.103 252.143 747.459 251.109 747.496H229.109L225.309 739.656L223.829 747.496H215.529L217.849 719.536Z"
        fill="#2F2E41" />
    <path d="M272.789 725.306H284.489L290.049 680.186H272.789V725.306Z" fill="#9E616A" />
    <path
        d="M232.51 457.545C232.51 457.545 212.02 474.085 223.13 533.145C221.44 533.345 223.35 536.675 223.35 536.675L225 584.845L226.23 590.365L222.12 599.265L223.81 608.935L218.58 696.695L237.91 699.195L256.41 608.055L259.93 597.815L263.46 588.815L261.56 579.235L263.12 564.365L273.78 514.245L276.39 601.175L272.75 609.475L274.75 618.585L270.23 623.425L268.45 704.765L289.05 705.765L306.11 623.765L304.78 613.295L307.05 605.565V587.435L310.94 578.905L319.41 532.395C319.41 532.395 321.96 496.055 303.32 453.275L232.51 457.545Z"
        fill="#2F2E41" />
    <path
        d="M240.859 341.416C240.859 341.416 214.979 346.536 210.529 368.606C206.079 390.676 203.199 440.606 203.199 440.606L204.199 447.556L229.199 453.366L245.199 383.366L240.859 341.416Z"
        fill="#F3DE22" />
    <path
        d="M299.9 348.846C299.9 348.846 302.52 345.176 317.21 344.606C317.82 344.606 317.07 343.386 317.07 343.386L324.13 308.846L347.67 321.846L343.67 358.036L305 402.036L299.9 348.846Z"
        fill="#F3DE22" />
    <path
        d="M285.23 451.785C274.15 451.785 257.47 450.565 232.36 446.835C230.742 446.592 229.245 445.837 228.086 444.682C226.927 443.527 226.168 442.032 225.92 440.415C225.095 439.551 224.556 438.454 224.377 437.273C224.198 436.092 224.388 434.885 224.92 433.815L224.35 433.145C223.47 432.11 222.953 430.816 222.879 429.459C222.805 428.103 223.177 426.759 223.94 425.635L216.16 370.005C215.37 364.481 216.578 358.856 219.566 354.142C222.554 349.429 227.126 345.937 232.46 344.295L235.33 343.405L246.19 329.205H246.4L281.25 329.665L292.56 344.025L310.84 348.345L310.89 348.615L315.14 373.145C317.35 385.905 312.28 390.915 305.82 402.145L307.72 433.655L308.58 435.215C309.059 436.079 309.222 437.084 309.039 438.055C308.857 439.027 308.341 439.904 307.58 440.535C308.161 442.183 308.199 443.974 307.69 445.645L307.25 447.115C307.25 447.115 307.13 447.765 306.16 448.495C304.45 449.765 299.46 451.785 285.23 451.785Z"
        fill="#F3DE22" />
    <path
        d="M269.889 719.536L288.379 718.436V726.356L305.999 738.496C306.827 739.115 307.443 739.976 307.761 740.96C308.08 741.944 308.085 743.002 307.777 743.989C307.469 744.976 306.862 745.843 306.04 746.471C305.219 747.099 304.223 747.457 303.189 747.496H281.189L277.399 739.656L275.909 747.496H267.609L269.889 719.536Z"
        fill="#2F2E41" />
    <path
        d="M262.34 321.156C277.428 321.156 289.66 308.924 289.66 293.836C289.66 278.747 277.428 266.516 262.34 266.516C247.251 266.516 235.02 278.747 235.02 293.836C235.02 308.924 247.251 321.156 262.34 321.156Z"
        fill="#9E616A" />
    <path
        d="M278.321 267.146C268.321 260.256 259.481 259.206 252.241 261.146C251.3 259.695 249.983 258.527 248.431 257.766C242.781 243.536 225.591 234.986 210.831 239.136C196.071 243.286 185.731 259.766 188.531 274.946C190.261 284.346 196.181 292.496 198.531 301.756C203.141 319.686 191.901 340.226 174.311 346.006C190.961 349.346 209.311 339.176 215.261 323.276C218.171 315.556 218.341 307.126 218.711 298.886C218.807 293.195 219.504 287.53 220.791 281.986C221.43 279.501 222.332 277.09 223.481 274.796C225.982 269.749 230.14 265.714 235.261 263.366C234.802 264.784 234.687 266.29 234.925 267.761C235.164 269.232 235.748 270.625 236.631 271.826C232.721 276.716 230.631 282.006 230.631 285.176C222.521 300.006 234.121 312.736 248.941 320.846C254.853 324.103 261.684 325.296 268.351 324.236L268.971 321.586L269.811 323.976L272.621 331.976C275.861 333.549 279.071 335.266 282.251 337.126C281.041 331.456 280.061 325.786 279.391 320.256C278.461 312.716 281.701 301.496 284.041 294.666C285.498 290.462 286.244 286.045 286.251 281.596V281.406L288.531 288.726L296.831 285.186C295.291 276.326 296.831 266.266 278.321 267.146Z"
        fill="#2F2E41" />
    <defs>
        <linearGradient id="paint0_linear_875_1262" x1="254.771" y1="243.525" x2="254.771" y2="823.556"
            gradientUnits="userSpaceOnUse">
            <stop stop-color="#2980B9" stop-opacity="0" />
            <stop offset="1" stop-color="#2889C9" />
        </linearGradient>
        <linearGradient id="paint1_linear_875_1262" x1="234" y1="106.846" x2="276" y2="106.846"
            gradientUnits="userSpaceOnUse">
            <stop stop-color="#2980B9" />
            <stop offset="0.32" stop-color="#2980B9" />
            <stop offset="0.484375" stop-color="#2980B9" />
            <stop offset="0.84" stop-color="#2980B9" />
            <stop offset="1" stop-color="#2980B9" />
        </linearGradient>
        <linearGradient id="paint2_linear_875_1262" x1="659" y1="416.846" x2="699" y2="416.846"
            gradientUnits="userSpaceOnUse">
            <stop stop-color="#2980B9" />
            <stop offset="0.32" stop-color="#2980B9" />
            <stop offset="0.484375" stop-color="#2980B9" />
            <stop offset="0.84" stop-color="#2980B9" />
            <stop offset="1" stop-color="#2980B9" />
        </linearGradient>
        <linearGradient id="paint3_linear_875_1262" x1="563.66" y1="607.306" x2="624.74" y2="607.306"
            gradientUnits="userSpaceOnUse">
            <stop stop-color="#2980B9" />
            <stop offset="0.317708" stop-color="#2980B9" />
            <stop offset="0.84" stop-color="#2980B9" />
            <stop offset="1" stop-color="#2980B9" />
        </linearGradient>
        <linearGradient id="paint4_linear_875_1262" x1="538" y1="481.846" x2="560" y2="481.846"
            gradientUnits="userSpaceOnUse">
            <stop stop-color="#2980B9" />
            <stop offset="0.32" stop-color="#2980B9" />
            <stop offset="0.484375" stop-color="#2980B9" />
            <stop offset="0.84" stop-color="#2980B9" />
            <stop offset="1" stop-color="#2980B9" />
        </linearGradient>
        <linearGradient id="paint5_linear_875_1262" x1="620" y1="127.846" x2="642" y2="127.846"
            gradientUnits="userSpaceOnUse">
            <stop stop-color="#60BCCB" />
            <stop offset="0.32" stop-color="#57BFC3" />
            <stop offset="0.84" stop-color="#3EC6AF" />
            <stop offset="1" stop-color="#35C9A7" />
        </linearGradient>
        <linearGradient id="paint6_linear_875_1262" x1="572.051" y1="680.579" x2="711.325" y2="684.883"
            gradientUnits="userSpaceOnUse">
            <stop stop-color="#2980B9" />
            <stop offset="0.32" stop-color="#2980B9" />
            <stop offset="0.453125" stop-color="#2980B9" />
            <stop offset="0.84" stop-color="#2980B9" />
            <stop offset="1" stop-color="#2980B9" />
        </linearGradient>
        <linearGradient id="paint7_linear_875_1262" x1="222" y1="382.846" x2="372.42" y2="382.846"
            gradientUnits="userSpaceOnUse">
            <stop stop-color="#60BCCB" />
            <stop offset="0.32" stop-color="#57BFC3" />
            <stop offset="0.84" stop-color="#3EC6AF" />
            <stop offset="1" stop-color="#35C9A7" />
        </linearGradient>
        <linearGradient id="paint8_linear_875_1262" x1="357" y1="382.846" x2="373" y2="382.846"
            gradientUnits="userSpaceOnUse">
            <stop stop-color="#60BCCB" />
            <stop offset="0.32" stop-color="#57BFC3" />
            <stop offset="0.84" stop-color="#3EC6AF" />
            <stop offset="1" stop-color="#35C9A7" />
        </linearGradient>
    </defs>
</svg>