<svg width="176" height="252" viewBox="0 0 176 252" fill="none" xmlns="http://www.w3.org/2000/svg">
    <path
        d="M9.03713 36.0963C15.6589 14.6373 35.494 0 57.9514 0H80.9472C116.879 0 146.008 29.1285 146.008 65.0604V68.8825C146.008 72.4933 146.417 76.0925 147.229 79.611C154.799 112.436 126.909 142.566 93.5983 137.551L52.4173 131.35C32.6421 128.373 16.2234 114.524 9.9541 95.5343L9.60832 94.4869C3.35823 75.5551 3.15859 55.1468 9.03713 36.0963Z"
        fill="#97C6D1" />
    <ellipse cx="98" cy="240" rx="78" ry="12" fill="#DDDCDC" />
    <g clip-path="url(#clip0_1177_152)">
        <path
            d="M87.1806 173.48C71.1806 167.19 62.2906 155.15 60.9106 138.38C59.9806 127.09 58.8306 116.43 51.7906 106.91C48.3606 102.27 50.1906 96.4802 54.5506 93.1802C58.9106 89.8802 63.5506 90.2502 68.1406 94.2402C71.8406 97.4402 74.4506 101.48 76.9806 105.61C80.1706 110.81 81.8506 111.26 86.9806 107.9C96.1006 101.96 103.611 94.1402 111.301 86.5602C115.451 82.4702 119.361 78.1502 123.471 74.0202C128.471 69.0202 134.911 68.5702 139.471 72.8202C144.271 77.2602 144.361 83.9202 139.281 89.1802C135.371 93.2302 131.021 96.8602 126.401 101.1C132.641 104.49 136.151 108.35 135.401 114.75C135.191 116.58 136.991 116.56 138.091 117.16C141.401 118.96 143.561 121.67 143.461 125.51C143.401 127.93 144.461 128.87 146.391 129.98C151.951 133.21 154.181 140.22 150.291 144.98C142.101 154.98 134.291 165.48 122.221 171.45L122.071 171.52C115.165 174.944 107.485 176.505 99.7906 176.05C99.3606 176.05 98.9406 175.99 98.5106 175.95C94.6567 175.533 90.8585 174.705 87.1806 173.48Z"
            fill="#4BA9BF" />
        <path
            d="M83.5698 20C87.3398 29.77 88.9698 40.1 91.6398 50.16C92.0498 51.68 91.8898 53.27 90.0798 53.83C89.7975 53.9236 89.4985 53.9558 89.2027 53.9245C88.9069 53.8933 88.6213 53.7992 88.3647 53.6487C88.1082 53.4982 87.8868 53.2947 87.7152 53.0518C87.5436 52.8089 87.4259 52.5321 87.3698 52.24C84.6998 42.19 81.6898 32.24 80.0898 21.9C80.1309 21.2413 80.2972 20.5964 80.5798 20H83.5698Z"
            fill="#4BA9BF" />
        <path
            d="M54.5709 52.6504C55.1567 52.6945 55.7267 52.8615 56.2436 53.1406C56.7605 53.4198 57.2128 53.8047 57.5709 54.2704C63.9009 60.6104 70.2509 66.9104 76.5709 73.2704C77.8009 74.5204 79.6609 75.9204 77.7909 77.8504C75.9209 79.7804 74.4509 78.0604 73.1909 76.8504C66.8309 70.5504 60.5209 64.1904 54.1909 57.8504C53.1309 56.7804 52.0309 55.6904 52.6809 53.9604C52.8229 53.5741 53.0806 53.2411 53.4188 53.0066C53.7571 52.7722 54.1594 52.6478 54.5709 52.6504Z"
            fill="#4BA9BF" />
        <path
            d="M122.51 49.9804C122.51 54.3004 122.51 58.6304 122.51 62.9804C122.51 64.8804 122.51 67.0504 120.12 67.1904C117.73 67.3304 117.51 65.1904 117.52 63.2604C117.52 54.4404 117.52 45.6204 117.52 36.8004C117.52 34.9204 117.52 32.7304 120.1 32.8504C122.68 32.9704 122.49 35.1504 122.49 37.0104C122.51 41.3238 122.516 45.6471 122.51 49.9804Z"
            fill="#4BA9BF" />
        <path
            d="M93.3392 78.9208C93.8492 75.4008 93.6692 72.9208 89.9492 71.3008C93.0992 69.4908 96.7792 69.7808 96.7792 64.3008C99.1692 68.3008 100.779 70.5508 104.689 70.1708C102.629 73.0208 100.779 75.3708 102.089 79.1008C98.8592 77.6908 96.2092 76.6608 93.3392 78.9208Z"
            fill="#4BA9BF" />
        <path
            d="M103.269 34.2009C108.729 32.2509 107.809 37.0809 109.399 39.0709L104.779 42.7509C103.519 41.1309 101.169 40.6309 100.439 38.4909C102.569 37.8309 100.279 33.7609 103.269 34.2009Z"
            fill="#4BA9BF" />
        <path
            d="M73.5704 41.6392C76.4704 46.5492 70.0504 44.3192 68.6804 46.3592C67.4204 44.8492 65.1905 43.3592 65.1605 41.8292C65.1305 40.2992 67.3205 38.7492 68.5305 37.1992C69.2905 39.5092 74.0504 36.4192 73.5704 41.6392Z"
            fill="#4BA9BF" />
        <path
            d="M83.2509 166.15C87.4209 163.39 92.1809 162.68 95.1809 159.15C96.6809 157.38 98.2909 155.7 99.6809 153.85C99.8616 153.616 99.9924 153.347 100.065 153.06C100.138 152.773 100.152 152.475 100.105 152.182C100.058 151.89 99.9519 151.611 99.793 151.361C99.6341 151.111 99.4258 150.897 99.1809 150.73C98.9607 150.534 98.7026 150.386 98.4226 150.294C98.1425 150.202 97.8465 150.168 97.5529 150.195C97.2594 150.223 96.9746 150.31 96.7162 150.452C96.4578 150.594 96.2313 150.787 96.0509 151.02C94.4109 152.66 93.051 154.57 91.271 156.09C83.861 162.58 74.0709 160.68 69.5709 151.93C66.3152 145.513 64.7492 138.371 65.021 131.18C65.2845 122.638 62.691 114.252 57.651 107.35C56.827 106.303 56.1538 105.145 55.651 103.91C54.791 101.4 54.9609 99.0404 57.3109 97.1904C59.6609 95.3404 61.921 95.6304 64.151 97.2704C66.788 99.3159 69.0081 101.848 70.6909 104.73C72.3803 107.591 74.2612 110.334 76.3209 112.94C79.1609 116.39 79.1009 120.25 77.3209 124.19C76.5509 125.86 75.4609 127.84 77.8809 128.84C80.3009 129.84 81.1009 127.69 81.8109 126.03C82.5209 124.37 83.6409 122.42 83.3209 120.85C82.3209 115.77 85.5709 114.49 89.0409 112.32C100.391 105.21 109.441 95.3704 118.841 85.9704C121.541 83.2704 124.091 80.4104 126.781 77.6904C130.081 74.3604 133.711 74.0104 136.391 76.6904C139.071 79.3704 139.001 82.7604 135.531 86.3004C128.071 93.8804 120.451 101.3 112.971 108.87C106.081 115.87 107.091 123.06 115.701 127.87C116.295 128.1 116.804 128.506 117.162 129.033C117.519 129.56 117.707 130.184 117.701 130.82C118.011 136.2 120.701 139.82 125.941 141.41C127.051 141.73 128.271 141.89 128.411 143.41C128.821 147.76 131.111 150.74 134.921 152.78C137.141 153.97 135.141 154.95 134.451 155.78C128.392 163.107 120.003 168.134 110.685 170.021C101.367 171.908 91.6833 170.542 83.2509 166.15Z"
            fill="#FEFEFE" />
        <path
            d="M124.75 106.741C125.855 106.726 126.94 107.039 127.867 107.641C128.794 108.242 129.523 109.105 129.96 110.121C130.524 111.241 130.717 112.513 130.508 113.751C130.299 114.989 129.701 116.127 128.8 117.001C126.86 119.001 124.57 120.661 122.44 122.491C121.662 123.23 120.652 123.677 119.581 123.756C118.511 123.834 117.447 123.539 116.57 122.921C115.63 122.394 114.854 121.619 114.325 120.681C113.796 119.743 113.534 118.677 113.57 117.601C113.57 114.021 120.77 106.811 124.75 106.741Z"
            fill="#FBFBFB" />
        <path
            d="M128.06 136.849C127.061 136.779 126.099 136.44 125.277 135.868C124.455 135.296 123.803 134.512 123.39 133.599C122.28 131.429 122.39 129.229 124.11 127.599C126.36 125.384 128.829 123.404 131.48 121.689C132.157 121.275 132.927 121.038 133.72 120.998C134.512 120.958 135.302 121.118 136.017 121.462C136.732 121.806 137.35 122.324 137.813 122.968C138.276 123.612 138.571 124.362 138.67 125.149C139.2 128.499 131.5 136.999 128.06 136.849Z"
            fill="#FAFAFA" />
        <path
            d="M133.351 142.679C133.351 140.389 138.711 133.909 140.941 133.449C141.27 133.382 141.611 133.382 141.941 133.449C145.381 134.149 147.081 136.349 147.031 139.789C146.981 143.229 141.731 148.789 138.821 148.699C135.911 148.609 133.291 145.729 133.351 142.679Z"
            fill="#FBFBFB" />
    </g>
    <defs>
        <clipPath id="clip0_1177_152">
            <rect width="102.3" height="156.1" fill="white" transform="translate(50 20)" />
        </clipPath>
    </defs>
</svg>