<svg width="796" height="800" viewBox="0 0 896 901" fill="none" xmlns="http://www.w3.org/2000/svg">
    <path
        d="M465.024 0L562.366 50.4C585.302 62.2775 605.43 78.4395 621.521 97.8991C637.612 117.359 649.328 139.707 655.954 163.58L789.73 645.63C800.753 685.359 797.168 727.44 779.561 765L716.267 900H3V0H465.024Z"
        fill="#A0D1DC" />
    <path
        d="M435.72 1L527.52 51.4C549.15 63.2775 568.133 79.4395 583.308 98.8991C598.483 118.359 609.532 140.707 615.78 164.58L741.94 646.63C752.335 686.359 748.955 728.44 732.35 766L672.66 901H0V1H435.72Z"
        fill="#2980B9" />
</svg>