<svg width="350" height="350" viewBox="0 0 350 350" fill="none" xmlns="http://www.w3.org/2000/svg">
<rect width="350" height="350" fill="#D9D9D9"/>
<path d="M207.809 152.683C216.346 145.966 222.578 136.755 225.637 126.331C228.696 115.908 228.429 104.79 224.875 94.5244C221.321 84.259 214.656 75.3567 205.807 69.0559C196.957 62.7551 186.364 59.3691 175.501 59.3691C164.638 59.3691 154.045 62.7551 145.195 69.0559C136.346 75.3567 129.681 84.259 126.126 94.5244C122.572 104.79 122.306 115.908 125.365 126.331C128.424 136.755 134.655 145.966 143.193 152.683C128.564 158.544 115.799 168.265 106.26 180.81C96.7209 193.355 90.765 208.254 89.0271 223.917C88.9013 225.061 89.002 226.218 89.3234 227.323C89.6449 228.428 90.1807 229.458 90.9004 230.356C92.3539 232.168 94.468 233.33 96.7776 233.584C99.0871 233.838 101.403 233.164 103.216 231.71C105.029 230.257 106.19 228.143 106.444 225.833C108.356 208.81 116.473 193.088 129.244 181.671C142.015 170.255 158.545 163.943 175.675 163.943C192.805 163.943 209.335 170.255 222.106 181.671C234.877 193.088 242.994 208.81 244.906 225.833C245.143 227.973 246.164 229.949 247.772 231.381C249.38 232.812 251.462 233.597 253.615 233.584H254.573C256.855 233.321 258.942 232.167 260.377 230.372C261.813 228.578 262.481 226.289 262.236 224.004C260.49 208.296 254.502 193.36 244.914 180.796C235.326 168.231 222.499 158.513 207.809 152.683ZM175.501 146.5C168.612 146.5 161.877 144.457 156.149 140.63C150.42 136.802 145.956 131.362 143.319 124.997C140.683 118.632 139.993 111.628 141.337 104.871C142.681 98.1143 145.998 91.9076 150.87 87.0361C155.742 82.1646 161.948 78.847 168.705 77.503C175.462 76.1589 182.466 76.8487 188.831 79.4852C195.196 82.1216 200.636 86.5863 204.464 92.3146C208.291 98.0429 210.334 104.778 210.334 111.667C210.334 120.905 206.664 129.765 200.132 136.298C193.599 142.83 184.739 146.5 175.501 146.5Z" fill="black"/>
<path d="M165.279 290.705C165.279 285.571 169.441 281.41 174.575 281.41C179.708 281.41 183.87 285.571 183.87 290.705C183.87 295.838 179.708 300 174.575 300C169.441 300 165.279 295.838 165.279 290.705Z" fill="black"/>
<path fill-rule="evenodd" clip-rule="evenodd" d="M155.876 268.572C155.876 261.402 161.688 255.59 168.857 255.59H180.291C187.461 255.59 193.273 261.402 193.273 268.572C193.273 268.633 193.32 268.684 193.382 268.689L202.592 269.437C206.718 269.772 210.111 272.823 210.882 276.89C212.847 287.269 212.993 297.91 211.315 308.339L210.913 310.835C210.155 315.54 206.283 319.12 201.533 319.506L193.509 320.157C180.907 321.181 168.242 321.181 155.64 320.157L147.616 319.506C142.866 319.12 138.993 315.54 138.236 310.835L137.834 308.339C136.156 297.91 136.302 287.269 138.267 276.89C139.037 272.823 142.431 269.772 146.557 269.437L155.767 268.689C155.828 268.684 155.876 268.633 155.876 268.572ZM174.575 275.213C166.019 275.213 159.083 282.149 159.083 290.705C159.083 299.261 166.019 306.196 174.575 306.196C183.13 306.196 190.066 299.261 190.066 290.705C190.066 282.149 183.13 275.213 174.575 275.213Z" fill="black"/>
</svg>
