<svg width="324" height="296" viewBox="0 0 261 310" fill="none" xmlns="http://www.w3.org/2000/svg">
    <g clip-path="url(#clip0_1568_120)">
        <path
            d="M86.1478 157.118C87.122 157.758 88.3723 158.251 87.6904 159.829C85.4334 159.449 83.2251 158.664 80.8869 159.02C79.5392 159.239 78.3701 159.757 78.5893 161.367C78.7841 162.824 79.9613 163.05 81.2116 162.913C83.7172 162.647 86.2349 163.293 88.2993 164.734C88.7372 165.023 89.2371 165.206 89.7587 165.268C90.2804 165.329 90.8094 165.268 91.3031 165.09C91.8146 167.518 92.6671 169.872 92.7077 172.422C92.8457 180.328 88.9082 184.124 80.9356 183.622C82.5593 181.615 84.248 179.64 84.7108 176.929C84.9381 175.61 84.7758 174.501 83.428 174.137C82.0803 173.773 81.3091 174.582 80.9924 175.91C80.5661 178.011 79.3301 179.862 77.5501 181.065C76.0156 182.101 75.9264 183.339 77.1279 184.706C66.9877 195.008 56.7419 205.205 47.5028 216.357C46.0008 218.17 45.879 219.432 48.3877 220.403C57.643 224.166 67.2718 226.416 76.9331 228.844C78.5568 229.232 79.1414 228.245 79.7665 227.039C85.4334 216.206 91.1164 205.378 96.8158 194.555C102.425 183.793 108.579 173.321 115.253 163.18C118.501 158.324 122.39 153.995 128.154 152.02C136.979 149.01 144.708 151.494 151.536 157.272C157.625 162.427 161.221 169.46 165.102 176.209C174.471 192.508 182.687 209.389 190.765 226.384C191.878 228.73 192.706 228.933 194.922 227.573C201.076 223.778 207.303 220.104 213.084 215.734C215.138 214.18 215.057 212.861 213.676 210.943C208.984 204.469 203.544 198.585 198.486 192.394C196.676 190.177 194.516 188.194 193.347 185.491C193.212 184.65 192.794 183.88 192.162 183.306C190.562 181.923 189.449 180.066 188.987 178.006C188.663 176.759 188.127 175.788 186.665 176.12C185.204 176.452 184.944 177.633 185.261 179.025C186.024 181.89 187.553 184.494 189.686 186.56C185.626 187.935 180.958 186.025 178.482 181.898C176.229 178.31 175.235 174.077 175.656 169.864C176.761 170.018 178.141 170.018 178.319 168.796C178.92 164.588 181.997 163.584 185.431 162.832C186.6 162.581 187.77 162.023 187.469 160.542C187.169 159.061 185.91 158.794 184.53 159.02C181.924 159.449 179.659 160.744 177.345 161.845C177.232 158.284 180.276 156.69 182.046 154.294C182.422 154.592 182.873 154.782 183.349 154.843C183.825 154.904 184.31 154.835 184.749 154.642C186.763 153.702 188.956 153.203 191.179 153.177C192.446 153.177 193.274 152.546 193.258 151.308C193.255 151.039 193.197 150.773 193.087 150.528C192.977 150.282 192.817 150.062 192.617 149.881C192.417 149.7 192.182 149.562 191.926 149.477C191.67 149.391 191.4 149.358 191.131 149.382C188.526 149.358 185.946 149.879 183.556 150.911C183.008 151.101 182.53 151.451 182.185 151.916C181.84 152.381 181.644 152.939 181.624 153.517C178.153 153.574 174.694 153.94 171.289 154.61C167.814 155.419 165.078 153.946 164.233 151.187C163.324 148.249 164.688 145.344 167.822 143.83C170.956 142.317 174.317 141.961 177.662 141.702C187.339 140.957 196.197 143.571 204.38 148.613C219.359 157.847 231.489 170.148 242.327 183.824C247.198 189.934 252.338 195.801 256.251 202.607C259.644 208.515 261.569 214.787 260.854 221.641C260.278 227.185 257.03 231.433 253.434 235.399C245.071 244.519 234.517 250.799 223.963 257.047C219.571 259.661 215.032 262.04 210.494 264.379C208.976 265.188 208.594 265.819 209.349 267.454C211.031 271.027 212.219 274.811 212.881 278.703C213.912 284.975 211.557 290.105 206.004 293.27C201.433 295.851 196.359 296.604 191.277 297.081C161.018 299.938 130.679 298.878 100.347 298.635C88.4865 298.653 76.6497 297.569 64.9905 295.398C62.8916 295.018 60.9084 294.162 59.1937 292.897C55.0369 289.765 53.7867 285.654 55.2643 280.289C56.1625 277.238 57.3731 274.288 58.8771 271.484C59.9162 269.445 59.421 268.684 57.2533 268.166C47.1193 265.814 37.1717 262.725 27.4902 258.924C20.914 256.302 14.7925 252.903 9.71833 247.797C-1.46112 236.564 -3.18225 223.664 5.53723 210.433C19.825 188.521 37.3412 168.878 57.4969 152.166C67.6291 143.83 79.3362 140.245 92.5697 142.009C96.1987 142.495 99.8765 142.689 103.351 143.879C106.599 144.988 108.296 147.164 108.426 150.183C108.588 153.849 107.378 155.807 103.717 156.196C98.1067 156.787 92.4398 157.005 86.8298 155.913C86.888 155.428 86.7983 154.937 86.5724 154.504C86.3464 154.071 85.9948 153.716 85.5633 153.485C82.2427 151.866 78.8247 150.693 75.009 151.389C73.6044 151.64 72.5733 152.263 72.8899 153.857C73.2066 155.451 74.3189 155.557 75.5529 155.265C78.1509 154.642 80.5134 155.492 82.8029 156.471C83.8362 156.991 84.9942 157.216 86.1478 157.118ZM121.359 189.19C122.715 189.166 124.049 188.837 125.26 188.226C126.471 187.614 127.527 186.738 128.349 185.661C129.12 184.674 129.502 183.557 128.349 182.594C127.196 181.631 126.295 182.157 125.353 183.104C122.52 185.92 120.92 186.042 117.592 183.63C116.495 182.821 115.481 182.521 114.555 183.63C113.63 184.739 114.174 185.758 115.083 186.657C116.76 188.289 119.014 189.199 121.359 189.19V189.19ZM150.513 188.065C151.775 188.054 153.01 187.697 154.082 187.033C155.155 186.369 156.024 185.424 156.594 184.302C156.844 183.896 156.933 183.412 156.844 182.944C156.755 182.477 156.493 182.059 156.111 181.773C155.729 181.488 155.254 181.354 154.778 181.4C154.303 181.446 153.862 181.667 153.541 182.02C151.796 184.536 149.912 184.925 147.55 182.829C147.378 182.652 147.17 182.515 146.94 182.425C146.71 182.336 146.464 182.296 146.217 182.31C145.971 182.324 145.73 182.39 145.512 182.505C145.293 182.62 145.102 182.78 144.952 182.975C144.76 183.162 144.611 183.387 144.513 183.636C144.414 183.884 144.37 184.151 144.381 184.418C144.393 184.685 144.46 184.946 144.579 185.186C144.699 185.425 144.867 185.637 145.073 185.807C145.759 186.555 146.602 187.143 147.543 187.528C148.483 187.912 149.498 188.085 150.513 188.032V188.065ZM131.88 201.482C134.382 200.986 136.929 200.758 139.48 200.803C139.724 200.809 139.968 200.764 140.194 200.671C140.42 200.577 140.624 200.438 140.792 200.261C140.961 200.084 141.09 199.873 141.171 199.643C141.253 199.413 141.285 199.168 141.266 198.925C141.275 198.685 141.237 198.445 141.152 198.22C141.068 197.994 140.939 197.788 140.773 197.613C140.608 197.438 140.409 197.298 140.188 197.201C139.967 197.104 139.729 197.052 139.488 197.048C136.725 196.737 133.928 196.985 131.263 197.776C131.025 197.823 130.799 197.92 130.6 198.059C130.401 198.199 130.233 198.379 130.109 198.587C129.984 198.795 129.904 199.028 129.875 199.268C129.846 199.509 129.868 199.754 129.94 199.985C130.026 200.424 130.272 200.817 130.63 201.087C130.988 201.357 131.433 201.486 131.88 201.45V201.482Z"
            fill="#86CCD6" />
        <path
            d="M60.6621 24.2212C60.6621 16.4846 65.5334 10.2533 72.4667 8.65092C85.0507 5.76183 97.6347 3.0265 110.259 0.145511C112.443 -0.356235 113.507 0.428761 114.156 2.40337C115.26 5.87513 116.527 9.30642 117.558 12.7944C118.045 14.4129 118.516 15.0765 120.489 14.6233C125.141 13.5551 128.299 14.7366 129.931 17.6419C131.563 20.5471 131.181 23.1854 128.616 25.3704C127.951 25.9295 127.233 26.4228 126.472 26.8432C122.023 29.3682 122.056 29.352 123.103 34.4746C123.809 37.9626 124.386 41.4748 125.027 44.9951C125.409 47.0587 124.686 48.2322 122.527 48.7339C117.103 50.0692 111.745 51.6554 106.289 52.9988C104.73 53.3791 104.381 53.8889 104.601 55.5237C105.153 59.6752 102.855 62.4996 98.4546 63.5435C94.6957 64.4418 92.5443 63.2926 90.9855 59.1006C90.3766 57.4821 89.6297 57.385 88.2332 57.7815C83.7923 59.0521 79.3026 60.3146 74.8617 61.4637C71.1109 62.4267 69.1786 61.4637 68.3667 57.8301C65.9311 47.5524 62.5457 37.5013 60.9219 27.0779C60.7758 25.8721 60.7108 24.7149 60.6621 24.2212Z"
            fill="#074058" />
        <path
            d="M188.825 53.1697C186.032 52.9998 183.239 52.8784 180.454 52.6275C179.09 52.5061 178.433 52.8703 178.571 54.3189C178.624 54.8949 178.624 55.4746 178.571 56.0507C178.492 57.3588 177.973 58.6022 177.098 59.5801C176.223 60.5581 175.043 61.2135 173.748 61.4404C170.947 61.8127 169.194 60.2913 168.065 57.9444C167.676 57.2794 167.443 56.5351 167.383 55.7675C167.448 52.1419 165.021 52.0529 162.374 51.9882C157.17 51.8668 151.958 51.9882 146.754 51.4783C144.489 51.2517 143.677 50.2321 143.904 48.1118C144.404 42.8429 144.589 37.549 144.456 32.2582C144.456 30.4698 145.268 29.8304 146.827 29.709C148.653 29.5715 150.488 29.5715 152.315 29.4096C155.847 29.0778 158.591 26.7876 158.704 24.1575C158.802 21.7297 156.269 19.14 153.021 18.3874C151.039 17.9537 149.008 17.7849 146.981 17.8857C145.511 17.9423 144.878 17.2544 144.968 15.7816C145.195 12.2289 145.341 8.67618 145.593 5.13159C145.714 3.34311 146.705 2.21014 148.58 2.31534C161.091 2.98704 173.675 3.12461 185.926 5.95705C199.038 8.99989 203.187 18.0151 202.074 31.0443C201.53 37.4699 200.02 43.7417 198.778 50.054C198.291 52.5304 197.114 53.4772 194.613 53.2344C192.686 53.1157 190.754 53.0941 188.825 53.1697V53.1697Z"
            fill="#7BBB96" />
        <path
            d="M198.057 95.5101C198.425 100.322 198.105 105.161 197.107 109.883C195.791 116.462 192.714 119.691 186.008 120.678C174.074 122.426 162.034 123.341 150.002 124.215C147.323 124.409 146.511 123.349 146.535 120.678C146.535 116.26 146.154 111.833 145.886 107.422C145.805 106.103 145.699 105.092 143.694 105.893C140.544 107.139 137.507 105.982 135.502 103.311C134.525 102.1 133.955 100.613 133.87 99.0614C133.786 97.5095 134.192 95.9702 135.031 94.6603C136.655 92.0788 139.415 90.9296 142.866 91.925C145.098 92.5643 145.488 91.9978 145.407 89.918C145.269 86.4544 145.407 82.9826 145.35 79.5109C145.301 77.4391 146.3 76.5409 148.232 76.2738C154.167 75.5616 160.11 74.8576 166.036 74.0645C167.66 73.8541 168.066 74.4529 168.115 75.9258C168.128 77.7602 168.509 79.5734 169.235 81.2589C170.144 83.2335 171.671 84.2855 173.895 83.7433C176.12 83.2011 176.785 81.5421 176.647 79.5594C176.488 78.0303 176.178 76.5205 175.722 75.0518C175.381 73.8055 175.722 73.3119 177.045 73.239C181.86 72.9882 186.666 72.5593 191.488 72.4298C194.736 72.3246 196.481 74.2992 197.034 78.2484C197.431 81.1051 197.845 83.9699 198.016 86.8509C198.186 89.7319 198.057 92.621 198.057 95.5101Z"
            fill="#F77761" />
        <path
            d="M93.3651 129.022C90.9569 129.348 88.5068 129.162 86.1757 128.477C83.8445 127.793 81.6851 126.624 79.8393 125.048C75.8286 121.617 74.3186 117.069 73.661 112.1C72.5081 103.425 71.3228 94.7492 70.1943 86.0738C69.7315 82.5131 71.68 80.1338 75.2684 79.713C78.6215 79.3246 82.0151 79.1141 85.3194 78.4748C87.6251 78.0378 88.2746 78.7095 88.6806 80.9026C89.6142 86.0172 94.3149 88.534 98.6178 86.527C99.9975 85.7991 101.109 84.6521 101.79 83.2523C102.472 81.8525 102.689 80.2727 102.409 78.7419C102.093 76.6216 102.888 76.3141 104.65 76.1846C109.164 75.7961 113.678 75.2863 118.176 74.7117C120.319 74.4366 121.423 75.1649 121.781 77.3419C122.649 82.4564 123.567 87.5629 124.614 92.6451C125.052 94.7573 124.541 94.8706 122.633 94.3203C117.908 92.9688 114.279 94.7977 113.524 98.6741C113.221 99.8517 113.293 101.094 113.729 102.229C114.166 103.364 114.945 104.336 115.959 105.011C118.395 106.743 121.009 106.678 123.632 105.383C126.481 103.975 126.441 103.967 126.879 107.196C127.52 111.962 128.17 116.729 128.909 121.479C129.493 125.299 129.177 125.898 125.328 126.335C115.391 127.597 105.381 128.293 93.3651 129.022Z"
            fill="#FCC83B" />
        <path
            d="M177.344 161.804C179.674 160.703 181.923 159.376 184.529 158.98C185.909 158.753 187.143 158.939 187.468 160.501C187.793 162.063 186.599 162.541 185.43 162.791C181.996 163.544 178.935 164.548 178.318 168.756C178.14 169.978 176.76 169.978 175.655 169.824C173.512 166.967 175.599 164.79 176.841 162.476C177.182 162.371 177.393 162.176 177.352 161.796L177.344 161.804Z"
            fill="#0E475F" />
        <path
            d="M86.1482 157.12C85.0049 157.22 83.8561 157.005 82.8276 156.497C80.5381 155.518 78.1756 154.668 75.5776 155.291C74.3436 155.583 73.142 155.388 72.9147 153.883C72.6874 152.378 73.6291 151.666 75.0337 151.415C78.8251 150.719 82.2431 151.9 85.588 153.511C86.0195 153.742 86.3711 154.097 86.5971 154.53C86.823 154.963 86.9127 155.454 86.8545 155.939C86.2456 156.117 86.2537 156.651 86.1482 157.12Z"
            fill="#0B455D" />
        <path
            d="M91.3029 165.114C90.8092 165.293 90.2802 165.354 89.7585 165.292C89.2369 165.23 88.737 165.047 88.2991 164.758C86.2347 163.318 83.717 162.671 81.2114 162.937C79.9611 163.075 78.7758 162.848 78.5891 161.391C78.3699 159.773 79.539 159.263 80.8867 159.045C83.2249 158.664 85.4332 159.449 87.6902 159.854H87.8525C88.0636 159.975 88.2747 160.097 88.4777 160.226C89.9471 161.545 92.9592 161.998 91.3029 165.114Z"
            fill="#0E475F" />
        <path
            d="M77.1349 184.732C75.9659 183.364 76.0227 182.126 77.5571 181.09C79.3372 179.887 80.573 178.037 80.9994 175.935C81.3079 174.608 82.0386 173.767 83.435 174.163C84.8314 174.56 84.9451 175.636 84.7178 176.955C84.255 179.666 82.5988 181.641 80.9426 183.648C79.6761 184.052 78.71 185.452 77.1349 184.732Z"
            fill="#0D465E" />
        <path
            d="M189.686 186.519C187.553 184.454 186.024 181.849 185.261 178.985C184.945 177.593 185.091 176.444 186.666 176.08C188.241 175.715 188.663 176.719 188.988 177.965C189.45 180.025 190.562 181.883 192.162 183.266C192.795 183.839 193.212 184.61 193.347 185.451C192.503 187.086 191.188 187.11 189.686 186.519Z"
            fill="#0D465F" />
        <path
            d="M181.623 153.477C181.644 152.899 181.839 152.34 182.184 151.875C182.529 151.41 183.007 151.06 183.555 150.871C185.945 149.838 188.526 149.317 191.13 149.341C191.399 149.318 191.67 149.35 191.926 149.436C192.181 149.522 192.416 149.66 192.616 149.841C192.816 150.022 192.976 150.242 193.086 150.487C193.197 150.733 193.255 150.998 193.257 151.267C193.257 152.506 192.445 153.121 191.179 153.137C188.955 153.162 186.763 153.662 184.749 154.602C184.309 154.794 183.825 154.864 183.348 154.803C182.872 154.741 182.421 154.551 182.045 154.254L181.623 153.477Z"
            fill="#0C455D" />
        <path
            d="M88.4767 160.219C88.2738 160.09 88.0626 159.968 87.8516 159.847C88.3224 159.531 88.4524 159.79 88.4767 160.219Z"
            fill="#86CCD6" />
        <path
            d="M177.353 161.797C177.353 162.177 177.182 162.371 176.841 162.477C176.817 162.104 176.922 161.829 177.353 161.797Z"
            fill="#86CCD6" />
        <path
            d="M121.358 189.19C119.014 189.2 116.762 188.287 115.091 186.649C114.181 185.75 113.613 184.731 114.563 183.622C115.513 182.513 116.503 182.813 117.599 183.622C120.928 186.05 122.527 185.912 125.361 183.096C126.302 182.149 127.228 181.631 128.357 182.586C129.485 183.541 129.12 184.666 128.357 185.653C127.537 186.735 126.481 187.616 125.268 188.229C124.055 188.842 122.718 189.17 121.358 189.19Z"
            fill="#0B455D" />
        <path
            d="M150.513 188.033C149.494 188.081 148.478 187.902 147.537 187.51C146.596 187.118 145.755 186.523 145.073 185.767C144.867 185.597 144.698 185.385 144.579 185.146C144.46 184.907 144.392 184.645 144.381 184.378C144.369 184.111 144.414 183.845 144.512 183.596C144.611 183.347 144.76 183.122 144.951 182.935C145.102 182.74 145.293 182.58 145.511 182.465C145.73 182.351 145.97 182.284 146.217 182.27C146.463 182.257 146.71 182.296 146.94 182.385C147.169 182.475 147.377 182.613 147.549 182.789C149.912 184.893 151.795 184.505 153.541 181.98C153.861 181.627 154.303 181.406 154.778 181.36C155.253 181.315 155.729 181.448 156.111 181.734C156.493 182.019 156.754 182.437 156.844 182.905C156.933 183.372 156.844 183.856 156.593 184.262C156.024 185.386 155.156 186.333 154.084 186.998C153.011 187.663 151.776 188.021 150.513 188.033V188.033Z"
            fill="#0C455D" />
        <path
            d="M131.881 201.451C131.429 201.486 130.98 201.353 130.621 201.076C130.262 200.799 130.02 200.399 129.94 199.954C129.869 199.722 129.847 199.478 129.876 199.237C129.905 198.996 129.984 198.764 130.109 198.556C130.234 198.348 130.401 198.168 130.6 198.028C130.799 197.888 131.025 197.792 131.264 197.745C133.928 196.954 136.725 196.706 139.488 197.017C139.729 197.021 139.967 197.073 140.188 197.17C140.409 197.267 140.608 197.407 140.774 197.582C140.939 197.757 141.068 197.963 141.153 198.189C141.237 198.414 141.276 198.654 141.266 198.894C141.285 199.137 141.253 199.382 141.172 199.612C141.09 199.842 140.961 200.052 140.793 200.23C140.624 200.407 140.42 200.546 140.194 200.64C139.968 200.733 139.725 200.778 139.48 200.772C136.93 200.727 134.382 200.955 131.881 201.451V201.451Z"
            fill="#0D465F" />
    </g>
    <defs>
        <clipPath id="clip0_1568_120">
            <rect width="261" height="299" fill="white" />
        </clipPath>
    </defs>
</svg>