<svg width="324" height="296" viewBox="0 0 324 296" fill="none" xmlns="http://www.w3.org/2000/svg">
<g clip-path="url(#clip0_1568_101)">
<path d="M119.604 126.708C121.359 114.266 123.035 101.816 124.884 89.3899C125.887 82.6776 127.023 75.9732 128.402 69.3317C130.713 58.2572 137.96 51.537 147.08 52.0401C154.021 52.4095 159.85 55.5377 165.037 60.0099C178.034 71.2101 189.473 83.943 201.162 96.4244C214.833 111.028 227.8 126.237 240.735 141.516C243.539 144.841 246.305 148.197 248.311 152.088C252.228 159.712 251.131 166.015 244.589 171.446C242.56 173.136 242.333 173.804 244.589 175.447C263.324 188.651 282.002 201.932 300.622 215.288C301.347 215.868 302.203 216.259 303.115 216.427C304.027 216.594 304.966 216.532 305.848 216.247C310.329 215.06 314.889 214.18 319.402 213.103C320.804 212.773 322.316 211.917 323.429 213.316C324.541 214.715 323.86 216.059 323.021 217.348C314.913 229.86 307.423 242.79 297.864 254.289C293.947 259.005 291.307 259.405 286.316 255.963C267.936 243.272 249.577 230.557 231.239 217.819C230.98 217.315 230.765 216.789 230.597 216.247C229.077 209.291 227.659 208.128 220.686 208.199C219.526 208.199 218.375 208.199 217.215 208.144C212.57 204.252 207.588 200.782 202.329 197.777L202.416 197.847L201.632 197.006C199.713 193.996 201.146 192.849 204.069 191.843C210.509 189.626 216.855 187.127 223.201 184.627C224.58 184.085 226.765 183.558 225.77 181.42C224.775 179.283 223.013 180.815 221.642 181.318C215.249 183.671 208.869 186.063 202.502 188.494C200.355 189.32 199.368 188.966 200.065 186.537C200.966 183.464 200.245 180.454 199.634 177.522C196.124 160.686 181.215 153.377 165.804 160.883C162.412 162.533 159.161 164.459 155.776 166.125C154.922 166.55 154.053 167.886 152.642 166.581C153.02 165.974 153.36 165.344 153.661 164.695C154.264 163.241 156.372 161.512 154.021 160.278C151.796 159.106 151.083 161.622 150.433 163.028C147.585 169.397 142.408 174.425 135.97 177.074C134.631 177.648 131.881 178.229 133.338 180.556C134.552 182.489 136.526 180.91 137.984 180.131C141.831 178.104 145.552 175.824 149.43 173.844C157.429 169.772 164.849 164.538 173.568 161.897C177.854 160.6 181.991 160.836 185.673 163.39C190.812 166.958 194.628 171.769 195.999 177.962C197.143 183.126 197.347 188.424 193.257 192.833C194.268 187.142 193.053 181.884 190.546 176.862C189.919 175.604 189.261 173.867 187.412 174.724C185.563 175.581 186.519 177.168 187.224 178.387C190.264 183.621 189.723 189.202 189.081 194.892C188.799 197.344 186.88 197.564 185.399 197.62C183.221 197.69 184.247 195.71 184.271 194.633C184.333 190.278 184.56 185.916 182.508 181.876C181.779 180.446 181.411 177.946 179.053 179C176.937 179.943 178.457 181.743 179.053 183.11C180.972 187.669 181.513 192.346 180.032 197.093C178.598 201.699 170.897 204.953 166.713 202.933C164.802 201.997 163.783 200.512 164.073 198.413C164.433 195.788 166.541 197.219 167.896 196.975C168.891 196.786 169.957 196.975 170.92 196.7C172.197 196.354 173.608 195.71 173.153 194.067C172.777 192.715 171.586 192.731 170.27 193.061C166.079 194.114 162.89 192.424 160.516 189.068C159.607 187.771 158.683 186.498 157.084 187.669C155.612 188.746 156.654 190.263 157.453 191.088C159.921 193.619 158.338 195.018 156.317 196.543C147.291 203.396 137.349 208.285 126.153 210.431C108.071 213.897 102.751 201.274 104.217 189.39C105.274 180.855 108.964 173.309 114.472 166.738C118.468 161.967 122.761 157.44 126.929 152.811C127.713 151.954 128.762 151.097 127.642 149.863C126.389 148.48 125.37 149.447 124.297 150.288C123.223 151.129 122.495 152.944 120.591 152.992C120.591 145.839 120.591 138.781 120.591 131.723C120.544 129.962 120.912 128.178 119.604 126.708ZM179.93 111.712C184.427 111.578 188.493 110.313 191.839 107.177C192.622 106.454 193.343 105.526 192.622 104.528C191.792 103.349 190.53 103.64 189.551 104.41C183.887 108.882 177.979 109.275 171.774 105.613C170.67 104.952 169.573 104.669 168.805 106.037C168.037 107.405 169.009 108.23 170.012 108.851C172.963 110.755 176.406 111.75 179.915 111.712H179.93ZM164.096 97.6898C162.671 97.7291 162.106 98.4758 162.365 99.6312C162.48 100.408 162.824 101.132 163.354 101.711C163.883 102.29 164.573 102.696 165.334 102.877C165.58 102.942 165.838 102.944 166.085 102.882C166.332 102.82 166.559 102.697 166.745 102.524C166.932 102.351 167.072 102.133 167.153 101.891C167.233 101.65 167.252 101.391 167.207 101.14C166.862 99.4347 165.898 98.0435 164.096 97.6898ZM186.073 97.8628C187.13 97.7842 187.874 97.3362 187.749 96.2908C187.53 94.4437 186.574 93.029 184.615 92.6753C184.4 92.6282 184.177 92.633 183.964 92.6892C183.75 92.7454 183.554 92.8515 183.389 92.9987C183.225 93.146 183.098 93.3302 183.018 93.5363C182.938 93.7424 182.908 93.9645 182.931 94.1844C183.142 96.0629 184.396 97.1868 186.112 97.8628H186.073Z" fill="#86CCD6"/>
<path d="M217.247 208.135C218.406 208.135 219.597 208.205 220.717 208.19C227.69 208.119 229.108 209.282 230.628 216.238C230.797 216.78 231.012 217.306 231.271 217.81C233.135 229.05 235.086 240.274 236.833 251.537C237.742 257.376 238.141 263.326 239.058 269.143C239.607 272.656 238.087 273.701 234.929 273.953C223.655 274.833 212.381 275.761 201.123 276.837C187.428 278.15 173.749 279.628 160.062 281.042C150.261 281.663 140.475 282.394 130.651 282.874C124.289 283.18 124.117 282.764 124.916 276.381C125.872 268.679 127.204 261.016 127.415 253.234C129.076 243.331 131.215 233.475 132.202 223.501C132.837 217.26 135.54 214.509 141.455 214.053L157.194 212.395L160.657 212.245L188.423 210.092C192.748 209.754 197.127 210.288 201.389 209.172L204.978 208.976C209.067 209.007 213.196 209.117 217.247 208.135ZM143.398 245.555H143.923C143.923 239.77 143.923 233.986 143.923 228.201C143.923 226.739 144.526 224.577 142.011 224.648C139.88 224.711 140.358 226.684 140.319 228.02C140.099 237.279 139.574 246.546 139.888 255.781C140.115 262.446 139.676 268.357 133.424 272.287C132.155 273.073 130.651 274.644 132.398 276.216C133.965 277.655 134.952 275.816 135.931 274.888C141.329 269.771 141.314 269.771 146.688 275.085C147.667 276.059 148.702 277.686 150.292 276.374C151.883 275.061 150.652 273.623 149.509 272.805C143.445 268.412 142.755 262.265 143.351 255.514C143.64 252.22 143.398 248.88 143.398 245.555ZM152.18 220.262H152.486C152.486 222.715 152.447 225.167 152.486 227.619C152.783 243.098 153.624 258.555 155.008 273.992C155.142 275.415 154.703 277.749 157.147 277.443C159.388 277.175 158.714 275.085 158.636 273.513C158.119 265.433 157.422 257.361 157.03 249.281C156.536 239.024 156.246 228.759 155.909 218.502C155.862 217.174 155.909 215.554 154.241 215.429C152.172 215.279 152.235 217.064 152.172 218.518C152.157 219.099 152.18 219.681 152.18 220.262ZM189.246 257.801C190.679 257.534 191.345 256.583 192.098 255.71C197.843 249.014 203.607 242.32 209.388 235.628C210.36 234.497 212.217 233.231 210.368 231.698C208.519 230.166 207.54 232.225 206.576 233.333C201.523 239.11 196.477 244.895 191.565 250.79C189.951 252.723 188.838 252.936 187.311 250.79C185.54 248.322 183.573 245.995 181.709 243.598C180.878 242.521 179.891 241.311 178.528 242.356C177.165 243.402 177.909 244.714 178.787 245.807C181.615 249.281 184.451 252.763 187.326 256.197C187.914 256.792 188.557 257.328 189.246 257.801V257.801Z" fill="#FBC83B"/>
<path d="M111.039 164.694C101.293 166.306 91.9931 169.646 82.4427 172.035C73.8638 174.173 65.4024 176.751 56.8314 178.936C53.7489 179.712 50.9416 181.331 48.7226 183.613C44.6016 187.684 40.2925 191.575 36.054 195.528C34.8251 196.775 33.3304 197.727 31.6823 198.311C30.1154 198.814 28.5484 198.814 27.1617 197.635C25.775 196.456 26.4566 194.986 26.958 193.642C28.2664 190.168 29.6218 186.702 31.0477 182.976C22.8171 182.93 14.7241 180.854 7.4812 176.932C5.92232 176.167 4.4556 175.225 3.1095 174.126C0.994157 172.255 -1.01151 169.96 0.578915 166.974C2.25552 163.83 5.35018 163.515 8.55453 164.293C9.70477 164.666 10.83 165.113 11.9234 165.63C12.4483 163.507 10.8657 162.894 9.94909 162.03C7.81808 160.026 5.78892 157.958 4.8096 155.129C3.24267 150.633 5.12299 148.134 9.86292 148.055C12.7147 148.055 15.2531 149.038 17.7994 150.122C19.3663 150.782 20.7765 151.993 22.6647 151.694C22.6647 152.252 22.884 152.417 23.362 152.04L22.7587 151.6C21.4738 149.352 19.1547 147.89 18.1832 145.367C17.4546 143.465 17.2509 141.634 18.6768 140.093C19.2754 139.445 20.0606 139.001 20.9229 138.822C21.7852 138.643 22.6816 138.738 23.4873 139.095C27.146 140.447 30.8205 141.751 34.4557 143.237C40.2263 145.692 46.6501 146.137 52.7025 144.502C74.1223 139.001 95.5813 133.624 117.025 128.201C116.97 133.514 117.463 138.906 116.735 144.125C115.716 151.238 118.599 159.444 111.039 164.694Z" fill="#86CCD6"/>
<path d="M111.04 164.694C118.6 159.444 115.741 151.207 116.697 144.188C117.425 138.969 116.932 133.577 116.987 128.264C117.23 127.781 117.606 127.377 118.069 127.099C118.532 126.821 119.064 126.68 119.603 126.692C120.912 128.162 120.543 129.946 120.543 131.66C120.543 138.733 120.543 145.807 120.543 152.928C122.447 152.881 123.058 151.144 124.249 150.224C125.44 149.305 126.341 148.417 127.595 149.8C128.715 151.034 127.649 151.891 126.882 152.747C122.714 157.377 118.42 161.904 114.425 166.675C108.94 173.246 105.227 180.823 104.169 189.327C102.704 201.211 108.024 213.834 126.106 210.368C137.302 208.222 147.259 203.333 156.269 196.479C158.291 194.947 159.873 193.556 157.405 191.025C156.622 190.199 155.564 188.667 157.037 187.606C158.604 186.435 159.56 187.708 160.469 189.005C162.819 192.361 166.031 194.051 170.223 192.998C171.523 192.667 172.73 192.652 173.106 194.004C173.56 195.646 172.15 196.291 170.873 196.637C169.909 196.896 168.844 196.723 167.849 196.912C166.493 197.155 164.386 195.725 164.026 198.35C163.736 200.449 164.754 201.934 166.666 202.869C170.849 204.921 178.551 201.635 179.985 197.03C181.465 192.314 180.925 187.598 179.005 183.047C178.433 181.679 176.913 179.903 179.005 178.936C181.356 177.883 181.732 180.383 182.46 181.813C184.513 185.853 184.286 190.215 184.223 194.57C184.223 195.646 183.173 197.627 185.351 197.556C186.832 197.501 188.752 197.281 189.034 194.829C189.676 189.17 190.217 183.589 187.177 178.323C186.472 177.105 185.383 175.572 187.365 174.661C189.347 173.749 189.888 175.541 190.499 176.798C193.006 181.821 194.22 187.079 193.209 192.77C197.299 188.36 197.127 183.063 195.952 177.899C194.58 171.721 190.757 166.895 185.586 163.35C181.904 160.796 177.752 160.56 173.482 161.857C164.762 164.498 157.343 169.717 149.343 173.804C145.426 175.777 141.744 178.056 137.897 180.092C136.44 180.878 134.466 182.45 133.251 180.516C131.794 178.158 134.544 177.608 135.884 177.034C142.391 174.439 147.645 169.42 150.55 163.028C151.2 161.621 151.913 159.098 154.138 160.277C156.489 161.511 154.381 163.24 153.778 164.694C153.477 165.343 153.137 165.973 152.759 166.581C154.138 167.885 155.008 166.581 155.893 166.125C159.278 164.459 162.529 162.533 165.921 160.882C181.332 153.376 196.241 160.686 199.751 177.522C200.362 180.453 201.083 183.464 200.182 186.537C199.469 188.965 200.472 189.319 202.619 188.494C208.98 186.047 215.36 183.655 221.759 181.318C223.13 180.815 224.893 179.251 225.888 181.42C226.883 183.589 224.697 184.085 223.318 184.627C216.972 187.111 210.626 189.626 204.186 191.842C201.263 192.848 199.83 193.996 201.749 197.006C201.828 197.438 201.608 198.138 202.533 197.847L202.446 197.776C202.446 201.706 204.421 205.188 205.008 208.984L201.42 209.181C199.994 204.551 199.07 199.749 196.954 195.159L190.224 200.252C186.785 201.297 182.97 201.722 179.992 203.522C173.96 207.169 168.241 209.275 161.973 204.119C161.503 207.161 161.111 209.708 160.719 212.254L157.256 212.403C157.296 208.379 158.729 204.449 158.04 200.378L158.463 200.016C158.369 200.016 158.236 200.016 158.197 200.016C158.123 200.119 158.068 200.233 158.032 200.354C152.736 203.215 147.847 206.799 142.269 209.165C134.975 212.003 127.681 214.706 119.619 214.455C109.967 214.156 103.621 209.149 101.27 199.733C98.7241 189.516 101.466 180.328 106.645 171.603C107.985 169.253 109.552 166.997 111.04 164.694Z" fill="#0D455C"/>
<path d="M127.415 253.266C127.203 261.047 125.848 268.71 124.916 276.413C124.132 282.795 124.289 283.212 130.651 282.905C140.46 282.426 150.237 281.695 160.062 281.074C161.496 284.108 164.669 285.365 166.87 287.621C168.594 289.389 170.004 291.229 169.22 293.728C168.351 296.44 165.82 295.968 163.697 295.968C148.164 295.968 132.628 295.968 117.089 295.968C110.547 295.968 108.165 292.423 111.268 286.827C117.316 275.941 121.931 264.419 127.415 253.266Z" fill="#86CCD6"/>
<path d="M142.237 209.172C147.815 206.814 152.704 203.222 158 200.361C158.658 204.433 157.216 208.363 157.216 212.387L141.453 214.053C141.68 212.426 141.947 210.799 142.237 209.172Z" fill="#86CCD6"/>
<path d="M179.915 111.711C176.408 111.748 172.968 110.754 170.02 108.85C169.017 108.229 168.037 107.42 168.813 106.037C169.589 104.653 170.678 104.952 171.782 105.612C177.987 109.275 183.895 108.882 189.559 104.41C190.538 103.624 191.8 103.348 192.63 104.527C193.327 105.526 192.63 106.453 191.847 107.176C188.462 110.312 184.412 111.578 179.915 111.711Z" fill="#0D455C"/>
<path d="M204.914 208.976C204.326 205.179 202.321 201.705 202.352 197.768C207.611 200.773 212.592 204.242 217.238 208.135C213.195 209.117 209.066 209.007 204.914 208.976Z" fill="#FEFEFE"/>
<path d="M164.095 97.6895C165.897 98.0431 166.86 99.4343 167.229 101.14C167.274 101.391 167.255 101.649 167.175 101.891C167.094 102.133 166.954 102.35 166.767 102.524C166.581 102.697 166.353 102.82 166.107 102.882C165.86 102.943 165.602 102.942 165.356 102.877C164.595 102.695 163.905 102.289 163.375 101.711C162.846 101.132 162.502 100.408 162.387 99.6308C162.105 98.4754 162.669 97.7288 164.095 97.6895Z" fill="#0D455C"/>
<path d="M186.112 97.8621C184.435 97.1862 183.182 96.0622 182.978 94.1916C182.956 93.9717 182.985 93.7496 183.065 93.5435C183.145 93.3374 183.272 93.1532 183.436 93.0059C183.601 92.8587 183.798 92.7526 184.011 92.6964C184.224 92.6402 184.447 92.6354 184.662 92.6825C186.598 93.0362 187.553 94.451 187.796 96.298C187.875 97.3355 187.13 97.7914 186.112 97.8621Z" fill="#0D455C"/>
<path d="M202.469 197.839C201.576 198.13 201.795 197.43 201.686 196.998L202.469 197.839Z" fill="#FEFEFE"/>
<path d="M143.396 245.555C143.396 248.88 143.639 252.22 143.341 255.514C142.746 262.273 143.435 268.419 149.499 272.805C150.628 273.591 151.928 275.014 150.283 276.374C148.638 277.733 147.658 276.059 146.679 275.085C141.304 269.771 141.32 269.771 135.922 274.888C134.943 275.816 133.987 277.655 132.389 276.216C130.641 274.644 132.146 273.135 133.415 272.287C139.683 268.294 140.106 262.407 139.878 255.781C139.565 246.546 140.09 237.279 140.309 228.02C140.348 226.684 139.871 224.711 142.002 224.648C144.517 224.577 143.905 226.739 143.913 228.201C143.968 233.986 143.913 239.77 143.913 245.555H143.396Z" fill="#1D4C55"/>
<path d="M152.18 220.262C152.18 219.681 152.18 219.099 152.18 218.525C152.242 217.071 152.18 215.287 154.248 215.437C155.917 215.562 155.87 217.181 155.917 218.51C156.277 228.767 156.544 239.032 157.037 249.289C157.429 257.369 158.126 265.441 158.643 273.521C158.737 275.022 159.427 277.152 157.155 277.45C154.71 277.757 155.149 275.423 155.016 274C153.621 258.579 152.78 243.121 152.493 227.627C152.446 225.175 152.493 222.723 152.493 220.27L152.18 220.262Z" fill="#1D4C55"/>
<path d="M160.625 212.246C161.017 209.699 161.408 207.153 161.879 204.111C168.146 209.267 173.897 207.161 179.898 203.514C182.875 201.714 186.691 201.289 190.13 200.244C190.389 203.679 188.367 206.705 188.36 210.092L160.625 212.246Z" fill="#86CCD6"/>
<path d="M189.245 257.801C188.558 257.339 187.915 256.813 187.326 256.23C184.451 252.795 181.615 249.313 178.786 245.839C177.909 244.754 177.219 243.379 178.528 242.388C179.836 241.398 180.878 242.553 181.709 243.63C183.573 246.027 185.54 248.346 187.31 250.822C188.877 252.952 189.951 252.74 191.564 250.822C196.477 244.927 201.522 239.142 206.576 233.365C207.539 232.257 208.558 230.221 210.368 231.73C212.177 233.24 210.368 234.529 209.388 235.66C203.643 242.362 197.879 249.056 192.097 255.742C191.329 256.56 190.663 257.534 189.245 257.801Z" fill="#1D4C55"/>
<path d="M188.391 210.092C188.391 206.704 190.42 203.678 190.161 200.244L196.891 195.15C199.046 199.725 199.931 204.543 201.357 209.172C197.079 210.288 192.715 209.754 188.391 210.092Z" fill="#FEFEFE"/>
<path d="M22.7522 151.662L23.3555 152.102C22.8776 152.48 22.6739 152.314 22.6582 151.756L22.7522 151.662Z" fill="#FEFEFE"/>
<path d="M157.969 200.361C158.004 200.24 158.06 200.126 158.133 200.023C158.172 199.976 158.306 200.023 158.4 200.023L157.977 200.384L157.969 200.361Z" fill="#7ABA95"/>
</g>
<defs>
<clipPath id="clip0_1568_101">
<rect width="324" height="296" fill="white"/>
</clipPath>
</defs>
</svg>
