<svg width="1166" height="1008" viewBox="0 0 1166 1008" fill="none" xmlns="http://www.w3.org/2000/svg">
<path d="M0.241944 211.776C-0.55802 105.687 0.880497 -26 0.880497 -26H1321.38V951.5H1163.37C1163.37 951.5 240.281 453.632 38.5403 299.817C11.1484 278.933 0.501672 246.22 0.241944 211.776Z" fill="url(#paint0_linear_1752_120)"/>
<g opacity="0.3" filter="url(#filter0_f_1752_120)">
<path d="M222.811 418.485L1057.81 -541.514L1756.81 -19.5137L1000.31 861.985L222.811 418.485Z" fill="url(#paint1_linear_1752_120)"/>
</g>
<path d="M966.495 496.588L966.341 543.79L479.428 826.729L479.582 779.527L966.495 496.588Z" fill="#CDC6C9"/>
<path d="M479.585 779.532L479.431 826.734L121 619.788L121.116 572.625L479.585 779.532Z" fill="#A19A9C"/>
<path d="M966.495 496.592L479.583 779.531L121.113 572.624L608.026 289.646L966.495 496.592Z" fill="#DDD6DA"/>
<path d="M752.225 558.457L752.187 574.165L705.217 601.452L705.294 585.744L752.225 558.457Z" fill="#1B7593"/>
<path d="M705.292 585.749L705.215 601.457L657.666 574.016L657.705 558.27L705.292 585.749Z" fill="#135266"/>
<path d="M752.224 558.46L705.293 585.747L657.705 558.267L704.675 530.98L752.224 558.46Z" fill="#1E83A5"/>
<path d="M686.886 598.213L686.848 613.96L638.18 642.25L638.218 626.503L686.886 598.213Z" fill="#1B7593"/>
<path d="M638.215 626.505L638.177 642.252L587.811 613.151L587.849 597.443L638.215 626.505Z" fill="#135266"/>
<path d="M686.884 598.216L638.216 626.506L587.85 597.444L636.518 569.154L686.884 598.216Z" fill="#1E83A5"/>
<path d="M614.054 642.014L614.015 657.722L563.688 686.977L563.765 671.23L614.054 642.014Z" fill="#1B7593"/>
<path d="M563.762 671.232L563.685 686.979L511.697 656.952L511.736 641.205L563.762 671.232Z" fill="#135266"/>
<path d="M614.051 642.017L563.762 671.233L511.736 641.207L562.025 611.99L614.051 642.017Z" fill="#1E83A5"/>
<path d="M540.329 683.898L540.291 699.645L488.033 729.981L488.072 714.273L540.329 683.898Z" fill="#1B7593"/>
<path d="M488.076 714.273L488.037 729.981L435.471 699.645L435.509 683.898L488.076 714.273Z" fill="#135266"/>
<path d="M540.333 683.9L488.076 714.274L435.51 683.9L487.729 653.564L540.333 683.9Z" fill="#1E83A5"/>
<path d="M671.169 512.15L671.13 527.897L624.199 555.184L624.238 539.437L671.169 512.15Z" fill="#2B3133"/>
<path d="M624.239 539.443L624.201 555.189L576.613 527.71L576.69 512.002L624.239 539.443Z" fill="#1E2223"/>
<path d="M671.17 512.154L624.238 539.44L576.689 511.999L623.621 484.713L671.17 512.154Z" fill="#303739"/>
<path d="M605.868 551.896L605.83 567.643L557.123 595.933L557.162 580.187L605.868 551.896Z" fill="#2B3133"/>
<path d="M557.158 580.191L557.12 595.937L506.715 566.837L506.792 551.09L557.158 580.191Z" fill="#1E2223"/>
<path d="M605.864 551.901L557.157 580.191L506.791 551.091L555.459 522.801L605.864 551.901Z" fill="#303739"/>
<path d="M533.002 595.701L532.963 611.448L482.674 640.664L482.712 624.956L533.002 595.701Z" fill="#2B3133"/>
<path d="M482.711 624.958L482.672 640.666L430.646 610.639L430.685 594.893L482.711 624.958Z" fill="#1E2223"/>
<path d="M533.001 595.704L482.711 624.959L430.686 594.894L481.013 565.678L533.001 595.704Z" fill="#303739"/>
<path d="M459.242 637.537L459.203 653.284L406.984 683.658L407.023 667.911L459.242 637.537Z" fill="#AB4C4C"/>
<path d="M407.027 667.912L406.988 683.658L354.422 653.284L354.461 637.576L407.027 667.912Z" fill="#773535"/>
<path d="M459.246 637.539L407.027 667.913L354.461 637.577L406.68 607.203L459.246 637.539Z" fill="#BE5454"/>
<path d="M594.022 465.83L593.984 481.538L547.014 508.825L547.052 493.078L594.022 465.83Z" fill="#2B3133"/>
<path d="M547.05 493.083L547.012 508.83L499.463 481.389L499.501 465.643L547.05 493.083Z" fill="#1E2223"/>
<path d="M594.021 465.833L547.051 493.081L499.502 465.64L546.472 438.354L594.021 465.833Z" fill="#303739"/>
<path d="M528.683 505.619L528.644 521.327L479.938 549.617L479.976 533.909L528.683 505.619Z" fill="#2B3133"/>
<path d="M479.973 533.913L479.935 549.621L429.568 520.521L429.607 504.812L479.973 533.913Z" fill="#1E2223"/>
<path d="M528.681 505.624L479.974 533.914L429.607 504.813L478.275 476.523L528.681 505.624Z" fill="#303739"/>
<path d="M455.856 549.387L455.818 565.095L405.451 594.35L405.528 578.642L455.856 549.387Z" fill="#2B3133"/>
<path d="M405.525 578.647L405.448 594.355L353.461 564.329L353.5 548.582L405.525 578.647Z" fill="#1E2223"/>
<path d="M455.854 549.39L405.526 578.645L353.5 548.58L403.828 519.363L455.854 549.39Z" fill="#303739"/>
<path d="M382.062 591.262L382.024 606.97L329.805 637.344L329.843 621.597L382.062 591.262Z" fill="#2B3133"/>
<path d="M329.841 621.597L329.802 637.344L277.197 606.97L277.236 591.262L329.841 621.597Z" fill="#1E2223"/>
<path d="M382.06 591.265L329.841 621.6L277.236 591.265L329.494 560.891L382.06 591.265Z" fill="#303739"/>
<path d="M520.692 423.375L520.653 439.083L473.684 466.37L473.722 450.662L520.692 423.375Z" fill="#2B3133"/>
<path d="M473.72 450.667L473.682 466.375L426.133 438.934L426.171 423.188L473.72 450.667Z" fill="#1E2223"/>
<path d="M520.691 423.378L473.721 450.665L426.172 423.185L473.142 395.898L520.691 423.378Z" fill="#303739"/>
<path d="M455.353 463.131L455.315 478.878L406.646 507.168L406.685 491.421L455.353 463.131Z" fill="#2B3133"/>
<path d="M406.682 491.423L406.643 507.17L356.238 478.069L356.277 462.322L406.682 491.423Z" fill="#1E2223"/>
<path d="M455.35 463.134L406.682 491.424L356.277 462.324L404.945 434.072L455.35 463.134Z" fill="#303739"/>
<path d="M382.521 506.932L382.482 522.64L332.154 551.895L332.193 536.187L382.521 506.932Z" fill="#2B3133"/>
<path d="M332.192 536.189L332.153 551.897L280.127 521.87L280.166 506.162L332.192 536.189Z" fill="#1E2223"/>
<path d="M382.52 506.935L332.192 536.19L280.166 506.163L330.494 476.908L382.52 506.935Z" fill="#303739"/>
<path d="M308.734 548.814L308.696 564.561L256.477 594.897L256.515 579.189L308.734 548.814Z" fill="#2B3133"/>
<path d="M256.512 579.189L256.474 594.897L203.869 564.561L203.908 548.814L256.512 579.189Z" fill="#1E2223"/>
<path d="M308.732 548.816L256.513 579.19L203.908 548.816L256.166 518.48L308.732 548.816Z" fill="#303739"/>
<path d="M512.85 389.88L512.888 380.462L603.895 327.549L603.856 337.005L512.85 389.88Z" fill="#79A6C5"/>
<path d="M603.855 337.005L603.894 327.549L870.237 481.35L870.199 490.767L603.855 337.005Z" fill="#729DBA"/>
<path d="M870.2 490.762L779.231 543.675L512.85 389.875L603.856 337L870.2 490.762Z" fill="#85B8D9"/>
<g filter="url(#filter1_d_1752_120)">
<path d="M870.2 429.762L779.231 482.675L512.85 328.875L603.856 276L870.2 429.762Z" fill="#85B8D9"/>
</g>
<path d="M495.406 420.329L492.82 421.834L453.84 429.823L449.787 427.469L487.957 419.904L488.073 419.827L473.832 411.607L477.035 409.754L495.406 420.329Z" fill="#DCDCDC"/>
<path d="M408.688 467.88L412.74 470.196L409.691 471.971L405.6 469.655L397.881 474.209L394.022 472.087L401.741 467.494L388.232 459.775L390.818 458.27L422.234 455.066L426.48 457.498L408.688 467.88ZM414.593 460.161C416.136 459.273 417.68 458.424 419.263 457.614C416.677 458.115 414.708 458.424 412.586 458.694L395.643 460.315L405.137 465.796L414.786 460.199" fill="#DCDCDC"/>
<path d="M349.016 498.87L320.147 515.659L316.326 513.459L341.567 498.793L341.49 498.754L333.732 497.403L335.932 495.242L345.658 496.94L349.016 498.87Z" fill="#DCDCDC"/>
<path d="M270.48 538.392C276.616 541.904 274.687 547.115 265.501 552.441C255.66 558.153 246.59 559.195 240.144 555.451C234.471 552.17 235.86 546.883 245.355 541.287C254.849 535.69 264.613 534.996 270.48 538.392ZM243.463 553.83C247.516 556.146 254.116 554.563 261.487 550.279C268.859 545.995 271.406 542.367 267.354 540.013C263.88 538.006 257.242 539.01 249.368 543.602C241.495 548.195 239.913 551.784 243.463 553.83Z" fill="#DCDCDC"/>
<g opacity="0.45">
<path opacity="0.3" d="M932.594 706.946L894.095 729.334L889 726.401L922.661 706.842L922.558 706.791L912.213 704.99L915.146 702.107L928.116 704.372L932.594 706.946Z" fill="#DCDCDC"/>
<path opacity="0.3" d="M953.93 719.525C962.114 724.208 959.541 731.157 947.291 738.259C934.166 745.877 922.071 747.266 913.476 742.274C905.91 737.899 907.763 730.848 920.424 723.385C933.086 715.922 946.107 714.995 953.93 719.525ZM917.902 740.112C923.306 743.2 932.108 741.09 941.938 735.377C951.769 729.664 955.166 724.826 949.761 721.686C945.129 719.01 936.277 720.348 925.777 726.473C915.277 732.598 913.167 737.384 917.902 740.112Z" fill="#DCDCDC"/>
<path opacity="0.3" d="M987.27 739.528C995.454 744.212 992.88 751.161 980.631 758.263C967.506 765.881 955.411 767.27 946.816 762.278C939.25 757.903 941.103 750.852 953.764 743.389C966.425 735.926 979.447 734.999 987.27 739.528ZM951.242 760.116C956.646 763.204 965.447 761.094 975.278 755.381C985.109 749.668 988.506 744.83 983.101 741.69C978.469 739.014 969.616 740.352 959.117 746.477C948.617 752.601 946.507 757.388 951.242 760.116Z" fill="#DCDCDC"/>
</g>
<path d="M333.892 589.532C335.474 590.458 335.358 591.732 333.699 592.697C332.861 593.163 331.918 593.408 330.959 593.408C330 593.408 329.056 593.163 328.218 592.697C326.675 591.809 326.79 590.458 328.218 589.571C329.079 589.071 330.055 588.804 331.05 588.797C332.045 588.79 333.025 589.044 333.892 589.532Z" fill="#DCDCDC"/>
<path d="M391.203 632.028L393.866 630.484L416.946 643.8L414.283 645.344L391.203 632.028Z" fill="#DCDCDC"/>
<path opacity="0.3" d="M1024 430V437.188L1080 470V462.366L1024 430Z" fill="#DCDCDC"/>
<path opacity="0.3" d="M1024 419V426.188L1080 459V451.366L1024 419Z" fill="#DCDCDC"/>
<path d="M402.585 625.387L425.665 638.741L423.002 640.285L399.922 626.969L402.585 625.387Z" fill="#DCDCDC"/>
<path d="M419.958 537.856C426.211 541.445 424.59 545.575 420.422 547.852C415.095 550.978 406.913 551.209 394.872 551.094H390.433L403.479 558.813L400.236 560.704L381.711 549.974L384.104 548.585H390.125C404.598 548.585 411.661 548.585 416.099 546.038C419.032 544.339 420.267 541.947 416.099 539.438C413.42 538.067 410.463 537.328 407.454 537.277L408.998 534.961C412.824 535.081 416.572 536.071 419.958 537.856Z" fill="#DCDCDC"/>
<path d="M496.877 584.363C502.628 587.682 501.818 591.117 498.305 593.162C494.508 595.03 490.129 595.335 486.109 594.011C486.829 594.478 487.403 595.139 487.764 595.917C488.125 596.695 488.258 597.56 488.149 598.411C488.041 599.262 487.694 600.065 487.148 600.727C486.603 601.39 485.882 601.885 485.067 602.155C482.021 603.617 478.654 604.285 475.28 604.096C471.906 603.907 468.634 602.867 465.77 601.074C463.382 599.854 461.427 597.926 460.174 595.555L464.303 594.397C465.284 596.442 466.893 598.119 468.896 599.183C470.702 600.337 472.781 600.994 474.922 601.089C477.063 601.184 479.191 600.713 481.092 599.723C484.952 597.369 483.138 594.243 479.317 592.004L477.156 590.731L480.089 589.033L482.289 590.306C483.981 591.345 485.895 591.967 487.875 592.121C489.854 592.275 491.842 591.958 493.674 591.194C495.99 589.882 496.569 587.798 492.902 585.713C490.502 584.465 487.879 583.704 485.183 583.475L486.997 581.236C490.466 581.61 493.825 582.673 496.877 584.363Z" fill="#DCDCDC"/>
<path d="M501.586 677.491L489.931 684.245L501.779 691.077L498.807 692.813L486.959 685.982L475.265 692.775L471.907 690.845L483.64 684.052L471.791 677.221L474.763 675.484L486.573 682.316L498.229 675.523L501.586 677.491Z" fill="#DCDCDC"/>
<path d="M578.616 648.889L574.872 651.05L547.238 635.111L550.982 632.949L578.616 648.889Z" fill="#DCDCDC"/>
<path d="M501.507 501.147L498.226 503.077L487.149 496.67L478.581 500.53C479.353 500.877 480.048 501.186 481.167 501.803C483.143 502.804 484.77 504.378 485.837 506.319C486.84 508.364 486.223 510.912 482.595 513.034C479.363 514.658 475.78 515.458 472.164 515.364C468.549 515.27 465.012 514.284 461.87 512.494C459.553 511.373 457.648 509.55 456.428 507.284L460.287 506.126C461.365 508.055 462.972 509.635 464.919 510.68C466.92 511.803 469.166 512.418 471.461 512.472C473.755 512.525 476.027 512.016 478.079 510.989C481.746 508.789 481.939 505.817 476.111 502.459C474.71 501.662 473.267 500.94 471.788 500.298L487.497 493.312L501.507 501.147Z" fill="#DCDCDC"/>
<path d="M562.177 548.852C567.348 551.824 567.271 556.031 561.598 559.35C558.571 561.007 555.186 561.901 551.736 561.955C548.286 562.009 544.875 561.22 541.798 559.659C535.546 556.07 536.279 550.936 543.805 546.575C549.273 543.458 555.459 541.822 561.752 541.828C566.419 541.844 571.032 542.83 575.299 544.723C576.37 545.175 577.414 545.691 578.425 546.266L575.222 548.119L574.604 547.733C573.909 547.347 573.06 546.923 572.095 546.498C565.552 543.827 558.222 543.827 551.679 546.498C555.336 546.191 559 547.013 562.177 548.852ZM544.809 557.922C546.803 558.856 549 559.275 551.198 559.14C553.396 559.006 555.526 558.321 557.391 557.15C561.52 554.757 561.675 551.94 558.047 549.856C555.203 548.448 551.971 548.027 548.861 548.66C548.088 548.763 547.342 549.011 546.661 549.393C541.991 552.21 540.679 555.529 544.809 557.922Z" fill="#DCDCDC"/>
<path d="M662.641 596.513L641.838 598.019L638.905 610.562L634.274 607.976L635.702 602.65C636.038 601.045 636.463 599.46 636.975 597.903C634.737 598.212 632.614 598.443 628.948 598.791L620.032 599.717L615.594 597.169L636.937 595.433L639.908 583.43L644.424 586.054L642.765 591.612C642.423 592.92 642.011 594.208 641.53 595.471C643.807 595.163 645.659 594.97 648.284 594.7L658.048 593.812L662.641 596.513Z" fill="#DCDCDC"/>
<path d="M553.49 467.498C554.045 468.048 554.454 468.729 554.68 469.477C554.906 470.226 554.942 471.019 554.785 471.785C554.628 472.551 554.283 473.265 553.78 473.865C553.278 474.464 552.634 474.928 551.907 475.216C549.021 476.581 545.844 477.217 542.655 477.069C539.465 476.921 536.361 475.994 533.613 474.368C527.554 470.855 527.477 466.648 531.684 464.178C535.876 462.092 540.705 461.678 545.192 463.021C544.811 462.499 544.556 461.896 544.445 461.26C544.335 460.623 544.373 459.97 544.556 459.35C544.739 458.731 545.062 458.162 545.5 457.687C545.938 457.212 546.48 456.845 547.083 456.614C549.706 455.347 552.602 454.75 555.512 454.878C558.422 455.006 561.255 455.855 563.756 457.347C569.391 460.589 568.735 464.256 565.145 466.34C561.563 468.149 557.436 468.562 553.567 467.498H553.49ZM536.547 472.824C538.207 473.79 540.082 474.327 542.002 474.388C543.923 474.448 545.828 474.03 547.546 473.171C551.058 471.125 550.248 468.733 547.546 465.799C545.742 465.106 543.814 464.789 541.883 464.869C539.951 464.949 538.056 465.423 536.315 466.262C533.266 467.883 532.919 470.662 536.624 472.824H536.547ZM551.213 458.505C548.318 460.203 548.974 462.364 551.444 464.834C554.603 465.929 558.064 465.749 561.093 464.333C563.409 462.982 564.451 460.782 561.093 458.736C559.624 457.897 557.97 457.436 556.279 457.395C554.587 457.355 552.913 457.736 551.406 458.505" fill="#DCDCDC"/>
<path d="M637.243 503.581C643.148 507.016 642.029 511.917 634.657 516.24C629.017 519.509 622.612 521.226 616.093 521.219C611.837 521.192 607.632 520.285 603.743 518.556C602.508 518.015 601.427 517.475 600.578 517.012L599.922 516.587L603.087 514.735L603.781 515.198C604.476 515.584 605.364 516.008 606.444 516.51C609.251 517.715 612.267 518.357 615.321 518.401C619.3 518.488 623.25 517.711 626.9 516.124C623.442 516.372 619.986 515.622 616.942 513.963C611.732 510.952 612.272 506.707 617.212 503.851C620.288 502.214 623.711 501.336 627.195 501.289C630.679 501.242 634.124 502.028 637.243 503.581ZM629.524 514.272C630.15 514.182 630.753 513.973 631.3 513.654C636.24 510.759 638.208 507.517 634.078 505.163C632.053 504.223 629.828 503.799 627.599 503.926C625.37 504.054 623.208 504.731 621.303 505.897C617.714 508.019 617.444 510.721 620.763 512.689C623.43 514.166 626.509 514.722 629.524 514.272Z" fill="#DCDCDC"/>
<path d="M813.737 415.181C825.315 421.781 821.456 431.43 804.397 441.464C786.026 452.116 769.005 454.046 756.964 447.099C746.35 440.963 749.245 431.082 766.728 420.584C784.212 410.086 802.699 408.813 813.737 415.181ZM763.062 444.089C770.588 448.411 782.9 445.44 796.678 437.45C810.456 429.461 815.281 422.669 807.677 418.153C801.232 414.293 788.727 416.262 774.023 424.791C759.974 432.973 756.385 440.229 763.062 444.089Z" fill="black"/>
<path d="M725.435 553.795L680.704 565.258L677.693 563.559L722.386 552.02L725.435 553.795Z" fill="#DCDCDC"/>
<path opacity="0.3" d="M844.596 250L859.526 277M874.456 304L859.526 277M859.526 277L842 291.143M859.526 277L879 262.214" stroke="#DCDCDC" stroke-width="10"/>
<path d="M83.5 480L118.5 460.5M153.5 441L118.5 460.5M118.5 460.5V498.5M118.5 460.5V418.5" stroke="#DCDCDC" stroke-width="10"/>
<path opacity="0.3" d="M342 199L386 99" stroke="#DCDCDC" stroke-width="10"/>
<path opacity="0.3" d="M347.545 152.696C344.825 158.29 340.948 162.414 337.117 164.668C333.248 166.945 329.994 167.056 327.751 165.965C325.507 164.874 323.585 162.247 322.986 157.798C322.393 153.393 323.241 147.796 325.961 142.202C328.68 136.609 332.558 132.485 336.389 130.231C340.258 127.954 343.512 127.843 345.755 128.934C347.998 130.025 349.921 132.652 350.52 137.101C351.113 141.506 350.265 147.103 347.545 152.696Z" stroke="#DCDCDC" stroke-width="10"/>
<path opacity="0.3" d="M402.619 153.264C399.733 158.868 395.723 162.965 391.811 165.171C387.855 167.402 384.598 167.44 382.402 166.309C380.207 165.179 378.346 162.505 377.866 157.989C377.39 153.523 378.397 147.879 381.283 142.275C384.169 136.67 388.179 132.574 392.092 130.367C396.047 128.136 399.304 128.098 401.5 129.229C403.696 130.36 405.556 133.033 406.037 137.549C406.512 142.016 405.506 147.659 402.619 153.264Z" stroke="#DCDCDC" stroke-width="10"/>
<defs>
<filter id="filter0_f_1752_120" x="172.811" y="-591.514" width="1634" height="1503.5" filterUnits="userSpaceOnUse" color-interpolation-filters="sRGB">
<feFlood flood-opacity="0" result="BackgroundImageFix"/>
<feBlend mode="normal" in="SourceGraphic" in2="BackgroundImageFix" result="shape"/>
<feGaussianBlur stdDeviation="25" result="effect1_foregroundBlur_1752_120"/>
</filter>
<filter id="filter1_d_1752_120" x="472.85" y="276" width="557.35" height="414.676" filterUnits="userSpaceOnUse" color-interpolation-filters="sRGB">
<feFlood flood-opacity="0" result="BackgroundImageFix"/>
<feColorMatrix in="SourceAlpha" type="matrix" values="0 0 0 0 0 0 0 0 0 0 0 0 0 0 0 0 0 0 127 0" result="hardAlpha"/>
<feOffset dx="60" dy="108"/>
<feGaussianBlur stdDeviation="50"/>
<feComposite in2="hardAlpha" operator="out"/>
<feColorMatrix type="matrix" values="0 0 0 0 0 0 0 0 0 0 0 0 0 0 0 0 0 0 0.2 0"/>
<feBlend mode="normal" in2="BackgroundImageFix" result="effect1_dropShadow_1752_120"/>
<feBlend mode="normal" in="SourceGraphic" in2="effect1_dropShadow_1752_120" result="shape"/>
</filter>
<linearGradient id="paint0_linear_1752_120" x1="32" y1="60" x2="1321" y2="952" gradientUnits="userSpaceOnUse">
<stop offset="0.0277732" stop-color="#1776B4" stop-opacity="0.83"/>
<stop offset="0.118409" stop-color="#1776B4" stop-opacity="0.94"/>
<stop offset="0.249169" stop-color="#1776B4"/>
<stop offset="0.777111" stop-color="#1476B5"/>
<stop offset="0.880482" stop-color="#126FAB"/>
<stop offset="0.966801" stop-color="#0B6CAA"/>
</linearGradient>
<linearGradient id="paint1_linear_1752_120" x1="655.811" y1="658.486" x2="1417.5" y2="-43.5" gradientUnits="userSpaceOnUse">
<stop stop-color="#1375B5"/>
<stop offset="1" stop-color="#1E76B0"/>
</linearGradient>
</defs>
</svg>
