<svg width="1165" height="795" viewBox="0 0 1165 795" fill="none" xmlns="http://www.w3.org/2000/svg">
<path d="M105.027 730.469C107.523 764.635 105.027 809.638 105.027 818.189H1034.51C1034.51 818.189 1326.24 -3.57612 1034.51 55.6136C984.474 65.7662 956.194 93.1479 912.571 102.79C848.792 116.889 806.637 130.428 739.052 121.588C676.321 113.381 586.901 65.9333 586.901 65.9333C586.901 65.9333 478.865 -12.7795 411.172 1.8017C354.161 14.082 316.918 32.7093 284.809 81.4133C263.161 114.249 257.976 138.391 254.968 177.611C250.959 229.868 262.86 253.069 254.968 300.345C248.775 337.442 247.691 361.108 226.969 392.489C179.158 464.894 68.1253 395.822 12.9255 451.829C-42.2742 507.836 96.6752 616.163 105.027 730.469Z" fill="white"/>
<path d="M139.79 454.417L171.768 434.461L171.527 434.624L139.578 454.612C139.662 454.565 139.734 454.498 139.79 454.417" fill="#0D5E92"/>
<path d="M158.277 436.827L190.226 416.871L171.727 434.454L139.779 454.41L158.277 436.827Z" fill="#0D5E92"/>
<path d="M61.5254 238.565L93.5043 218.577C94.7802 217.916 96.1989 217.639 97.6094 217.776C99.02 217.914 100.369 218.46 101.514 219.357L69.5659 239.313C68.4124 238.421 67.0567 237.881 65.6416 237.75C64.2264 237.618 62.804 237.9 61.5254 238.565" fill="#0D5E92"/>
<path d="M214.036 456.033L245.985 436.045V436.37L214.006 456.326C214.021 456.229 214.021 456.13 214.006 456.033" fill="#0D5E92"/>
<path d="M214.008 456.292L245.987 436.336C246.116 438.02 245.835 439.712 245.173 441.245C244.51 442.777 243.489 444.099 242.208 445.079L210.26 465.034C211.535 464.05 212.551 462.728 213.208 461.195C213.865 459.663 214.14 457.973 214.008 456.292" fill="#0D5E92"/>
<path d="M215.193 346.244L247.142 326.256L245.962 436.012L214.014 456L215.193 346.244Z" fill="#0D5E92"/>
<path d="M69.5625 239.313L101.51 219.357L235.47 303.08L203.522 323.036L69.5625 239.313Z" fill="#0D5E92"/>
<path d="M203.521 323.042L235.5 303.086C236.876 303.99 238.136 305.082 239.248 306.336L207.3 326.324C206.181 325.064 204.91 323.971 203.521 323.074" fill="#0D5E92"/>
<path d="M207.301 326.23L239.249 306.242C244.121 311.632 246.945 318.783 247.169 326.295L215.22 346.251C214.998 338.748 212.172 331.607 207.301 326.23" fill="#0D5E92"/>
<path d="M69.5647 239.316L203.524 323.039C207.029 325.65 209.913 329.111 211.945 333.142C213.977 337.173 215.1 341.661 215.222 346.245L214.042 456.001C214.042 464.613 208.663 468.319 202.194 464.256L158.276 436.825L139.779 454.408C139.476 454.661 139.104 454.799 138.72 454.799C138.337 454.799 137.965 454.661 137.663 454.408C136.766 453.806 136.052 452.937 135.607 451.906L115.659 410.207L68.8393 380.956C65.3368 378.367 62.4532 374.924 60.4254 370.908C58.3976 366.891 57.2829 362.416 57.1719 357.847L57.746 247.734C57.8064 239.024 63.0964 235.286 69.5647 239.316Z" fill="#1474B1"/>
<g opacity="0.51">
<path opacity="0.51" d="M1109.69 774.34L534.924 1108.35L108.064 861.889L682.785 527.877L1109.69 774.34Z" fill="#E9EEF7"/>
</g>
<path d="M1060.39 702.389L1060.22 753.014L537.988 1056.48L538.154 1005.85L1060.39 702.389Z" fill="#CDC6C9"/>
<path d="M538.155 1005.86L537.989 1056.48L153.559 834.526L153.683 783.941L538.155 1005.86Z" fill="#A19A9C"/>
<path d="M1060.38 702.393L538.152 1005.86L153.68 783.94L675.913 480.436L1060.38 702.393Z" fill="#DDD6DA"/>
<path d="M830.571 768.746L830.529 785.594L780.152 814.86L780.235 798.012L830.571 768.746Z" fill="#1B7593"/>
<path d="M780.233 798.018L780.15 814.865L729.152 785.434L729.194 768.545L780.233 798.018Z" fill="#135266"/>
<path d="M830.568 768.75L780.233 798.016L729.193 768.543L779.57 739.277L830.568 768.75Z" fill="#1E83A5"/>
<path d="M760.488 811.385L708.289 841.727L654.27 810.557L706.468 780.215L760.488 811.385Z" fill="#1E83A5"/>
<path d="M743.639 719.078L743.597 735.967L693.262 765.233L693.303 748.344L743.639 719.078Z" fill="#2B3133"/>
<path d="M693.303 748.347L693.262 765.236L642.223 735.763L642.305 718.916L693.303 748.347Z" fill="#1E2223"/>
<path d="M743.636 719.08L693.301 748.346L642.303 718.914L692.638 689.648L743.636 719.08Z" fill="#303739"/>
<path d="M673.596 761.713L673.554 778.602L621.314 808.944L621.356 792.055L673.596 761.713Z" fill="#2B3133"/>
<path d="M621.354 792.059L621.313 808.948L567.252 777.737L567.335 760.848L621.354 792.059Z" fill="#1E2223"/>
<path d="M673.592 761.715L621.352 792.057L567.332 760.846L619.53 730.504L673.592 761.715Z" fill="#303739"/>
<path d="M595.45 808.693L541.513 840.07L485.713 807.824L539.691 776.488L595.45 808.693Z" fill="#303739"/>
<path d="M660.893 669.395L660.852 686.242L610.475 715.508L610.516 698.619L660.893 669.395Z" fill="#2B3133"/>
<path d="M610.514 698.625L610.473 715.514L559.475 686.082L559.516 669.193L610.514 698.625Z" fill="#1E2223"/>
<path d="M660.891 669.399L610.514 698.623L559.516 669.192L609.893 639.926L660.891 669.399Z" fill="#303739"/>
<path d="M590.814 712.078L590.773 728.926L538.533 759.268L538.575 742.42L590.814 712.078Z" fill="#2B3133"/>
<path d="M538.571 742.424L538.53 759.272L484.51 728.06L484.551 711.213L538.571 742.424Z" fill="#1E2223"/>
<path d="M590.81 712.08L538.571 742.423L484.551 711.211L536.749 680.869L590.81 712.08Z" fill="#303739"/>
<path d="M512.7 759.016L512.659 775.863L458.639 807.24L458.722 790.393L512.7 759.016Z" fill="#2B3133"/>
<path d="M458.72 790.397L458.637 807.244L402.879 775.039L402.92 758.15L458.72 790.397Z" fill="#1E2223"/>
<path d="M512.698 759.019L458.72 790.396L402.92 758.15L456.898 726.814L512.698 759.019Z" fill="#303739"/>
<path d="M433.549 803.933L377.542 836.469L321.121 803.933L377.169 771.355L433.549 803.933Z" fill="#303739"/>
<path d="M582.247 623.861L582.205 640.709L531.828 669.975L531.869 653.127L582.247 623.861Z" fill="#2B3133"/>
<path d="M531.867 653.133L531.826 669.981L480.828 640.549L480.869 623.66L531.867 653.133Z" fill="#1E2223"/>
<path d="M582.244 623.865L531.867 653.131L480.869 623.659L531.246 594.393L582.244 623.865Z" fill="#303739"/>
<path d="M512.166 666.502L512.124 683.391L459.926 713.733L459.967 696.844L512.166 666.502Z" fill="#2B3133"/>
<path d="M459.966 696.848L459.924 713.737L405.863 682.526L405.905 665.637L459.966 696.848Z" fill="#1E2223"/>
<path d="M512.164 666.504L459.965 696.846L405.904 665.635L458.103 635.334L512.164 666.504Z" fill="#303739"/>
<path d="M434.053 713.482L434.012 730.33L380.033 761.707L380.075 744.86L434.053 713.482Z" fill="#2B3133"/>
<path d="M380.074 744.863L380.032 761.711L324.232 729.506L324.274 712.658L380.074 744.863Z" fill="#1E2223"/>
<path d="M434.052 713.486L380.073 744.863L324.273 712.658L378.252 681.281L434.052 713.486Z" fill="#303739"/>
<path d="M354.91 758.404L354.868 775.293L298.861 807.829L298.903 790.982L354.91 758.404Z" fill="#2B3133"/>
<path d="M298.9 790.982L298.858 807.829L242.438 775.293L242.479 758.404L298.9 790.982Z" fill="#1E2223"/>
<path d="M354.906 758.405L298.899 790.983L242.479 758.405L298.527 725.869L354.906 758.405Z" fill="#303739"/>
<path d="M573.836 587.94L573.877 577.84L671.486 521.088L671.444 531.23L573.836 587.94Z" fill="#A3C7E0"/>
<path d="M671.445 531.23L671.487 521.088L957.15 686.045L957.109 696.145L671.445 531.23Z" fill="#A2C7E0"/>
<path d="M957.108 696.144L859.541 752.896L573.836 587.939L671.444 531.229L957.108 696.144Z" fill="#85B7D9"/>
<path d="M555.124 620.592L552.35 622.206L510.542 630.775L506.195 628.25L547.134 620.137L547.259 620.054L531.984 611.237L535.42 609.25L555.124 620.592Z" fill="#DCDCDC"/>
<path d="M462.113 671.594L466.459 674.078L463.189 675.982L458.801 673.499L450.522 678.383L446.383 676.106L454.662 671.18L440.174 662.902L442.947 661.287L476.642 657.852L481.196 660.459L462.113 671.594ZM468.446 663.315C470.102 662.363 471.758 661.453 473.455 660.583C470.682 661.122 468.57 661.453 466.294 661.742L448.122 663.481L458.305 669.359L468.653 663.357" fill="#DCDCDC"/>
<path d="M398.114 704.834L367.151 722.841L363.053 720.481L390.125 704.752L390.042 704.71L381.722 703.261L384.081 700.943L394.513 702.765L398.114 704.834Z" fill="#DCDCDC"/>
<path d="M313.883 747.223C320.464 750.99 318.395 756.578 308.543 762.291C297.987 768.417 288.259 769.535 281.347 765.519C275.262 762.001 276.752 756.33 286.935 750.328C297.118 744.326 307.591 743.58 313.883 747.223ZM284.906 763.781C289.253 766.265 296.331 764.568 304.238 759.973C312.144 755.378 314.876 751.487 310.53 748.962C306.804 746.809 299.684 747.885 291.24 752.811C282.795 757.737 281.098 761.587 284.906 763.781Z" fill="#DCDCDC"/>
<path d="M474.204 746.648C480.91 750.497 479.171 754.927 474.7 757.369C468.988 760.722 460.212 760.97 447.297 760.846H442.537L456.528 769.125L453.051 771.153L433.182 759.645L435.748 758.155H442.206C457.729 758.155 465.304 758.155 470.064 755.423C473.21 753.602 474.535 751.036 470.064 748.345C467.191 746.875 464.019 746.082 460.792 746.027L462.448 743.543C466.551 743.672 470.572 744.733 474.204 746.648Z" fill="#DCDCDC"/>
<path d="M556.702 796.529C562.87 800.089 562 803.773 558.234 805.967C554.161 807.97 549.464 808.297 545.153 806.878C545.925 807.378 546.54 808.086 546.927 808.921C547.314 809.756 547.458 810.683 547.341 811.596C547.224 812.509 546.852 813.37 546.267 814.08C545.682 814.791 544.909 815.322 544.035 815.612C540.768 817.18 537.156 817.896 533.538 817.694C529.919 817.491 526.41 816.376 523.338 814.453C520.776 813.143 518.681 811.077 517.336 808.533L521.765 807.291C522.816 809.485 524.543 811.284 526.691 812.424C528.628 813.662 530.857 814.367 533.154 814.469C535.45 814.57 537.733 814.065 539.772 813.004C543.911 810.479 541.966 807.126 537.868 804.725L535.549 803.359L538.695 801.538L541.055 802.904C542.87 804.017 544.923 804.685 547.046 804.85C549.169 805.016 551.301 804.675 553.266 803.856C555.75 802.448 556.371 800.213 552.438 797.978C549.864 796.639 547.051 795.823 544.159 795.577L546.105 793.176C549.825 793.577 553.428 794.717 556.702 796.529V796.529Z" fill="#DCDCDC"/>
<path d="M561.667 707.276L558.149 709.346L546.268 702.474L537.079 706.614C537.907 706.986 538.652 707.318 539.852 707.98C541.971 709.053 543.717 710.741 544.861 712.823C545.937 715.017 545.275 717.749 541.384 720.026C537.917 721.767 534.075 722.625 530.197 722.524C526.319 722.423 522.526 721.366 519.155 719.446C516.67 718.244 514.628 716.288 513.318 713.858L517.458 712.616C518.614 714.685 520.337 716.38 522.425 717.501C524.572 718.704 526.981 719.364 529.442 719.422C531.902 719.48 534.34 718.934 536.541 717.832C540.473 715.472 540.68 712.285 534.429 708.684C532.927 707.828 531.379 707.054 529.793 706.365L546.641 698.873L561.667 707.276Z" fill="#DCDCDC"/>
<path d="M626.738 758.44C632.285 761.627 632.202 766.139 626.117 769.699C622.871 771.476 619.24 772.435 615.54 772.493C611.84 772.551 608.182 771.705 604.882 770.031C598.176 766.181 598.962 760.675 607.034 755.998C612.898 752.655 619.533 750.9 626.282 750.906C631.288 750.924 636.236 751.981 640.812 754.011C641.961 754.496 643.081 755.049 644.165 755.666L640.729 757.654L640.067 757.239C639.322 756.826 638.411 756.37 637.376 755.915C630.358 753.051 622.497 753.051 615.479 755.915C619.402 755.585 623.331 756.467 626.738 758.44V758.44ZM608.11 768.168C610.249 769.17 612.605 769.619 614.963 769.474C617.321 769.33 619.604 768.596 621.605 767.34C626.034 764.773 626.2 761.752 622.309 759.516C619.258 758.006 615.792 757.554 612.457 758.233C611.628 758.344 610.827 758.611 610.097 759.019C605.088 762.041 603.681 765.601 608.11 768.168" fill="#DCDCDC"/>
<path d="M617.422 671.186C618.017 671.776 618.456 672.506 618.699 673.309C618.941 674.112 618.98 674.962 618.811 675.784C618.643 676.605 618.273 677.372 617.734 678.015C617.195 678.657 616.505 679.156 615.725 679.465C612.629 680.928 609.222 681.61 605.801 681.452C602.38 681.293 599.051 680.298 596.104 678.554C589.605 674.787 589.522 670.275 594.034 667.626C598.531 665.388 603.71 664.944 608.522 666.384V666.384C608.114 665.824 607.84 665.178 607.722 664.495C607.603 663.812 607.644 663.112 607.84 662.447C608.036 661.783 608.383 661.172 608.853 660.663C609.323 660.154 609.904 659.761 610.551 659.512C613.364 658.153 616.47 657.514 619.591 657.651C622.712 657.788 625.75 658.698 628.433 660.299C634.477 663.776 633.773 667.709 629.923 669.944C626.081 671.884 621.655 672.327 617.505 671.186H617.422ZM599.25 676.898C601.031 677.934 603.042 678.51 605.102 678.575C607.161 678.64 609.204 678.192 611.047 677.27C614.814 675.077 613.945 672.51 611.047 669.364C609.112 668.621 607.045 668.281 604.973 668.367C602.901 668.452 600.869 668.961 599.002 669.861C595.731 671.6 595.359 674.58 599.333 676.898H599.25ZM614.98 661.541C611.875 663.362 612.579 665.68 615.228 668.329C618.616 669.503 622.329 669.31 625.577 667.791C628.061 666.342 629.178 663.983 625.577 661.789C624.002 660.888 622.227 660.394 620.413 660.351C618.599 660.307 616.803 660.716 615.187 661.541" fill="#DCDCDC"/>
<path d="M707.251 709.888C713.584 713.572 712.384 718.829 704.478 723.465C698.428 726.971 691.559 728.813 684.567 728.805C680.002 728.776 675.492 727.804 671.321 725.949C669.996 725.369 668.837 724.79 667.926 724.293L667.223 723.838L670.617 721.851L671.362 722.347C672.107 722.761 673.059 723.217 674.218 723.755C677.229 725.047 680.463 725.736 683.739 725.783C688.006 725.877 692.243 725.043 696.157 723.341C692.449 723.607 688.742 722.802 685.478 721.023C679.889 717.794 680.469 713.241 685.767 710.177C689.067 708.422 692.737 707.48 696.474 707.43C700.211 707.379 703.906 708.222 707.251 709.888V709.888ZM698.972 721.354C699.644 721.258 700.29 721.033 700.876 720.692C706.175 717.587 708.286 714.11 703.857 711.585C701.685 710.577 699.298 710.121 696.907 710.259C694.517 710.396 692.197 711.122 690.155 712.371C686.306 714.648 686.016 717.546 689.576 719.657C692.436 721.241 695.739 721.837 698.972 721.354Z" fill="#DCDCDC"/>
<path d="M896.546 681.569C908.965 688.648 904.825 698.996 886.529 709.759C866.825 721.184 848.57 723.254 835.655 715.803C824.272 709.221 827.376 698.624 846.128 687.365C864.88 676.105 884.708 674.739 896.546 681.569ZM842.195 712.574C850.267 717.21 863.472 714.023 878.25 705.454C893.028 696.885 898.202 689.6 890.047 684.757C883.135 680.617 869.723 682.728 853.951 691.877C838.884 700.652 835.034 708.434 842.195 712.574Z" fill="black"/>
<path d="M801.838 763.742L753.862 776.036L750.633 774.215L798.568 761.838L801.838 763.742Z" fill="#DCDCDC"/>
<g opacity="0.58">
<path opacity="0.58" d="M977.438 149.78L976.61 443.35L732.879 302.609L733.707 9.08008L977.438 149.78Z" fill="#E1EBF5"/>
</g>
<path d="M899.576 188.151L934.596 167.826L933.726 461.396L898.748 481.72L899.576 188.151Z" fill="#307B9A"/>
<path d="M644.084 40.6605L679.104 20.3359L934.59 167.825L899.571 188.149L644.084 40.6605Z" fill="#307896"/>
<path d="M899.574 188.151L898.747 481.72L643.26 334.232L644.088 40.6621L899.574 188.151Z" fill="#2BA0D2"/>
<path d="M773.192 196.757C759.987 189.14 749.307 195.266 749.266 210.417C749.692 218.671 752.067 226.706 756.197 233.865C760.327 241.025 766.094 247.104 773.026 251.604C786.189 259.221 796.911 253.095 796.952 237.944C796.545 229.658 794.179 221.586 790.049 214.39C785.919 207.195 780.142 201.081 773.192 196.55" fill="white"/>
<path d="M776.504 266.05L769.508 261.91C746.576 248.664 727.907 259.302 727.824 285.671C727.991 288.825 728.904 291.896 730.487 294.63C732.07 297.364 734.278 299.684 736.931 301.4L808.709 342.795C813.759 345.734 817.857 343.374 817.857 337.621C817.857 311.252 799.437 279.172 776.463 265.925" fill="white"/>
<path d="M125.208 330.609C125.208 347.542 117.954 351.507 109.521 346.275C101.088 341.042 94.4082 328.854 94.4082 312.571C94.4082 296.288 101.572 291.9 110.186 297.263C119.163 302.918 125.208 315.301 125.208 330.609ZM101.39 316.569C101.179 326.709 104.412 336.427 109.762 339.84C115.112 343.252 118.165 337.369 118.195 326.839C118.195 317.089 115.959 307.339 109.853 303.698C104.352 300.286 101.421 306.493 101.39 316.699" fill="#FEFEFE"/>
<path d="M147.212 320.309L152.804 323.786L114.387 383.133L108.766 379.656L147.212 320.309Z" fill="#FEFEFE"/>
<path d="M152.41 356.874C161.477 362.496 167.522 374.814 167.341 390.122C167.341 407.088 160.087 411.021 151.775 405.853C143.463 400.685 136.662 388.432 136.662 372.312C136.662 356.191 143.856 351.511 152.41 356.874ZM151.987 399.418C157.82 403.025 160.419 396.98 160.449 386.417C160.449 376.667 158.182 366.917 152.107 363.276C146.606 359.864 143.554 366.007 143.523 376.277C143.493 386.547 146.546 396.233 151.987 399.58" fill="#FEFEFE"/>
</svg>
