<svg width="93" height="122" viewBox="0 0 93 122" fill="none" xmlns="http://www.w3.org/2000/svg">
<path d="M40.4376 115.844L56.0901 106.076L55.9719 106.156L40.334 115.939C40.3749 115.917 40.4105 115.884 40.4376 115.844Z" fill="#0D5E92"/>
<path d="M49.4877 107.234L65.1256 97.4668L56.0712 106.073L40.4336 115.841L49.4877 107.234Z" fill="#0D5E92"/>
<path d="M2.13086 10.1923L17.7836 0.408677C18.4081 0.0850117 19.1025 -0.0504418 19.793 0.0167943C20.4834 0.0840303 21.1438 0.351421 21.704 0.790462L6.06644 10.5582C5.50188 10.1219 4.83827 9.85758 4.14561 9.79318C3.45295 9.72878 2.75669 9.86668 2.13086 10.1923Z" fill="#0D5E92"/>
<path d="M76.7824 116.635L92.4203 106.852V107.011L76.7676 116.778C76.7748 116.731 76.7748 116.683 76.7676 116.635" fill="#0D5E92"/>
<path d="M76.7681 116.762L92.4209 106.994C92.484 107.819 92.3467 108.647 92.0225 109.397C91.6983 110.147 91.1983 110.794 90.5715 111.273L74.9336 121.041C75.5576 120.56 76.055 119.912 76.3766 119.162C76.6981 118.412 76.8328 117.585 76.7681 116.762Z" fill="#0D5E92"/>
<path d="M77.3467 62.8969L92.9847 53.1133L92.4075 106.836L76.7695 116.619L77.3467 62.8969Z" fill="#0D5E92"/>
<path d="M6.06445 10.5568L21.702 0.789062L87.2717 41.769L71.6337 51.5367L6.06445 10.5568Z" fill="#0D5E92"/>
<path d="M71.6348 51.5411L87.2875 41.7734C87.9607 42.2158 88.5774 42.7506 89.122 43.3643L73.4841 53.1479C72.9365 52.5312 72.3145 51.9961 71.6348 51.5571" fill="#0D5E92"/>
<path d="M73.4844 53.102L89.1223 43.3184C91.5066 45.9566 92.8891 49.4569 92.9987 53.1338L77.3607 62.9015C77.2517 59.2292 75.8689 55.7336 73.4844 53.102Z" fill="#0D5E92"/>
<path d="M6.06592 10.559L71.6352 51.5388C73.3506 52.8171 74.7626 54.5111 75.7571 56.4842C76.7517 58.4572 77.3012 60.6541 77.3608 62.8974L76.7836 116.62C76.7836 120.836 74.1503 122.649 70.9843 120.661L49.4877 107.234L40.4337 115.84C40.2856 115.964 40.1033 116.031 39.9157 116.031C39.7281 116.031 39.5462 115.964 39.3981 115.84C38.9592 115.546 38.6094 115.12 38.3918 114.615L28.6276 94.205L5.71086 79.8875C3.99649 78.6204 2.58505 76.9351 1.59251 74.9692C0.599969 73.0033 0.054347 70.8128 0 68.5767L0.28101 14.6792C0.310599 10.4158 2.89988 8.58632 6.06592 10.559Z" fill="#1474B1"/>
<path d="M33.3021 55.2432C33.3021 63.5315 29.7515 65.4723 25.6238 62.911C21.4962 60.3498 18.2266 54.3841 18.2266 46.4141C18.2266 38.444 21.7328 36.2964 25.9493 38.9212C30.3433 41.6893 33.3021 47.7504 33.3021 55.2432ZM21.6442 48.3708C21.5406 53.3342 23.1233 58.0908 25.742 59.7612C28.3606 61.4315 29.8549 58.5521 29.8697 53.3978C29.8697 48.6253 28.7749 43.8528 25.7864 42.0711C23.0938 40.4007 21.659 43.4392 21.6442 48.4344" fill="#FEFEFE"/>
<path d="M44.0725 50.2012L46.8093 51.9034L28.0055 80.952L25.2539 79.2498L44.0725 50.2012Z" fill="#FEFEFE"/>
<path d="M46.6161 68.0991C51.0545 70.8512 54.0133 76.8805 53.9245 84.3734C53.9245 92.6775 50.374 94.6024 46.3055 92.073C42.237 89.5436 38.9082 83.5461 38.9082 75.6556C38.9082 67.765 42.4293 65.4742 46.6161 68.0991ZM46.4091 88.9231C49.2645 90.6889 50.5365 87.73 50.5513 82.5598C50.5513 77.7873 49.4417 73.0148 46.468 71.233C43.7754 69.5627 42.2814 72.5693 42.2666 77.5964C42.2518 82.6234 43.7461 87.3641 46.4091 89.0027" fill="#FEFEFE"/>
</svg>
