<svg width="97" height="122" viewBox="0 0 97 122" fill="none" xmlns="http://www.w3.org/2000/svg">
<path d="M53.9541 115.844L37.2924 106.076L37.4181 106.156L54.0645 115.939C54.0208 115.917 53.983 115.884 53.9541 115.844Z" fill="#0D5E92"/>
<path d="M44.3171 107.234L27.6708 97.4668L37.3091 106.073L53.9551 115.841L44.3171 107.234Z" fill="#0D5E92"/>
<path d="M94.7246 10.1923L78.0625 0.408677C77.3977 0.0850117 76.6585 -0.0504418 75.9236 0.0167943C75.1887 0.0840303 74.4857 0.351421 73.8893 0.790462L90.5352 10.5582C91.1362 10.1219 91.8426 9.85758 92.5799 9.79318C93.3173 9.72878 94.0584 9.86668 94.7246 10.1923Z" fill="#0D5E92"/>
<path d="M15.2616 116.635L-1.38477 106.852V107.011L15.2773 116.778C15.2697 116.731 15.2697 116.683 15.2773 116.635" fill="#0D5E92"/>
<path d="M15.2777 116.762L-1.38445 106.994C-1.45163 107.819 -1.30548 108.647 -0.960367 109.397C-0.615255 110.147 -0.0830345 110.794 0.584116 111.273L17.2305 121.041C16.5662 120.56 16.0367 119.912 15.6944 119.162C15.3521 118.412 15.2088 117.585 15.2777 116.762Z" fill="#0D5E92"/>
<path d="M14.661 62.8969L-1.98537 53.1133L-1.37096 106.836L15.2754 116.619L14.661 62.8969Z" fill="#0D5E92"/>
<path d="M90.541 10.5568L73.895 0.789062L4.09725 41.769L20.7436 51.5367L90.541 10.5568Z" fill="#0D5E92"/>
<path d="M20.7402 51.5411L4.07812 41.7734C3.36155 42.2158 2.7051 42.7506 2.12531 43.3643L18.7717 53.1479C19.3546 52.5312 20.0166 51.9961 20.7402 51.5571" fill="#0D5E92"/>
<path d="M18.7715 53.102L2.12513 43.3184C-0.412865 45.9566 -1.8845 49.4569 -2.00118 53.1338L14.6452 62.9015C14.7612 59.2292 16.2332 55.7336 18.7715 53.102Z" fill="#0D5E92"/>
<path d="M90.539 10.559L20.7416 51.5388C18.9155 52.8171 17.4125 54.5111 16.3539 56.4842C15.2952 58.4572 14.7103 60.6541 14.6467 62.8974L15.2611 116.62C15.2611 120.836 18.0643 122.649 21.4345 120.661L44.3172 107.234L53.9551 115.84C54.1127 115.964 54.3068 116.031 54.5065 116.031C54.7061 116.031 54.8999 115.964 55.0574 115.84C55.5246 115.546 55.897 115.12 56.1286 114.615L66.5224 94.205L90.917 79.8875C92.7419 78.6204 94.2443 76.9351 95.3009 74.9692C96.3574 73.0033 96.9382 70.8128 96.9961 68.5767L96.697 14.6792C96.6655 10.4158 93.9092 8.58632 90.539 10.559Z" fill="#1474B1"/>
<path d="M61.546 55.2432C61.546 63.5315 65.3256 65.4723 69.7195 62.911C74.1133 60.3498 77.5938 54.3841 77.5938 46.4141C77.5938 38.444 73.8614 36.2964 69.373 38.9212C64.6957 41.6893 61.546 47.7504 61.546 55.2432ZM73.9557 48.3708C74.066 53.3342 72.3812 58.0908 69.5937 59.7612C66.8062 61.4315 65.2156 58.5521 65.1998 53.3978C65.1998 48.6253 66.3652 43.8528 69.5464 42.0711C72.4127 40.4007 73.94 43.4392 73.9557 48.4344" fill="#FEFEFE"/>
<path d="M50.0811 50.2012L47.1679 51.9034L67.1843 80.952L70.1133 79.2498L50.0811 50.2012Z" fill="#FEFEFE"/>
<path d="M47.3732 68.0991C42.6486 70.8512 39.499 76.8805 39.5935 84.3734C39.5935 92.6775 43.373 94.6024 47.7038 92.073C52.0347 89.5436 55.5781 83.5461 55.5781 75.6556C55.5781 67.765 51.83 65.4742 47.3732 68.0991ZM47.5935 88.9231C44.554 90.6889 43.1999 87.73 43.1842 82.5598C43.1842 77.7873 44.3654 73.0148 47.5308 71.233C50.3971 69.5627 51.9874 72.5693 52.0032 77.5964C52.0189 82.6234 50.4282 87.3641 47.5935 89.0027" fill="#FEFEFE"/>
</svg>
