<svg width="655" height="457" viewBox="0 0 655 457" fill="none" xmlns="http://www.w3.org/2000/svg">
<g clip-path="url(#clip0_470_4850)">
<path d="M381.536 80.5639C393.812 80.5639 403.764 71.0173 403.764 59.241C403.764 47.4646 393.812 37.918 381.536 37.918C369.26 37.918 359.309 47.4646 359.309 59.241C359.309 71.0173 369.26 80.5639 381.536 80.5639Z" fill="#F2F2F2"/>
<path d="M571.341 378.568C604.38 354.427 620.16 313.861 610.281 275.164C610.036 274.203 609.776 273.243 609.504 272.286C602.954 249.316 586.751 227.485 563.136 220.145C543.306 213.982 521.662 218.721 500.976 216.271C460.367 211.46 428.884 179.94 406.732 146.938C384.579 113.935 367.554 76.9943 338.119 49.7297C289.598 4.78872 210.45 -4.88712 150.292 24.3661C90.1344 53.6194 51.8145 118.52 53.4487 183.202C55.083 247.884 95.1105 309.724 153.24 342.535C174.595 354.588 199.293 363.126 223.874 360.139C245.201 357.546 264.58 346.552 285.808 343.289C319.182 338.157 352.344 352.633 381.211 369.501C410.077 386.37 437.96 406.364 470.762 414.185C502.614 421.778 542.074 399.952 571.341 378.568Z" fill="#F2F2F2"/>
<path d="M523.629 41.7332C522.905 41.2957 522.173 40.8808 521.448 40.4583C500.512 28.3244 478.071 18.467 454.59 11.0896L449.146 79.1513H414.63V1.15423C412.457 0.746852 410.268 0.36211 408.078 0V79.1513H367.061C344.481 79.1513 322.825 71.0228 306.858 56.554C290.892 42.0852 281.922 22.4612 281.922 1.99924V1.99917C279.724 2.42918 277.543 2.88936 275.361 3.37972V79.1513H241.953L236.767 14.2506C212.636 22.6367 189.728 33.6648 168.552 47.0895C168.185 47.3158 167.819 47.5496 167.461 47.776C165.621 48.9453 163.807 50.1372 162 51.3443V311H260.46L258.72 289.16L249.146 169.249H441.945L432.371 289.16L430.631 311H528V44.3585C526.551 43.4684 525.095 42.5933 523.629 41.7332ZM275.361 149.446H247.564L242.428 85.0959H275.361V149.446ZM408.079 149.446H361.392V148.171C361.392 147.558 361.259 146.951 361 146.385C360.741 145.819 360.361 145.305 359.882 144.872C359.404 144.439 358.835 144.095 358.21 143.862C357.585 143.628 356.915 143.508 356.239 143.509H335.942C335.267 143.509 334.598 143.629 333.973 143.863C333.349 144.097 332.782 144.441 332.304 144.874C331.826 145.307 331.447 145.821 331.189 146.387C330.93 146.952 330.797 147.559 330.798 148.171V149.446H281.922V85.0959H408.079V149.446ZM414.63 149.446V85.0959H448.671L443.535 149.446H414.63Z" fill="#3F3D56"/>
<path d="M17.3789 328.367C24.6107 336.587 32.4328 344.313 40.7878 351.486L648.97 352.285C657.325 345.111 665.147 337.386 672.379 329.166L17.3789 328.367Z" fill="#3F3D56"/>
<path d="M429.809 254.339V322.781C429.809 323.653 430.171 324.49 430.814 325.106C431.457 325.723 432.328 326.07 433.238 326.07H538.964C539.874 326.07 540.745 325.723 541.388 325.106C542.031 324.49 542.393 323.653 542.393 322.781V254.339C542.391 253.467 542.029 252.632 541.386 252.016C540.744 251.4 539.873 251.054 538.964 251.053H433.238C432.329 251.054 431.458 251.4 430.815 252.016C430.173 252.632 429.811 253.467 429.809 254.339V254.339Z" fill="#3F3D56"/>
<path d="M432.287 255.189V321.936C432.288 322.402 432.481 322.849 432.825 323.178C433.168 323.508 433.634 323.693 434.12 323.694H538.082C538.568 323.693 539.034 323.508 539.377 323.178C539.721 322.849 539.914 322.402 539.915 321.936V255.189C539.915 254.723 539.722 254.275 539.379 253.945C539.035 253.615 538.569 253.429 538.082 253.428H434.12C433.633 253.429 433.167 253.615 432.824 253.945C432.48 254.275 432.287 254.723 432.287 255.189V255.189Z" fill="#297FB8"/>
<path d="M427.597 336.128C427.791 336.361 428.037 336.549 428.317 336.677C428.598 336.806 428.905 336.872 429.215 336.871H542.424C542.733 336.87 543.039 336.804 543.318 336.676C543.598 336.548 543.844 336.362 544.039 336.131C544.234 335.9 544.373 335.631 544.446 335.342C544.519 335.053 544.523 334.753 544.46 334.462L542.703 326.455C542.63 326.128 542.473 325.824 542.246 325.571C542.02 325.317 541.731 325.122 541.406 325.003C541.17 324.914 540.919 324.869 540.666 324.869H430.966C430.713 324.869 430.462 324.914 430.226 325.003C429.901 325.122 429.612 325.317 429.385 325.571C429.159 325.824 429.002 326.128 428.929 326.455L427.172 334.462C427.109 334.753 427.115 335.053 427.189 335.341C427.262 335.629 427.402 335.898 427.597 336.128V336.128Z" fill="#2F2E41"/>
<path d="M519.402 346.773H522.076C522.3 346.773 522.482 346.599 522.482 346.384V345.156C522.482 344.941 522.3 344.767 522.076 344.767H519.402C519.178 344.767 518.996 344.941 518.996 345.156V346.384C518.996 346.599 519.178 346.773 519.402 346.773Z" fill="#3F3D56"/>
<path d="M512.427 346.773H515.101C515.326 346.773 515.508 346.599 515.508 346.384V345.156C515.508 344.941 515.326 344.767 515.101 344.767H512.427C512.203 344.767 512.021 344.941 512.021 345.156V346.384C512.021 346.599 512.203 346.773 512.427 346.773Z" fill="#3F3D56"/>
<path d="M505.455 346.773H508.129C508.353 346.773 508.535 346.599 508.535 346.384V345.156C508.535 344.941 508.353 344.767 508.129 344.767H505.455C505.23 344.767 505.048 344.941 505.048 345.156V346.384C505.048 346.599 505.23 346.773 505.455 346.773Z" fill="#3F3D56"/>
<path d="M498.48 346.773H501.154C501.379 346.773 501.561 346.599 501.561 346.384V345.156C501.561 344.941 501.379 344.767 501.154 344.767H498.48C498.256 344.767 498.074 344.941 498.074 345.156V346.384C498.074 346.599 498.256 346.773 498.48 346.773Z" fill="#3F3D56"/>
<path d="M508.886 328.318H511.56C511.785 328.318 511.967 328.144 511.967 327.929V326.701C511.967 326.486 511.785 326.311 511.56 326.311H508.886C508.662 326.311 508.48 326.486 508.48 326.701V327.929C508.48 328.144 508.662 328.318 508.886 328.318Z" fill="#3F3D56"/>
<path d="M501.914 328.318H504.588C504.812 328.318 504.994 328.144 504.994 327.929V326.701C504.994 326.486 504.812 326.311 504.588 326.311H501.914C501.689 326.311 501.507 326.486 501.507 326.701V327.929C501.507 328.144 501.689 328.318 501.914 328.318Z" fill="#3F3D56"/>
<path d="M494.939 328.318H497.613C497.838 328.318 498.02 328.144 498.02 327.929V326.701C498.02 326.486 497.838 326.311 497.613 326.311H494.939C494.715 326.311 494.533 326.486 494.533 326.701V327.929C494.533 328.144 494.715 328.318 494.939 328.318Z" fill="#3F3D56"/>
<path d="M487.966 328.318H490.64C490.865 328.318 491.047 328.144 491.047 327.929V326.701C491.047 326.486 490.865 326.311 490.64 326.311H487.966C487.742 326.311 487.56 326.486 487.56 326.701V327.929C487.56 328.144 487.742 328.318 487.966 328.318Z" fill="#3F3D56"/>
<path d="M480.994 328.318H483.668C483.892 328.318 484.074 328.144 484.074 327.929V326.701C484.074 326.486 483.892 326.311 483.668 326.311H480.994C480.769 326.311 480.587 326.486 480.587 326.701V327.929C480.587 328.144 480.769 328.318 480.994 328.318Z" fill="#3F3D56"/>
<path d="M474.019 328.318H476.693C476.918 328.318 477.1 328.144 477.1 327.929V326.701C477.1 326.486 476.918 326.311 476.693 326.311H474.019C473.795 326.311 473.613 326.486 473.613 326.701V327.929C473.613 328.144 473.795 328.318 474.019 328.318Z" fill="#3F3D56"/>
<path d="M467.047 328.318H469.721C469.945 328.318 470.127 328.144 470.127 327.929V326.701C470.127 326.486 469.945 326.311 469.721 326.311H467.047C466.822 326.311 466.64 326.486 466.64 326.701V327.929C466.64 328.144 466.822 328.318 467.047 328.318Z" fill="#3F3D56"/>
<path d="M460.072 328.318H462.746C462.97 328.318 463.152 328.144 463.152 327.929V326.701C463.152 326.486 462.97 326.311 462.746 326.311H460.072C459.848 326.311 459.666 326.486 459.666 326.701V327.929C459.666 328.144 459.848 328.318 460.072 328.318Z" fill="#3F3D56"/>
<path d="M453.099 328.318H455.773C455.998 328.318 456.18 328.144 456.18 327.929V326.701C456.18 326.486 455.998 326.311 455.773 326.311H453.099C452.875 326.311 452.693 326.486 452.693 326.701V327.929C452.693 328.144 452.875 328.318 453.099 328.318Z" fill="#3F3D56"/>
<path d="M446.125 328.318H448.799C449.023 328.318 449.205 328.144 449.205 327.929V326.701C449.205 326.486 449.023 326.311 448.799 326.311H446.125C445.9 326.311 445.718 326.486 445.718 326.701V327.929C445.718 328.144 445.9 328.318 446.125 328.318Z" fill="#3F3D56"/>
<path d="M439.152 328.318H441.826C442.05 328.318 442.232 328.144 442.232 327.929V326.701C442.232 326.486 442.05 326.311 441.826 326.311H439.152C438.928 326.311 438.746 326.486 438.746 326.701V327.929C438.746 328.144 438.928 328.318 439.152 328.318Z" fill="#3F3D56"/>
<path d="M432.177 328.318H434.851C435.076 328.318 435.258 328.144 435.258 327.929V326.701C435.258 326.486 435.076 326.311 434.851 326.311H432.177C431.953 326.311 431.771 326.486 431.771 326.701V327.929C431.771 328.144 431.953 328.318 432.177 328.318Z" fill="#3F3D56"/>
<path d="M519.484 350.117H522.158C522.382 350.117 522.564 349.943 522.564 349.727V348.5C522.564 348.285 522.382 348.11 522.158 348.11H519.484C519.26 348.11 519.078 348.285 519.078 348.5V349.727C519.078 349.943 519.26 350.117 519.484 350.117Z" fill="#3F3D56"/>
<path d="M512.509 350.117H515.183C515.408 350.117 515.59 349.943 515.59 349.727V348.5C515.59 348.285 515.408 348.11 515.183 348.11H512.509C512.285 348.11 512.103 348.285 512.103 348.5V349.727C512.103 349.943 512.285 350.117 512.509 350.117Z" fill="#3F3D56"/>
<path d="M505.537 350.117H508.211C508.435 350.117 508.617 349.943 508.617 349.727V348.5C508.617 348.285 508.435 348.11 508.211 348.11H505.537C505.312 348.11 505.13 348.285 505.13 348.5V349.727C505.13 349.943 505.312 350.117 505.537 350.117Z" fill="#3F3D56"/>
<path d="M498.564 350.117H501.238C501.463 350.117 501.645 349.943 501.645 349.727V348.5C501.645 348.285 501.463 348.11 501.238 348.11H498.564C498.34 348.11 498.158 348.285 498.158 348.5V349.727C498.158 349.943 498.34 350.117 498.564 350.117Z" fill="#3F3D56"/>
<path d="M508.969 331.664H511.642C511.867 331.664 512.049 331.489 512.049 331.274V330.047C512.049 329.832 511.867 329.657 511.642 329.657H508.969C508.744 329.657 508.562 329.832 508.562 330.047V331.274C508.562 331.489 508.744 331.664 508.969 331.664Z" fill="#3F3D56"/>
<path d="M501.996 331.664H504.67C504.894 331.664 505.076 331.489 505.076 331.274V330.047C505.076 329.832 504.894 329.657 504.67 329.657H501.996C501.771 329.657 501.589 329.832 501.589 330.047V331.274C501.589 331.489 501.771 331.664 501.996 331.664Z" fill="#3F3D56"/>
<path d="M495.023 331.664H497.697C497.922 331.664 498.104 331.489 498.104 331.274V330.047C498.104 329.832 497.922 329.657 497.697 329.657H495.023C494.799 329.657 494.617 329.832 494.617 330.047V331.274C494.617 331.489 494.799 331.664 495.023 331.664Z" fill="#3F3D56"/>
<path d="M488.049 331.664H490.722C490.947 331.664 491.129 331.489 491.129 331.274V330.047C491.129 329.832 490.947 329.657 490.722 329.657H488.049C487.824 329.657 487.642 329.832 487.642 330.047V331.274C487.642 331.489 487.824 331.664 488.049 331.664Z" fill="#3F3D56"/>
<path d="M481.076 331.664H483.75C483.974 331.664 484.156 331.489 484.156 331.274V330.047C484.156 329.832 483.974 329.657 483.75 329.657H481.076C480.851 329.657 480.669 329.832 480.669 330.047V331.274C480.669 331.489 480.851 331.664 481.076 331.664Z" fill="#3F3D56"/>
<path d="M474.101 331.664H476.775C477 331.664 477.182 331.489 477.182 331.274V330.047C477.182 329.832 477 329.657 476.775 329.657H474.101C473.877 329.657 473.695 329.832 473.695 330.047V331.274C473.695 331.489 473.877 331.664 474.101 331.664Z" fill="#3F3D56"/>
<path d="M467.129 331.664H469.803C470.027 331.664 470.209 331.489 470.209 331.274V330.047C470.209 329.832 470.027 329.657 469.803 329.657H467.129C466.904 329.657 466.722 329.832 466.722 330.047V331.274C466.722 331.489 466.904 331.664 467.129 331.664Z" fill="#3F3D56"/>
<path d="M460.154 331.664H462.828C463.052 331.664 463.234 331.489 463.234 331.274V330.047C463.234 329.832 463.052 329.657 462.828 329.657H460.154C459.929 329.657 459.748 329.832 459.748 330.047V331.274C459.748 331.489 459.929 331.664 460.154 331.664Z" fill="#3F3D56"/>
<path d="M453.181 331.664H455.855C456.08 331.664 456.262 331.489 456.262 331.274V330.047C456.262 329.832 456.08 329.657 455.855 329.657H453.181C452.957 329.657 452.775 329.832 452.775 330.047V331.274C452.775 331.489 452.957 331.664 453.181 331.664Z" fill="#3F3D56"/>
<path d="M446.207 331.664H448.881C449.105 331.664 449.287 331.489 449.287 331.274V330.047C449.287 329.832 449.105 329.657 448.881 329.657H446.207C445.982 329.657 445.8 329.832 445.8 330.047V331.274C445.8 331.489 445.982 331.664 446.207 331.664Z" fill="#3F3D56"/>
<path d="M439.234 331.664H441.908C442.133 331.664 442.314 331.489 442.314 331.274V330.047C442.314 329.832 442.133 329.657 441.908 329.657H439.234C439.01 329.657 438.828 329.832 438.828 330.047V331.274C438.828 331.489 439.01 331.664 439.234 331.664Z" fill="#3F3D56"/>
<path d="M432.259 331.664H434.933C435.158 331.664 435.34 331.489 435.34 331.274V330.047C435.34 329.832 435.158 329.657 434.933 329.657H432.259C432.035 329.657 431.853 329.832 431.853 330.047V331.274C431.853 331.489 432.035 331.664 432.259 331.664Z" fill="#3F3D56"/>
<path d="M478.983 335.678H506.064C506.289 335.678 506.471 335.503 506.471 335.288V334.061C506.471 333.845 506.289 333.671 506.064 333.671H478.983C478.759 333.671 478.577 333.845 478.577 334.061V335.288C478.577 335.503 478.759 335.678 478.983 335.678Z" fill="#3F3D56"/>
<path d="M450.292 268.031H447.925C447.207 268.031 446.625 268.589 446.625 269.278C446.625 269.966 447.207 270.525 447.925 270.525H450.292C451.01 270.525 451.591 269.966 451.591 269.278C451.591 268.589 451.01 268.031 450.292 268.031Z" fill="white"/>
<path d="M477.366 268.031H474.999C474.281 268.031 473.699 268.589 473.699 269.278C473.699 269.966 474.281 270.525 474.999 270.525H477.366C478.084 270.525 478.666 269.966 478.666 269.278C478.666 268.589 478.084 268.031 477.366 268.031Z" fill="white"/>
<path d="M485.036 268.031H482.669C481.951 268.031 481.369 268.589 481.369 269.278C481.369 269.966 481.951 270.525 482.669 270.525H485.036C485.754 270.525 486.336 269.966 486.336 269.278C486.336 268.589 485.754 268.031 485.036 268.031Z" fill="white"/>
<path d="M470.001 267.822H455.288C454.57 267.822 453.988 268.38 453.988 269.069C453.988 269.757 454.57 270.316 455.288 270.316H470.001C470.718 270.316 471.3 269.757 471.3 269.069C471.3 268.38 470.718 267.822 470.001 267.822Z" fill="white"/>
<path d="M506.1 267.822H491.387C490.67 267.822 490.088 268.38 490.088 269.069C490.088 269.757 490.67 270.316 491.387 270.316H506.1C506.818 270.316 507.4 269.757 507.4 269.069C507.4 268.38 506.818 267.822 506.1 267.822Z" fill="white"/>
<path d="M457.511 273.658H455.143C454.426 273.658 453.844 274.216 453.844 274.905C453.844 275.593 454.426 276.152 455.143 276.152H457.511C458.228 276.152 458.81 275.593 458.81 274.905C458.81 274.216 458.228 273.658 457.511 273.658Z" fill="white"/>
<path d="M484.585 273.658H482.218C481.5 273.658 480.918 274.216 480.918 274.905C480.918 275.593 481.5 276.152 482.218 276.152H484.585C485.302 276.152 485.884 275.593 485.884 274.905C485.884 274.216 485.302 273.658 484.585 273.658Z" fill="white"/>
<path d="M492.257 273.658H489.889C489.172 273.658 488.59 274.216 488.59 274.905C488.59 275.593 489.172 276.152 489.889 276.152H492.257C492.974 276.152 493.556 275.593 493.556 274.905C493.556 274.216 492.974 273.658 492.257 273.658Z" fill="white"/>
<path d="M477.221 273.449H462.509C461.791 273.449 461.209 274.007 461.209 274.696C461.209 275.384 461.791 275.943 462.509 275.943H477.221C477.939 275.943 478.521 275.384 478.521 274.696C478.521 274.007 477.939 273.449 477.221 273.449Z" fill="white"/>
<path d="M513.319 273.449H498.606C497.888 273.449 497.307 274.007 497.307 274.696C497.307 275.384 497.888 275.943 498.606 275.943H513.319C514.037 275.943 514.619 275.384 514.619 274.696C514.619 274.007 514.037 273.449 513.319 273.449Z" fill="white"/>
<path d="M464.731 279.285H462.364C461.646 279.285 461.064 279.843 461.064 280.532C461.064 281.22 461.646 281.778 462.364 281.778H464.731C465.449 281.778 466.031 281.22 466.031 280.532C466.031 279.843 465.449 279.285 464.731 279.285Z" fill="white"/>
<path d="M491.805 279.285H489.438C488.72 279.285 488.139 279.843 488.139 280.532C488.139 281.22 488.72 281.778 489.438 281.778H491.805C492.523 281.778 493.105 281.22 493.105 280.532C493.105 279.843 492.523 279.285 491.805 279.285Z" fill="white"/>
<path d="M499.475 279.285H497.108C496.39 279.285 495.809 279.843 495.809 280.532C495.809 281.22 496.39 281.778 497.108 281.778H499.475C500.193 281.778 500.775 281.22 500.775 280.532C500.775 279.843 500.193 279.285 499.475 279.285Z" fill="white"/>
<path d="M484.44 279.078H469.727C469.01 279.078 468.428 279.636 468.428 280.325C468.428 281.013 469.01 281.571 469.727 281.571H484.44C485.158 281.571 485.74 281.013 485.74 280.325C485.74 279.636 485.158 279.078 484.44 279.078Z" fill="white"/>
<path d="M520.54 279.078H505.827C505.109 279.078 504.527 279.636 504.527 280.325C504.527 281.013 505.109 281.571 505.827 281.571H520.54C521.258 281.571 521.839 281.013 521.839 280.325C521.839 279.636 521.258 279.078 520.54 279.078Z" fill="white"/>
<path d="M471.952 284.912H469.585C468.867 284.912 468.285 285.47 468.285 286.159C468.285 286.847 468.867 287.405 469.585 287.405H471.952C472.67 287.405 473.251 286.847 473.251 286.159C473.251 285.47 472.67 284.912 471.952 284.912Z" fill="white"/>
<path d="M499.024 284.912H496.657C495.939 284.912 495.357 285.47 495.357 286.159C495.357 286.847 495.939 287.405 496.657 287.405H499.024C499.742 287.405 500.324 286.847 500.324 286.159C500.324 285.47 499.742 284.912 499.024 284.912Z" fill="white"/>
<path d="M506.696 284.912H504.329C503.611 284.912 503.029 285.47 503.029 286.159C503.029 286.847 503.611 287.405 504.329 287.405H506.696C507.414 287.405 507.996 286.847 507.996 286.159C507.996 285.47 507.414 284.912 506.696 284.912Z" fill="white"/>
<path d="M491.661 284.705H476.948C476.23 284.705 475.648 285.263 475.648 285.952C475.648 286.64 476.23 287.198 476.948 287.198H491.661C492.379 287.198 492.96 286.64 492.96 285.952C492.96 285.263 492.379 284.705 491.661 284.705Z" fill="white"/>
<path d="M477.366 307.289H474.999C474.281 307.289 473.699 307.847 473.699 308.536C473.699 309.224 474.281 309.782 474.999 309.782H477.366C478.084 309.782 478.666 309.224 478.666 308.536C478.666 307.847 478.084 307.289 477.366 307.289Z" fill="white"/>
<path d="M485.036 307.289H482.669C481.951 307.289 481.369 307.847 481.369 308.536C481.369 309.224 481.951 309.782 482.669 309.782H485.036C485.754 309.782 486.336 309.224 486.336 308.536C486.336 307.847 485.754 307.289 485.036 307.289Z" fill="white"/>
<path d="M506.1 307.498H491.387C490.67 307.498 490.088 308.056 490.088 308.745C490.088 309.433 490.67 309.991 491.387 309.991H506.1C506.818 309.991 507.4 309.433 507.4 308.745C507.4 308.056 506.818 307.498 506.1 307.498Z" fill="white"/>
<path d="M450.292 307.289H447.925C447.207 307.289 446.625 307.847 446.625 308.536C446.625 309.224 447.207 309.782 447.925 309.782H450.292C451.01 309.782 451.591 309.224 451.591 308.536C451.591 307.847 451.01 307.289 450.292 307.289Z" fill="white"/>
<path d="M470.001 307.498H455.288C454.57 307.498 453.988 308.056 453.988 308.745C453.988 309.433 454.57 309.991 455.288 309.991H470.001C470.718 309.991 471.3 309.433 471.3 308.745C471.3 308.056 470.718 307.498 470.001 307.498Z" fill="white"/>
<path d="M457.511 301.662H455.143C454.426 301.662 453.844 302.22 453.844 302.909C453.844 303.597 454.426 304.155 455.143 304.155H457.511C458.228 304.155 458.81 303.597 458.81 302.909C458.81 302.22 458.228 301.662 457.511 301.662Z" fill="white"/>
<path d="M484.585 301.662H482.218C481.5 301.662 480.918 302.22 480.918 302.909C480.918 303.597 481.5 304.155 482.218 304.155H484.585C485.302 304.155 485.884 303.597 485.884 302.909C485.884 302.22 485.302 301.662 484.585 301.662Z" fill="white"/>
<path d="M492.257 301.662H489.889C489.172 301.662 488.59 302.22 488.59 302.909C488.59 303.597 489.172 304.155 489.889 304.155H492.257C492.974 304.155 493.556 303.597 493.556 302.909C493.556 302.22 492.974 301.662 492.257 301.662Z" fill="white"/>
<path d="M477.221 301.871H462.509C461.791 301.871 461.209 302.429 461.209 303.118C461.209 303.806 461.791 304.364 462.509 304.364H477.221C477.939 304.364 478.521 303.806 478.521 303.118C478.521 302.429 477.939 301.871 477.221 301.871Z" fill="white"/>
<path d="M464.731 296.035H462.364C461.646 296.035 461.064 296.593 461.064 297.282C461.064 297.97 461.646 298.529 462.364 298.529H464.731C465.449 298.529 466.031 297.97 466.031 297.282C466.031 296.593 465.449 296.035 464.731 296.035Z" fill="white"/>
<path d="M491.805 296.035H489.438C488.72 296.035 488.139 296.593 488.139 297.282C488.139 297.97 488.72 298.529 489.438 298.529H491.805C492.523 298.529 493.105 297.97 493.105 297.282C493.105 296.593 492.523 296.035 491.805 296.035Z" fill="white"/>
<path d="M499.475 296.035H497.108C496.39 296.035 495.809 296.593 495.809 297.282C495.809 297.97 496.39 298.529 497.108 298.529H499.475C500.193 298.529 500.775 297.97 500.775 297.282C500.775 296.593 500.193 296.035 499.475 296.035Z" fill="white"/>
<path d="M484.44 296.242H469.727C469.01 296.242 468.428 296.8 468.428 297.489C468.428 298.177 469.01 298.736 469.727 298.736H484.44C485.158 298.736 485.74 298.177 485.74 297.489C485.74 296.8 485.158 296.242 484.44 296.242Z" fill="white"/>
<path d="M471.952 290.408H469.585C468.867 290.408 468.285 290.966 468.285 291.655C468.285 292.343 468.867 292.902 469.585 292.902H471.952C472.67 292.902 473.251 292.343 473.251 291.655C473.251 290.966 472.67 290.408 471.952 290.408Z" fill="white"/>
<path d="M499.024 290.408H496.657C495.939 290.408 495.357 290.966 495.357 291.655C495.357 292.343 495.939 292.902 496.657 292.902H499.024C499.742 292.902 500.324 292.343 500.324 291.655C500.324 290.966 499.742 290.408 499.024 290.408Z" fill="white"/>
<path d="M506.696 290.408H504.329C503.611 290.408 503.029 290.966 503.029 291.655C503.029 292.343 503.611 292.902 504.329 292.902H506.696C507.414 292.902 507.996 292.343 507.996 291.655C507.996 290.966 507.414 290.408 506.696 290.408Z" fill="white"/>
<path d="M491.661 290.615H476.948C476.23 290.615 475.648 291.173 475.648 291.862C475.648 292.55 476.23 293.109 476.948 293.109H491.661C492.379 293.109 492.96 292.55 492.96 291.862C492.96 291.173 492.379 290.615 491.661 290.615Z" fill="white"/>
<path d="M437.705 373.241L426.592 356.389L461.474 329.714L475.871 314.412C477.742 312.424 480.124 310.942 482.778 310.114C485.433 309.285 488.268 309.14 491 309.692C493.732 310.244 496.264 311.474 498.345 313.259C500.426 315.044 501.983 317.322 502.858 319.865C504.156 323.633 503.877 327.738 502.08 331.312C500.283 334.887 497.108 337.652 493.227 339.024L470.46 347.07L437.705 373.241Z" fill="#FFB6B6"/>
<path d="M176.955 251.056V332.96H236.768V251.056C236.769 250.467 236.573 249.893 236.209 249.419C235.844 248.945 235.331 248.595 234.745 248.421C234.468 248.333 234.179 248.29 233.887 248.293H179.844C179.465 248.292 179.09 248.363 178.739 248.502C178.389 248.64 178.071 248.844 177.802 249.1C177.534 249.357 177.321 249.662 177.176 249.997C177.03 250.333 176.955 250.693 176.955 251.056V251.056ZM200.297 279.199C200.313 277.584 200.993 276.04 202.188 274.904C203.384 273.768 204.999 273.13 206.682 273.13C208.366 273.13 209.981 273.768 211.176 274.904C212.372 276.04 213.052 277.584 213.067 279.199V288.702C213.059 290.321 212.382 291.871 211.186 293.013C209.989 294.155 208.37 294.796 206.682 294.796C204.995 294.796 203.375 294.155 202.179 293.013C200.983 291.871 200.306 290.321 200.297 288.702V279.199Z" fill="#2F2E41"/>
<path d="M176.771 330.34V338.238C176.773 338.647 176.942 339.039 177.243 339.329C177.544 339.619 177.952 339.784 178.378 339.787H235.344C235.771 339.785 236.179 339.621 236.48 339.331C236.781 339.04 236.95 338.647 236.95 338.238V330.34H176.771Z" fill="#3F3D56"/>
<path d="M82.8613 127.658V277.202C82.8629 279.108 83.6528 280.935 85.0575 282.283C86.4622 283.63 88.3669 284.388 90.3535 284.389H321.363C323.349 284.388 325.254 283.63 326.659 282.283C328.063 280.935 328.853 279.108 328.855 277.202V127.658C328.85 125.754 328.059 123.929 326.655 122.583C325.25 121.238 323.347 120.481 321.363 120.479H90.3535C88.3687 120.481 86.4657 121.238 85.0615 122.583C83.6572 123.929 82.8661 125.754 82.8613 127.658Z" fill="#3F3D56"/>
<path d="M88.2812 129.517V275.356C88.2831 276.374 88.7055 277.35 89.456 278.07C90.2066 278.79 91.224 279.195 92.2854 279.197H319.44C320.501 279.195 321.519 278.79 322.269 278.07C323.02 277.35 323.442 276.374 323.444 275.356V129.517C323.444 128.498 323.023 127.52 322.272 126.798C321.521 126.077 320.503 125.67 319.44 125.668H92.2854C91.2227 125.67 90.2043 126.077 89.4537 126.798C88.703 127.52 88.2814 128.498 88.2812 129.517Z" fill="white"/>
<path d="M130.436 339.253C130.667 339.531 130.961 339.755 131.296 339.909C131.63 340.062 131.997 340.141 132.367 340.139H267.51C267.879 340.139 268.244 340.059 268.578 339.907C268.911 339.754 269.205 339.532 269.438 339.256C269.671 338.981 269.837 338.659 269.924 338.315C270.011 337.97 270.016 337.611 269.941 337.264L267.843 327.705C267.756 327.315 267.569 326.953 267.298 326.65C267.028 326.347 266.683 326.114 266.294 325.972C266.013 325.866 265.714 325.812 265.412 325.813H134.457C134.155 325.812 133.856 325.866 133.574 325.972C133.186 326.114 132.841 326.347 132.571 326.65C132.3 326.953 132.113 327.315 132.026 327.705L129.928 337.264C129.854 337.611 129.86 337.969 129.948 338.313C130.036 338.657 130.203 338.978 130.436 339.253Z" fill="#2F2E41"/>
<path d="M312.068 145.758H99.52C99.2991 145.754 99.0889 145.666 98.9344 145.515C98.7799 145.363 98.6934 145.16 98.6934 144.948C98.6934 144.736 98.7799 144.532 98.9344 144.38C99.0889 144.229 99.2991 144.141 99.52 144.137H312.068C312.289 144.141 312.499 144.229 312.653 144.38C312.808 144.532 312.895 144.736 312.895 144.948C312.895 145.16 312.808 145.363 312.653 145.515C312.499 145.666 312.289 145.754 312.068 145.758V145.758Z" fill="#3F3D56"/>
<path d="M113.989 139.997C116.724 139.997 118.942 137.822 118.942 135.139C118.942 132.456 116.724 130.281 113.989 130.281C111.253 130.281 109.035 132.456 109.035 135.139C109.035 137.822 111.253 139.997 113.989 139.997Z" fill="#3F3D56"/>
<path d="M131.1 139.997C133.836 139.997 136.054 137.822 136.054 135.139C136.054 132.456 133.836 130.281 131.1 130.281C128.364 130.281 126.146 132.456 126.146 135.139C126.146 137.822 128.364 139.997 131.1 139.997Z" fill="#3F3D56"/>
<path d="M148.213 139.997C150.949 139.997 153.167 137.822 153.167 135.139C153.167 132.456 150.949 130.281 148.213 130.281C145.478 130.281 143.26 132.456 143.26 135.139C143.26 137.822 145.478 139.997 148.213 139.997Z" fill="#3F3D56"/>
<path d="M301.764 131.482H289.61C289.369 131.488 289.141 131.583 288.973 131.748C288.805 131.913 288.711 132.134 288.711 132.365C288.711 132.595 288.805 132.817 288.973 132.982C289.141 133.147 289.369 133.242 289.61 133.247H301.764C302.005 133.244 302.236 133.15 302.406 132.984C302.575 132.819 302.671 132.597 302.671 132.365C302.671 132.133 302.575 131.91 302.406 131.745C302.236 131.58 302.005 131.486 301.764 131.482Z" fill="#3F3D56"/>
<path d="M301.763 134.797H289.609C289.368 134.802 289.139 134.897 288.971 135.062C288.803 135.227 288.709 135.449 288.709 135.679C288.709 135.91 288.803 136.132 288.971 136.297C289.139 136.461 289.368 136.557 289.609 136.562H301.763C302.005 136.559 302.236 136.465 302.406 136.3C302.576 136.134 302.672 135.912 302.672 135.679C302.672 135.447 302.576 135.224 302.406 135.059C302.236 134.894 302.005 134.8 301.763 134.797V134.797Z" fill="#3F3D56"/>
<path d="M301.764 138.111H289.61C289.369 138.117 289.141 138.212 288.973 138.377C288.805 138.542 288.711 138.763 288.711 138.994C288.711 139.224 288.805 139.446 288.973 139.611C289.141 139.776 289.369 139.871 289.61 139.876H301.764C302.005 139.873 302.236 139.779 302.406 139.613C302.575 139.448 302.671 139.226 302.671 138.994C302.671 138.762 302.575 138.539 302.406 138.374C302.236 138.209 302.005 138.115 301.764 138.111V138.111Z" fill="#3F3D56"/>
<path d="M577.394 352.26C577.761 353.284 578.457 354.171 579.381 354.792C580.306 355.414 581.412 355.738 582.541 355.719L604.595 355.174C605.732 355.153 606.832 354.779 607.729 354.109C608.626 353.439 609.274 352.508 609.574 351.455L612.695 319.442C613.802 319.923 615.007 320.161 616.222 320.137C617.278 320.112 618.319 319.887 619.284 319.476C620.249 319.065 621.121 318.476 621.849 317.741C622.576 317.007 623.146 316.143 623.526 315.197C623.906 314.252 624.087 313.244 624.061 312.231C624.034 311.218 623.8 310.22 623.372 309.294C622.943 308.368 622.329 307.532 621.563 306.833C620.798 306.135 619.897 305.588 618.911 305.224C617.925 304.86 616.875 304.686 615.819 304.711C615.333 304.71 614.848 304.758 614.373 304.856C613.857 304.319 613.229 303.893 612.53 303.604C611.831 303.314 611.077 303.169 610.316 303.176L576.393 304.016C576.111 304.026 575.831 304.06 575.556 304.116C574.812 304.249 574.106 304.533 573.487 304.95C572.867 305.367 572.347 305.906 571.963 306.531C571.579 307.156 571.338 307.854 571.258 308.575C571.178 309.297 571.26 310.027 571.499 310.716L577.394 352.26ZM613.335 317.268L615.555 309.64C615.808 308.758 615.814 307.829 615.572 306.945C615.68 306.944 615.775 306.895 615.883 306.895C617.405 306.865 618.878 307.415 619.979 308.425C621.079 309.435 621.717 310.823 621.753 312.283C621.789 313.744 621.219 315.159 620.169 316.217C619.119 317.275 617.675 317.891 616.152 317.929C615.168 317.959 614.194 317.73 613.335 317.268Z" fill="#2F2E41"/>
<path d="M575.557 304.115C576.279 308.079 584.405 310.866 594.175 310.382C603.16 309.985 610.506 306.958 611.852 303.371C611.354 303.23 610.836 303.164 610.317 303.175L576.393 304.015C576.112 304.025 575.832 304.059 575.557 304.115V304.115Z" fill="#3F3D56"/>
<path d="M595.966 334.668C596.011 334.657 596.053 334.639 596.092 334.615L600.881 331.608C600.939 331.572 600.987 331.522 601.02 331.464C601.052 331.406 601.07 331.34 601.07 331.274C601.07 331.208 601.053 331.143 601.02 331.084C600.987 331.026 600.939 330.976 600.881 330.94L595.903 327.812C595.858 327.783 595.806 327.763 595.753 327.753C595.699 327.743 595.644 327.744 595.59 327.754C595.536 327.765 595.485 327.786 595.44 327.815C595.395 327.845 595.356 327.882 595.326 327.926C595.296 327.97 595.275 328.02 595.265 328.071C595.255 328.123 595.255 328.176 595.267 328.227C595.278 328.279 595.3 328.328 595.331 328.371C595.362 328.414 595.401 328.451 595.447 328.48L599.893 331.273L595.636 333.947C595.554 333.999 595.493 334.077 595.465 334.167C595.437 334.258 595.443 334.355 595.483 334.442C595.522 334.528 595.593 334.598 595.681 334.64C595.77 334.681 595.871 334.691 595.966 334.668H595.966Z" fill="#6C63FF"/>
<path d="M588.4 335.003C588.481 334.984 588.553 334.942 588.608 334.882C588.664 334.823 588.699 334.749 588.711 334.67C588.722 334.592 588.708 334.511 588.672 334.44C588.635 334.369 588.577 334.309 588.505 334.27L584.091 331.842L588.358 328.801C588.401 328.77 588.438 328.731 588.466 328.686C588.495 328.641 588.513 328.591 588.521 328.539C588.529 328.487 588.526 328.435 588.513 328.384C588.5 328.333 588.476 328.285 588.443 328.243C588.411 328.201 588.37 328.166 588.323 328.139C588.276 328.112 588.224 328.094 588.17 328.086C588.116 328.079 588.061 328.081 588.008 328.094C587.955 328.107 587.905 328.13 587.861 328.161L583.084 331.565C583.029 331.604 582.984 331.656 582.955 331.716C582.926 331.777 582.913 331.843 582.917 331.909C582.921 331.975 582.942 332.039 582.978 332.095C583.015 332.152 583.065 332.199 583.125 332.231L588.091 334.962C588.185 335.014 588.296 335.029 588.4 335.003V335.003Z" fill="#6C63FF"/>
<path d="M595.489 337.304C595.529 337.295 595.568 337.279 595.603 337.258C595.65 337.231 595.691 337.195 595.723 337.153C595.755 337.11 595.778 337.062 595.791 337.011C595.804 336.96 595.807 336.908 595.798 336.856C595.79 336.804 595.771 336.754 595.743 336.709L588.953 326.002C588.896 325.911 588.803 325.847 588.696 325.822C588.589 325.797 588.476 325.814 588.381 325.869C588.287 325.924 588.22 326.013 588.193 326.115C588.167 326.218 588.185 326.327 588.242 326.417L595.031 337.125C595.078 337.198 595.147 337.255 595.229 337.287C595.312 337.319 595.403 337.325 595.489 337.304Z" fill="#6C63FF"/>
<path d="M231.19 189.84H194.403C192.902 189.84 191.686 191.007 191.686 192.447V195.894C191.686 197.334 192.902 198.501 194.403 198.501H231.19C232.691 198.501 233.907 197.334 233.907 195.894V192.447C233.907 191.007 232.691 189.84 231.19 189.84Z" fill="#297FB8"/>
<path d="M172.959 207.214H252.633C254.108 207.214 255.3 208.361 255.3 209.771V213.219C255.3 214.629 254.108 215.775 252.633 215.775H172.959C171.484 215.775 170.292 214.629 170.292 213.219V209.771C170.292 208.361 171.484 207.214 172.959 207.214Z" fill="#E6E6E6" stroke="black" stroke-width="0.1"/>
<path d="M172.959 224.536H252.633C254.108 224.536 255.3 225.683 255.3 227.093V230.541C255.3 231.951 254.108 233.098 252.633 233.098H172.959C171.484 233.098 170.292 231.951 170.292 230.541V227.093C170.292 225.683 171.484 224.536 172.959 224.536Z" fill="#E6E6E6" stroke="black" stroke-width="0.1"/>
<path d="M259.387 282.493L259.567 283.04L259.577 283.058L265.009 298.9L271.257 317.157L283.014 351.465L283.128 356.795V356.813L284.002 399.685L281.58 405.497L284.305 415.026C284.305 415.026 283.052 400.622 276.328 408.894C272.52 413.595 268.067 418.405 264.41 422.914C269.738 424.982 275.151 426.853 280.649 428.526C281.836 428.891 283.033 429.237 284.23 429.583C284.486 429.656 284.742 429.729 284.999 429.802C303.225 434.972 322.068 437.878 341.066 438.447C342.054 438.474 343.022 438.493 343.962 438.511C344.295 438.52 344.618 438.529 344.941 438.529C346.004 438.538 347.058 438.547 348.122 438.547C350.268 438.547 352.405 438.517 354.532 438.456C370.277 438.031 385.929 436 401.226 432.398C401.122 426.34 400.837 419.261 400.428 411.7C400.239 407.992 395.975 403.975 395.718 400.094C395.538 397.178 399.365 394.436 399.165 391.476C397.874 373.246 396.26 380.244 395.063 367.335C394.94 366.069 394.826 364.857 394.721 363.7C393.952 355.41 393.42 350.226 393.42 350.226L398.529 319.334L406.554 270.832L405.936 269.857L405.243 269.529L362.917 249.433L360.619 243.784C359.95 242.157 358.788 240.759 357.283 239.771C355.779 238.782 354 238.248 352.177 238.236L324.295 238.127C322.848 238.121 321.421 238.446 320.131 239.075C318.841 239.704 317.726 240.619 316.878 241.744L309.329 251.774L259.387 282.493Z" fill="#E7C822"/>
<path d="M289.443 343.829L283.128 356.793L278.817 365.648L271.4 402.899L267.687 406.68L264.506 393.296L231.209 400.388C230.117 394.567 230.916 400.585 230.242 394.199C230.432 394.017 230.632 393.835 230.831 393.652C231.363 393.179 231.809 392.732 231.8 392.304C231.42 370.276 232.559 332.788 242.075 310.077C243.565 306.369 245.53 302.852 247.925 299.609C248.115 299.363 248.295 299.117 248.475 298.871C252.863 292.977 255.636 287.174 259.567 283.047V283.038C259.592 283.019 259.614 282.998 259.634 282.974C259.648 282.967 259.661 282.958 259.672 282.947L286.68 269.209L287.838 300.438L288.665 322.885L289.443 343.829Z" fill="#E7C822"/>
<path d="M386.828 347.512L394.717 363.703L397.47 369.342L404.884 406.589L408.585 410.361L411.774 396.98L413.272 396.685L440.293 391.317L448.169 415.312C449.944 412.474 450.643 409.136 450.148 405.861C449.654 402.587 447.995 399.576 445.454 397.339C444.916 396.872 444.468 396.417 444.48 395.988C444.929 370.079 443.277 322.77 428.358 303.298C423.62 297.119 420.777 290.964 416.64 286.665C416.628 286.652 416.628 286.64 416.615 286.64L406.549 270.83L405.935 269.859L405.243 269.527L386.828 347.512Z" fill="#E7C822"/>
<path d="M339.04 230.513C359.526 230.513 376.134 214.582 376.134 194.93C376.134 175.277 359.526 159.346 339.04 159.346C318.554 159.346 301.947 175.277 301.947 194.93C301.947 214.582 318.554 230.513 339.04 230.513Z" fill="#FFB6B6"/>
<path d="M389.177 170.074C388.89 169.78 388.543 169.544 388.159 169.38C387.774 169.217 387.359 169.13 386.938 169.124L387.496 167.639C387.678 167.171 387.727 166.665 387.638 166.173C387.549 165.681 387.326 165.22 386.99 164.838C386.655 164.456 386.22 164.167 385.729 163.999C385.239 163.832 384.711 163.792 384.199 163.885L382.168 164.261L382.36 162.959C382.433 162.474 382.374 161.979 382.187 161.523C382.001 161.067 381.694 160.665 381.297 160.357C380.899 160.05 380.425 159.846 379.921 159.768C379.417 159.689 378.901 159.737 378.422 159.908C377.987 160.073 377.518 160.141 377.052 160.11C376.585 160.078 376.132 159.946 375.725 159.725C375.316 159.51 374.962 159.212 374.686 158.852C374.41 158.492 374.219 158.078 374.126 157.64L373.419 154.366L373.344 154.19C369.898 148.68 363.271 144.671 355.163 143.202C347.945 141.884 340.545 142.555 333.411 143.186C330.58 143.441 327.384 143.729 324.72 145.294C322.455 146.636 320.541 149.319 320.932 152.026C313.898 149.958 306.356 154.086 302.618 159.293C298.189 165.49 297.465 173.253 297.348 179.322C297.032 193.681 300.12 205.428 306.505 214.244C306.972 214.883 307.088 216.217 308.012 216.664L307.821 216.369C308.853 216.864 309.902 217.662 309.511 218.517C308.387 220.976 315.854 226.415 321.115 228.212C330.713 231.494 343.475 231.214 352.449 230.032L352.765 227.996C356.004 227.573 358.285 226.766 358.926 225.504C360.058 224.578 361.024 223.748 361.864 222.981L361.873 222.973C361.889 222.957 361.923 222.933 361.939 222.917C365.993 219.188 366.934 217.063 367.359 213.829C367.766 210.659 367.042 207.44 366.301 204.541C381.902 206.857 360.158 188.602 374.693 185.072C374.859 185.023 375.029 184.983 375.2 184.952C375.625 184.856 376.049 184.76 376.457 184.649C378.424 184.137 380.306 183.365 382.052 182.357C386.114 179.985 387.454 176.838 389.552 173.293C389.855 172.788 389.982 172.203 389.914 171.625C389.847 171.046 389.589 170.503 389.177 170.074V170.074Z" fill="#2F2E41"/>
<path d="M470.234 350.047C470.226 351.444 470.209 353.401 470.142 355.82C470.134 356.156 470.126 356.499 470.117 356.851C470.009 361.299 469.901 365.028 469.726 369.173C469.718 369.46 469.709 369.74 469.693 370.027C469.46 375.809 469.093 382.541 468.461 393.203C467.287 412.896 465.239 395.91 463.183 402.818C463.083 403.161 462.975 403.568 462.875 404.047C462.564 405.786 462.038 407.483 461.31 409.102C460.219 409.725 459.096 410.324 457.988 410.923C454.833 412.608 451.628 414.229 448.398 415.771C446.584 416.633 444.761 417.48 442.929 418.294C442.638 418.422 442.355 418.55 442.072 418.67C432.693 422.831 423.028 426.369 413.144 429.259C411.212 429.818 409.289 430.361 407.341 430.864C405.31 431.407 403.279 431.918 401.223 432.397C385.926 436 370.274 438.032 354.53 438.459C352.407 438.523 350.267 438.547 348.12 438.547C347.054 438.547 346.005 438.539 344.94 438.531C344.615 438.531 344.29 438.523 343.966 438.515C343.025 438.491 342.051 438.475 341.069 438.451C322.071 437.882 303.228 434.976 285.002 429.802L284.228 429.586C283.029 429.235 281.839 428.892 280.648 428.524C275.154 426.855 269.74 424.986 264.407 422.918C260.336 421.345 256.313 419.657 252.336 417.855C252.3 417.846 252.266 417.829 252.236 417.807C251.404 417.44 250.563 417.056 249.731 416.665C249.622 416.609 249.506 416.553 249.389 416.497C246.284 415.044 243.212 413.521 240.174 411.93C237.618 406.299 234.022 405.221 231.791 400.27C231.142 398.799 230.672 397.261 230.393 395.686C230.393 395.67 230.384 395.654 230.384 395.63C230.617 398.601 229.394 390.36 230.376 395.598C230.368 395.502 230.359 395.399 230.351 395.279C230.326 394.991 230.293 394.64 230.243 394.201C227.387 367.456 227.571 336.87 226.33 311.666C226.247 310.037 226.161 308.477 226.072 306.987C226.047 306.491 226.014 306.004 225.98 305.525C226.039 305.381 226.105 305.23 226.18 305.086C226.196 305.045 226.216 305.004 226.239 304.966C226.263 304.917 226.291 304.869 226.322 304.822C226.338 304.798 226.363 304.766 226.38 304.743C226.392 304.715 226.406 304.688 226.422 304.663C226.497 304.551 226.58 304.431 226.671 304.319C226.713 304.271 226.746 304.231 226.788 304.192C226.817 304.151 226.85 304.113 226.888 304.08C226.913 304.041 226.944 304.006 226.979 303.976C227.013 303.944 227.046 303.904 227.088 303.864C227.105 303.839 227.128 303.817 227.154 303.8C227.22 303.728 227.293 303.661 227.371 303.601C227.668 303.338 227.985 303.098 228.32 302.882C228.436 302.81 228.561 302.738 228.678 302.658C229.517 302.177 230.4 301.77 231.317 301.444C231.633 301.333 231.949 301.229 232.291 301.117C232.415 301.085 232.532 301.045 232.657 301.005C232.84 300.949 233.023 300.893 233.215 300.853C234.164 300.582 235.188 300.35 236.295 300.135C236.428 300.111 236.569 300.087 236.711 300.055C236.911 300.015 237.119 299.983 237.327 299.951C237.61 299.903 237.901 299.855 238.193 299.807C240.665 299.432 243.471 299.152 246.567 298.969C246.859 298.953 247.15 298.937 247.441 298.921C247.783 298.905 248.124 298.889 248.474 298.873C248.765 298.857 249.065 298.849 249.364 298.841C249.656 298.825 249.955 298.817 250.263 298.809C251.104 298.785 251.97 298.761 252.852 298.745C255.366 298.697 258.014 298.713 260.794 298.769C262.084 298.801 263.4 298.833 264.748 298.889C264.84 298.889 264.923 298.897 265.006 298.897C266.18 298.937 267.362 298.985 268.578 299.049C269.427 299.089 270.284 299.129 271.142 299.176C271.949 299.224 272.765 299.272 273.589 299.328C274.23 299.36 274.871 299.408 275.52 299.448C276.07 299.488 276.619 299.528 277.169 299.56L277.918 299.608C278.326 299.64 278.734 299.664 279.15 299.703C280.066 299.775 280.981 299.847 281.914 299.919C282.838 299.999 283.778 300.079 284.719 300.159C285.66 300.239 286.609 300.326 287.558 300.414C287.658 300.422 287.749 300.43 287.841 300.438C288.707 300.526 289.572 300.606 290.447 300.694C290.646 300.71 290.854 300.726 291.054 300.75C291.888 300.83 292.737 300.924 293.578 301.01C293.836 301.036 294.093 301.062 294.352 301.089C295.011 301.158 295.66 301.218 296.324 301.293C297.198 301.388 298.089 301.476 298.954 301.588C299.629 301.66 300.303 301.732 300.977 301.812C302.034 301.932 303.108 302.059 304.182 302.195C304.59 302.243 304.998 302.291 305.406 302.347C308.469 302.714 311.566 303.121 314.713 303.545C319.483 304.192 324.328 304.894 329.206 305.653C334.093 306.412 339.007 307.213 343.949 308.057C345.198 308.272 346.446 308.488 347.703 308.712C348.269 308.815 348.836 308.919 349.402 309.023C350.367 309.191 351.333 309.366 352.299 309.542C353.264 309.718 354.23 309.893 355.196 310.077C356.344 310.293 357.501 310.508 358.65 310.724C366.217 312.161 373.743 313.695 381.085 315.3C382.292 315.563 383.499 315.835 384.698 316.099C387.096 316.634 389.471 317.177 391.824 317.728C392.473 317.871 393.114 318.023 393.755 318.175C395.354 318.558 396.952 318.942 398.525 319.333L398.8 319.405C399.957 319.676 401.089 319.956 402.221 320.243C404.894 320.914 407.522 321.593 410.105 322.28C411.82 322.735 413.515 323.195 415.191 323.661C417.697 324.356 420.153 325.059 422.542 325.769C423.133 325.945 423.724 326.121 424.307 326.289C426.055 326.808 427.778 327.335 429.451 327.862C430.783 328.277 432.082 328.7 433.364 329.124C434.646 329.547 435.903 329.97 437.135 330.393C437.926 330.665 438.708 330.952 439.491 331.224C440.615 331.623 441.722 332.022 442.804 332.422C443.137 332.542 443.462 332.669 443.786 332.789C443.995 332.877 444.194 332.949 444.394 333.029C444.785 333.18 445.185 333.324 445.568 333.476C445.959 333.62 446.342 333.771 446.725 333.931C447.1 334.075 447.483 334.227 447.849 334.378C448.224 334.522 448.59 334.674 448.956 334.833C449.264 334.953 449.564 335.081 449.855 335.209C450.446 335.456 451.037 335.704 451.612 335.959C451.895 336.087 452.178 336.207 452.461 336.335L453.11 336.622C453.202 336.67 453.293 336.71 453.385 336.75C453.593 336.846 453.809 336.95 454.017 337.046C454.5 337.261 454.975 337.493 455.441 337.708C456.065 338.012 456.673 338.315 457.256 338.611C457.847 338.914 458.421 339.218 458.971 339.513C459.062 339.561 459.145 339.609 459.237 339.657C459.362 339.721 459.487 339.793 459.612 339.857C460.036 340.088 460.444 340.328 460.852 340.559C461.651 341.031 462.409 341.494 463.116 341.957C463.274 342.061 463.424 342.164 463.582 342.26C464.107 342.62 464.606 342.971 465.073 343.33C465.073 343.338 465.073 343.338 465.081 343.338C465.239 343.45 465.389 343.57 465.539 343.682C465.664 343.794 465.797 343.889 465.922 344.001C466.355 344.361 466.754 344.704 467.12 345.055C467.243 345.164 467.36 345.278 467.47 345.399C467.519 345.437 467.563 345.48 467.603 345.527C467.77 345.686 467.92 345.846 468.061 346.006C468.083 346.028 468.103 346.052 468.119 346.078C468.319 346.301 468.502 346.525 468.677 346.748C468.76 346.86 468.852 346.972 468.927 347.084C469.027 347.22 469.127 347.363 469.21 347.499C469.285 347.611 469.351 347.731 469.418 347.843C469.595 348.13 469.745 348.432 469.868 348.745C469.961 348.957 470.036 349.176 470.092 349.4C470.155 349.612 470.203 349.828 470.234 350.047V350.047Z" fill="#2F2E41"/>
<path opacity="0.2" d="M470.235 350.046C470.226 351.444 470.21 353.4 470.143 355.82C470.135 356.156 470.118 356.499 470.11 356.85C470.026 360.244 469.902 364.437 469.727 369.173C469.718 369.46 469.71 369.74 469.693 370.027C469.46 375.809 469.094 382.541 468.461 393.202C467.288 412.895 465.24 395.909 463.184 402.817C457.473 399.447 451.213 395.917 444.52 392.292C443.313 391.637 442.094 390.979 440.865 390.319C427.479 383.156 412.528 375.649 396.919 368.214C396.303 367.919 395.679 367.623 395.063 367.336C359.309 350.382 320.283 333.891 288.666 322.886C282.564 320.762 276.736 318.845 271.259 317.16C259.721 313.623 249.748 311.147 242.073 310.077C234.081 308.959 228.562 309.358 226.331 311.666C226.247 310.037 226.161 308.477 226.073 306.986C226.039 306.491 226.006 306.004 225.973 305.525C226.024 305.393 226.091 305.268 226.155 305.141C226.165 305.123 226.171 305.104 226.181 305.086C226.197 305.044 226.216 305.004 226.239 304.966C226.264 304.916 226.291 304.868 226.322 304.822C226.349 304.766 226.383 304.712 226.422 304.662C226.497 304.551 226.58 304.431 226.672 304.319C226.739 304.235 226.812 304.155 226.888 304.079C226.914 304.041 226.945 304.006 226.98 303.976C227.013 303.944 227.047 303.904 227.088 303.864C227.106 303.839 227.129 303.817 227.155 303.8C227.221 303.727 227.293 303.661 227.371 303.6C227.668 303.338 227.985 303.098 228.32 302.882C228.437 302.81 228.562 302.738 228.678 302.658C229.517 302.176 230.4 301.77 231.317 301.444C231.633 301.332 231.95 301.228 232.291 301.117C232.416 301.085 232.532 301.045 232.657 301.005C232.84 300.949 233.024 300.893 233.215 300.853C234.164 300.582 235.188 300.35 236.295 300.134C236.628 300.07 236.978 300.007 237.327 299.951C237.611 299.903 237.902 299.855 238.193 299.807C240.666 299.432 243.471 299.152 246.568 298.968C246.859 298.952 247.151 298.936 247.442 298.921C247.783 298.905 248.125 298.889 248.474 298.873C248.766 298.857 249.065 298.849 249.365 298.841C249.656 298.825 249.956 298.817 250.264 298.809C251.105 298.785 251.971 298.761 252.853 298.745C255.367 298.705 258.014 298.721 260.795 298.777C262.085 298.801 263.4 298.841 264.749 298.897C264.832 298.897 264.924 298.905 265.007 298.905C266.181 298.937 267.371 298.992 268.578 299.048C269.427 299.088 270.285 299.128 271.142 299.176C271.95 299.224 272.765 299.272 273.59 299.328C274.231 299.36 274.872 299.408 275.521 299.448C276.07 299.488 276.62 299.527 277.169 299.559C277.827 299.607 278.485 299.655 279.15 299.703C280.066 299.775 280.982 299.847 281.914 299.919C282.838 299.999 283.779 300.078 284.72 300.158C285.66 300.238 286.609 300.326 287.558 300.414C287.658 300.422 287.75 300.43 287.841 300.438C288.707 300.526 289.573 300.606 290.447 300.693C295.292 301.165 300.278 301.716 305.406 302.346C308.47 302.722 311.572 303.124 314.713 303.552C319.483 304.199 324.328 304.902 329.207 305.653C334.093 306.411 339.008 307.213 343.95 308.056C345.198 308.272 346.447 308.488 347.704 308.711C349.236 308.983 350.767 309.26 352.299 309.542C353.265 309.717 354.23 309.893 355.196 310.077C356.345 310.292 357.502 310.508 358.651 310.724C366.218 312.161 373.743 313.694 381.086 315.3C382.293 315.563 383.5 315.835 384.699 316.098C387.096 316.633 389.471 317.176 391.825 317.727C392.474 317.879 393.115 318.031 393.756 318.183C395.363 318.566 396.953 318.949 398.526 319.332V319.34C398.617 319.356 398.709 319.38 398.801 319.404C399.949 319.684 401.09 319.963 402.222 320.251C404.894 320.922 407.522 321.598 410.106 322.279C411.82 322.742 413.519 323.198 415.192 323.661C417.698 324.364 420.153 325.066 422.543 325.769C423.134 325.945 423.725 326.121 424.307 326.288C426.056 326.815 427.77 327.34 429.452 327.861C430.784 328.277 432.083 328.7 433.365 329.123C434.647 329.546 435.904 329.97 437.136 330.393C437.935 330.665 438.717 330.944 439.492 331.216C440.624 331.615 441.723 332.014 442.805 332.421C443.138 332.541 443.462 332.669 443.787 332.789C444.395 333.012 444.986 333.244 445.569 333.476C445.96 333.619 446.343 333.771 446.726 333.931C447.1 334.075 447.483 334.226 447.849 334.378C448.224 334.522 448.59 334.673 448.957 334.833C449.265 334.953 449.564 335.081 449.856 335.208C450.447 335.456 451.038 335.704 451.612 335.959C451.895 336.087 452.178 336.207 452.461 336.335L453.111 336.622C453.202 336.67 453.294 336.71 453.385 336.75C454.093 337.069 454.776 337.389 455.442 337.708C456.066 338.012 456.674 338.315 457.256 338.611C457.947 338.962 458.605 339.305 459.238 339.657C459.362 339.721 459.487 339.792 459.612 339.856C460.037 340.088 460.445 340.327 460.853 340.559C461.652 341.03 462.409 341.493 463.117 341.957C463.816 342.42 464.465 342.875 465.073 343.33C465.073 343.338 465.073 343.338 465.082 343.338C465.373 343.562 465.656 343.785 465.922 344.001C466.355 344.36 466.755 344.704 467.121 345.055C467.244 345.164 467.361 345.278 467.471 345.398C467.519 345.437 467.564 345.48 467.604 345.526C467.779 345.71 467.954 345.894 468.12 346.077C468.32 346.301 468.503 346.524 468.678 346.748C468.761 346.86 468.853 346.972 468.928 347.083C469.027 347.219 469.127 347.363 469.211 347.499C469.286 347.611 469.352 347.73 469.419 347.842C469.595 348.13 469.746 348.432 469.868 348.745C469.959 348.957 470.034 349.176 470.093 349.399C470.156 349.612 470.203 349.828 470.235 350.046V350.046Z" fill="black"/>
</g>
<defs>
<clipPath id="clip0_470_4850">
<rect width="655" height="457" fill="white"/>
</clipPath>
</defs>
</svg>
