<svg width="527" height="633" viewBox="0 0 527 633" fill="none" xmlns="http://www.w3.org/2000/svg">
<path fill-rule="evenodd" clip-rule="evenodd" d="M303.437 1.24311C266.794 7.70411 237.937 29.3441 232.085 54.7501C228.271 71.3111 233.997 89.9321 246.998 103.25L251.88 108.25L253.496 131.25C255.33 157.358 255.466 158.331 257.376 159.064C258.142 159.358 271.629 153.557 287.349 146.174L315.929 132.75H323.741C347.632 132.75 372.402 125.703 389.619 114.008C398.162 108.204 408.926 96.4201 412.689 88.7501C416.73 80.5151 417.945 75.1941 417.976 65.6051C418.066 37.3281 393.203 12.8491 354.5 3.11012C341.822 -0.0798831 316.245 -1.01589 303.437 1.24311ZM343.004 7.19512C373.507 11.7931 397.385 26.5871 407.572 47.1991C414.518 61.2531 413.194 77.7431 404.017 91.4871C389.652 112.998 357.715 126.707 321.884 126.742L314.267 126.75L287.884 139.165C272.549 146.382 261.405 151.093 261.274 150.415C261.003 149.024 258 109.475 258 107.306C258 106.477 256.367 104.325 254.371 102.524C248.512 97.2371 241.144 85.9571 238.985 78.9671C225.763 36.1571 281.233 -2.11688 343.004 7.19512ZM371.071 47.4611C366.372 49.9131 363.225 54.2971 364.599 56.4771C366.087 58.8351 367.616 59.1011 369.161 57.2691C372.534 53.2681 373.319 52.7501 376 52.7501C383.024 52.7501 384.032 59.3831 377.906 65.2971C373.362 69.6851 371.648 73.0661 372.542 75.8821C373.359 78.4561 376.68 78.2281 378.105 75.5001C378.751 74.2621 381.189 71.1881 383.524 68.6671C388.798 62.9711 389.817 59.0621 387.33 54.0601C383.863 47.0861 377.072 44.3291 371.071 47.4611ZM260.2 49.9501C258.434 51.7161 258.556 52.0691 263.951 60.7681L268.902 68.7501L263.824 76.9371C259.984 83.1291 258.986 85.5051 259.73 86.6871C261.809 89.9891 263.709 88.8521 268.013 81.7281L272.312 74.6141L274.04 77.4321C274.991 78.9821 276.952 82.1621 278.397 84.5001C281.156 88.9611 282.948 89.7221 284.968 87.2891C285.955 86.0991 285.22 84.2371 281.023 77.2891L275.866 68.7501L281.023 60.2111C285.22 53.2631 285.955 51.4011 284.968 50.2111C282.948 47.7781 281.156 48.5391 278.397 53.0001C276.952 55.3381 274.982 58.5331 274.019 60.1021L272.269 62.9541L268.445 56.6021C263.621 48.5861 262.482 47.6681 260.2 49.9501ZM312.667 49.4171C311.169 50.9141 312.239 54.0711 316.75 61.4651C321.353 69.0081 321.516 69.5451 322 78.7501C322.491 88.0831 322.544 88.2501 325 88.2501C327.466 88.2501 327.507 88.1161 328.003 78.2501C328.498 68.4121 328.583 68.1261 333.253 60.6231C338.4 52.3531 338.938 50.3241 336.253 49.2941C334.247 48.5241 332.031 50.8431 327.666 58.2821L324.831 63.1111L323.031 60.1811C322.041 58.5691 320.048 55.3381 318.603 53.0001C316.139 49.0161 314.224 47.8601 312.667 49.4171ZM296.667 63.4171C296.3 63.7831 296 65.5831 296 67.4171C296 70.5651 295.804 70.7501 292.469 70.7501C290.114 70.7501 288.727 71.2981 288.306 72.3951C287.542 74.3861 290.43 76.7501 293.628 76.7501C295.43 76.7501 295.935 77.3911 296.187 80.0001C296.618 84.4721 300.108 84.5801 301.411 80.1611C302.068 77.9351 303.185 76.8181 305.411 76.1611C309.83 74.8581 309.722 71.3681 305.25 70.9371C302.77 70.6971 302 70.1491 302 68.6211C302 64.4471 298.779 61.3041 296.667 63.4171ZM343.011 66.2371C342.332 67.0551 342.037 68.4051 342.357 69.2371C343.238 71.5331 359.525 71.4301 360.41 69.1231C361.617 65.9801 359.111 64.7501 351.5 64.7501C346.299 64.7501 343.895 65.1711 343.011 66.2371ZM343.011 77.2371C342.332 78.0551 342.037 79.4051 342.357 80.2371C343.238 82.5331 359.525 82.4301 360.41 80.1231C361.617 76.9801 359.111 75.7501 351.5 75.7501C346.299 75.7501 343.895 76.1711 343.011 77.2371ZM373.011 84.2371C371.229 86.3841 372.548 88.9531 375.235 88.5701C377.798 88.2051 378.873 84.9181 376.848 83.6351C374.974 82.4471 374.425 82.5331 373.011 84.2371ZM101.51 119.862C93.896 121.41 84.598 126.298 79.126 131.627C70.481 140.048 66 151.885 66 166.3C66 177.705 68.726 187.219 76.944 204.494C84.42 220.21 86.08 226.311 85.723 236.75L85.5 243.25L89.08 243.151C98.262 242.897 112.746 232.208 117.486 222.188C121.969 212.711 122.593 197.277 118.999 184.746C117.542 179.666 117.778 170.217 119.463 166.185C121.986 160.147 129.583 158.516 133.834 163.101C136.603 166.089 136.693 170.116 134.167 178.105C130.293 190.361 131.772 201.753 138.546 211.818C141.695 216.497 141.951 217.368 141.017 220.199C139.504 224.784 132.838 230.764 122 237.26C100.358 250.23 91.69 259.158 82.203 278.25C65.174 312.521 59.752 357.483 68.56 391.384C69.902 396.549 71 403.189 71 406.14C71 409.504 71.519 411.936 72.392 412.66C73.574 413.641 73.49 414.904 71.835 421.033C70.764 425.002 69.624 433.325 69.303 439.528C68.597 453.151 70.434 461.545 75.602 468.315L78.923 472.667L59.917 472.958C41.612 473.239 40.893 473.176 40.436 471.25C40.175 470.15 36.664 452.731 32.634 432.541L25.306 395.831L28.209 393.05C32.25 389.178 36.808 379.454 38.141 371.859C40.261 359.784 36.065 341.451 23.924 309.75C17.387 292.68 15.254 289.75 9.367 289.75C5.143 289.75 0 294.276 0 297.994C0 299.312 1.8 309.328 4 320.25C6.2 331.172 8 340.65 8 341.313C8 341.975 7.10499 342.751 6.01199 343.037C1.47599 344.223 1.64299 345.473 16.027 417.788C23.626 455.992 30.126 488.947 30.471 491.021C30.816 493.096 32.418 496.296 34.032 498.133L36.964 501.473L24.482 563.839C17.617 598.14 12 626.97 12 627.906C12 632.632 19.812 634.59 22.35 630.5C23.118 629.263 27.909 611.487 32.995 591L42.244 553.75H103.021H163.797L164.406 560.5C164.741 564.212 165.95 580.975 167.093 597.75C169.345 630.816 169.775 632.75 174.868 632.75C179.582 632.75 180.881 630.232 181.208 620.461L181.5 611.737L197.236 622.243L212.972 632.75H225.451C240.301 632.75 240.346 632.713 240.441 620.581C240.514 611.084 238.745 608.212 230.907 605.109C224.76 602.676 222.804 599.884 220.889 590.805C219.055 582.115 220.71 575.445 228.782 558.992L235.776 544.733L237.265 548.492C238.084 550.559 239.979 556.287 241.476 561.22C244.103 569.875 244.207 571.107 244.443 596.245C244.601 613.037 245.085 623.04 245.804 624.383C246.59 625.852 248.3 626.656 251.599 627.109C259.569 628.201 325.927 627.859 328.066 626.715C332.172 624.517 329.243 608.731 323.479 601.997C320.88 598.961 318.468 597.571 311.85 595.3C294.699 589.414 286.246 583.77 283.623 576.453C282.795 574.142 281.842 567.075 281.507 560.75C278.343 501.071 272.38 458.126 264.814 440.539C262.145 434.334 254.985 427.775 245.875 423.187C234.587 417.503 213.907 411.131 195.829 407.768C186.848 406.097 178.991 404.544 178.368 404.317C176.203 403.526 176.279 396.31 178.548 387.25C181.899 373.866 183.662 359.04 182.185 356.674C181.533 355.631 181 354.582 181 354.345C181 354.107 185.613 353.988 191.25 354.081C196.887 354.174 203.413 353.907 205.75 353.488C209.842 352.755 210 352.822 210 355.288C210 359.106 212.688 363.589 216.299 365.79C219.399 367.681 221.884 367.743 295.25 367.746L371 367.75V486.711V605.673L367.25 606.657C365.188 607.198 358.775 608.799 353 610.216C336.843 614.18 337.868 613.295 338.21 622.997L338.5 631.25H424.5H510.5L510.795 623.345C510.973 618.56 510.658 615.008 509.995 614.345C509.393 613.743 504.761 611.646 499.701 609.686L490.5 606.122L490.246 486.936L489.992 367.75H503.628C515.554 367.75 517.673 367.497 520.526 365.734C528.818 360.609 528.72 348.544 520.341 343.054C518.478 341.833 514.978 341.21 508.355 340.921L499 340.511V286.821V233.13L457.775 196.94L416.55 160.75H401.775C388.214 160.75 387 160.602 387 158.95C387 155.113 385.224 154.75 366.422 154.75C352.416 154.75 347.989 155.059 347.129 156.095C346.333 157.053 345.939 179.677 345.756 234.822L345.5 312.204L320 321.727L294.5 331.25L294.195 336L293.89 340.75H262.433H230.975L233.558 336.658C234.979 334.407 238.955 326.869 242.393 319.908C245.832 312.946 249.175 306.267 249.823 305.065C250.999 302.883 251.012 302.886 261.542 307.815C273.141 313.245 274.137 313.47 276.429 311.179C279.741 307.866 277.639 300.926 272.328 297.644C266.222 293.87 269.146 292.133 275.397 295.822C277.661 297.158 280.182 300.171 282.496 304.309C284.469 307.837 286.935 311.18 287.976 311.737C293.235 314.552 299.575 311.05 298.392 305.985C296.758 298.991 289.967 286.621 285.074 281.729C276.845 273.5 271.122 272.23 255.626 275.195C246.884 276.867 245.797 277.369 236.765 283.888C233.061 286.562 229.783 288.75 229.481 288.75C229.179 288.75 229.217 286.597 229.566 283.966C231.132 272.158 225.161 246.323 220 242.579C218.372 241.399 215.367 240.676 211.385 240.508L205.269 240.25L207.288 236.094C208.694 233.201 210.095 231.779 211.903 231.413C215.071 230.772 219.288 227.005 218.623 225.411C215.174 217.149 214.629 213.499 215.722 205.954C216.752 198.842 216.356 192.871 214.573 188.643C214.084 187.483 214.709 186.699 216.817 185.826C220.606 184.257 225.316 179.175 227.082 174.75C227.928 172.633 228.484 167.543 228.49 161.87C228.498 154.076 228.209 152.305 226.776 151.392C225.362 150.491 224.372 150.957 221.276 153.979C216.91 158.24 212.006 160.205 203.181 161.229C197.45 161.894 196.585 161.736 193.203 159.4C184.147 153.147 172.285 150.458 163.124 152.58C157.976 153.773 156.683 152.894 153.081 145.75C147.339 134.362 138.056 125.498 127.719 121.532C121.595 119.183 108.843 118.371 101.51 119.862ZM381 219.75V278.75H366.5H352V219.75V160.75H366.5H381V219.75ZM453.75 201.412L493 235.974V257.362V278.75H440H387V222.75V166.75L400.75 166.8L414.5 166.85L453.75 201.412ZM205.455 187.371C209.191 188.805 210.258 193.445 209.545 205.163C209.02 213.797 209.2 217.17 210.359 220.41C212.037 225.1 211.689 225.961 208.443 225.146C206.464 224.65 205.797 225.39 203.064 231.117C198.266 241.169 191.202 244.813 180.389 242.814C174.281 241.685 163.681 237.276 161.892 235.12C160.307 233.21 156.07 233.405 155.295 235.423C154.498 237.502 159.576 241.963 165.554 244.435L169.736 246.165L169.286 252.708C169.038 256.306 168.76 259.557 168.668 259.931C168.326 261.318 157.872 256.788 152.147 252.772C146.713 248.96 142.036 244.11 137.862 237.957C136.269 235.609 136.328 235.448 140.009 232.123C142.091 230.242 144.529 227.154 145.427 225.262C146.912 222.133 147.278 221.919 149.456 222.912C150.774 223.513 152.91 223.738 154.203 223.414C157.741 222.526 164.511 216.299 166.503 212.102C168.183 208.563 168.183 208.161 166.516 203.526C162.626 192.706 169.22 184.304 173.858 194.171C175.001 196.603 176.356 198.852 176.869 199.169C177.382 199.486 180.08 197.515 182.864 194.789C189.328 188.46 199.548 185.104 205.455 187.371ZM196.061 202.689C192.327 206.423 194.13 213.46 198.596 212.583C199.527 212.4 201.21 211.013 202.338 209.502C206.452 203.987 200.847 197.903 196.061 202.689ZM141.947 251.81C148.974 258.844 160.105 265.263 167.26 266.408C170.725 266.962 171.414 267.55 173.042 271.347C176.426 279.243 177.79 284.187 178.531 291.25L179.266 298.25L170.251 289.581C158.113 277.907 150 273.918 150 279.624C150 280.872 151.662 282.534 154.677 284.301C160.502 287.715 179.157 306.38 184.446 314.087C189.567 321.549 191.413 321.395 194.485 313.25C195.729 309.95 199.222 302.019 202.246 295.625L207.743 284L214.204 282.875C217.757 282.256 221.189 281.75 221.832 281.75C224.178 281.75 222.697 306.306 219.364 322.658C217.406 332.264 214.458 340.052 211.407 343.678C204.891 351.422 179.845 349.272 160 339.265C138.956 328.653 120.945 308.859 117.033 292.044C115.691 286.277 116.257 282.2 119.208 276.372C120.958 272.915 121.008 272.329 119.663 270.985C117.401 268.722 115.146 270.185 112.721 275.488C109.644 282.216 109.8 292.197 113.107 300.258C122.234 322.504 149.844 345.401 175.25 351.792C179.63 352.894 181.534 355.072 178.888 355.954C178.276 356.158 176.923 361.933 175.88 368.787C174.838 375.642 173.325 383.53 172.518 386.318L171.05 391.386L156.275 393.086C135.294 395.502 109.94 396.929 100 396.254C92.295 395.731 75.004 393.755 74.997 393.397C74.995 393.316 74.071 388.525 72.944 382.75C69.349 364.34 70.477 334.516 75.527 314.473C82.367 287.325 94.581 264.378 107.735 253.96C109.939 252.214 115.963 248.099 121.122 244.815L130.5 238.845L132.947 242.048C134.293 243.809 138.343 248.202 141.947 251.81ZM217.392 249C219.563 252.398 221.955 261.417 222.64 268.788L223.251 275.365L214.982 276.631L206.712 277.897L201.279 272.574C196.017 267.417 192.087 261.75 193.774 261.75C194.228 261.75 195.027 262.16 195.55 262.661C196.072 263.162 199.65 263.725 203.5 263.911L210.5 264.25L210.822 260.881C211.256 256.349 209.285 251.942 206.109 250.34C201.079 247.804 199.15 251.152 203.174 255.436L205.349 257.75H202.214C199.409 257.75 198.951 257.318 197.846 253.629C196.136 247.922 197.894 246.75 208.168 246.75C215.15 246.75 216.102 246.982 217.392 249ZM190.996 251.933C190.999 253.739 190.347 254.823 189 255.25C187.497 255.727 187 256.763 187 259.416C187 264.501 189.581 269.229 196.247 276.355L202.102 282.614L199.431 287.932C197.962 290.857 196.647 293.379 196.509 293.537C196.371 293.695 193.505 292.12 190.14 290.037C186.011 287.481 184.01 285.6 183.984 284.25C183.963 283.15 182.136 277.75 179.925 272.25C176.065 262.652 174.118 253.492 175.288 250.441C175.71 249.342 177.651 249.028 183.417 249.124C190.936 249.249 190.992 249.27 190.996 251.933ZM274.852 281.173C281.07 284.389 288.362 294.678 291.472 304.625C292.663 308.435 290.517 306.327 287.175 300.406C283.574 294.025 279.692 290.562 273.487 288.192C269.02 286.486 268.821 286.493 266.197 288.444C261.39 292.02 262.01 298.357 267.498 301.749C274.642 306.164 270.691 305.668 261.848 301.04L252.696 296.25L250.403 290.025C247.727 282.761 247.701 282.796 257 281.116C266.024 279.486 271.623 279.504 274.852 281.173ZM244.818 292.253L246.798 297.25L236.858 316.898C227.601 335.197 223.46 341.75 221.154 341.75C220.636 341.75 221.294 338.345 222.615 334.184C224.868 327.088 227.017 315.525 228.468 302.689C229.086 297.227 229.215 297.039 235.798 292.071C239.484 289.29 242.576 287.069 242.67 287.135C242.763 287.202 243.73 289.505 244.818 292.253ZM493 317.25V340.75H396.434H299.867L300.184 338.088C300.482 335.58 301.914 334.902 325 326.338C338.475 321.34 350.063 316.886 350.75 316.441C351.625 315.875 352 312.346 352 304.691V293.75H422.5H493V317.25ZM189.632 296.832C191.484 297.976 193 299.289 193 299.749C193 300.208 192.094 302.699 190.986 305.284L188.971 309.983L186.986 307.459C185.595 305.691 185 303.408 185 299.842C185 297.042 185.284 294.75 185.632 294.75C185.98 294.75 187.78 295.687 189.632 296.832ZM13.252 299.832C16.554 306.583 25.139 330.248 28.095 340.75C32.417 356.102 33.349 363.311 31.984 370.839C30.876 376.946 27.05 385.983 25.048 387.22C23.816 387.982 24.551 391.211 14.492 340.839C5.797 297.301 5.579 295.161 9.908 295.957C10.784 296.118 12.289 297.862 13.252 299.832ZM518.927 350.385C521.649 353.845 521.544 356.297 518.545 359.295L516.091 361.75H368.36H220.629L218.314 359.576C215.444 356.879 215.302 352.448 218 349.75C219.982 347.768 221.333 347.75 368.427 347.75H516.855L518.927 350.385ZM388 486.25V604.75H383H378V486.25V367.75H383H388V486.25ZM468 486.25V604.75H431H394V486.25V367.75H431H468V486.25ZM484 486.25V604.75H479H474V486.25V367.75H479H484V486.25ZM170.427 399.42C170.779 400.339 170.539 401.417 169.892 401.817C168.406 402.735 152.058 405.292 134.235 407.395C118.618 409.237 80.638 409.827 79.172 408.25C78.661 407.7 77.955 405.629 77.604 403.649L76.965 400.047L82.733 401.068C92.231 402.749 128.564 402.342 147 400.348C156.075 399.366 163.688 398.38 163.917 398.157C165.092 397.01 169.857 397.935 170.427 399.42ZM193.42 481.674C197.311 485.331 197.078 491.665 192.923 495.161L189.847 497.75H116.874C36.122 497.75 39.227 497.997 37.053 491.411C35.422 486.469 37.978 481.329 43 479.45C43.825 479.141 77.426 478.97 117.67 479.069L190.84 479.25L193.42 481.674ZM195.668 504C195.367 505.237 193.953 516.212 192.527 528.388C189.166 557.086 189.186 556.992 184.5 565.585L180.5 572.921L179.85 562.585C179.493 556.901 178.984 541.337 178.719 528L178.238 503.75L184.369 503.68C187.741 503.641 191.4 503.223 192.5 502.75C195.687 501.381 196.252 501.604 195.668 504ZM162.088 525.5L163.5 547.25L104.091 547.508C71.416 547.65 44.53 547.613 44.343 547.426C44.156 547.239 46.365 537.336 49.251 525.42L54.5 503.753L107.588 503.751L160.677 503.75L162.088 525.5ZM204.268 568.865C209.896 571.678 214.642 574.107 214.814 574.263C214.987 574.418 214.833 576.123 214.471 578.052C213.826 581.493 213.728 581.555 209.157 581.404C205.072 581.269 204.462 581.519 204.189 583.436C203.935 585.216 204.586 585.819 207.689 586.681C209.785 587.263 212.01 587.741 212.633 587.744C213.257 587.747 213.999 588.638 214.283 589.724C214.702 591.325 214.165 591.816 211.435 592.328C207.464 593.073 205.714 594.84 206.616 597.192C207.125 598.517 208.271 598.819 211.856 598.569C217.637 598.167 218.857 600.738 214.062 603.218C210.742 604.935 210.178 606.823 212.428 608.69C213.542 609.614 214.519 609.533 216.865 608.32C220.224 606.583 223.416 607.223 222.557 609.461C222.251 610.26 222 612.002 222 613.332C222 617.605 217.553 616.378 206.297 609L196 602.25L196.599 598.097C197.419 592.412 194.8 583.952 190.46 578.266L186.939 573.653L189.72 568.703C191.249 565.98 192.846 563.752 193.268 563.751C193.691 563.75 198.641 566.052 204.268 568.865ZM277.27 577.5C277.547 578.462 278.089 580.015 278.474 580.95C279.011 582.252 278.336 583.001 275.588 584.149C271.85 585.711 271.039 587.707 273.359 589.633C274.378 590.479 275.798 590.38 279.04 589.236C284.855 587.184 286.177 588.751 281.585 592.253C277.67 595.239 277.176 596.822 279.546 598.788C280.84 599.863 281.819 599.558 285.575 596.91C288.041 595.172 290.268 593.75 290.525 593.75C290.782 593.75 290.134 596.008 289.085 598.768C287.401 603.201 287.351 603.958 288.661 605.268C291.019 607.627 291.977 607.06 294.186 602C295.326 599.388 296.404 597.084 296.581 596.882C296.758 596.68 299.194 597.338 301.995 598.345L307.087 600.176L306.794 605.713L306.5 611.25L289 611.477L271.5 611.705L269.137 606.652C266.404 600.807 260.763 596.223 254.3 594.595C250.006 593.514 250 593.506 250.011 588.881C250.017 586.334 250.298 582.579 250.636 580.536L251.25 576.822L260.375 576.493C265.394 576.313 271.135 576.072 273.133 575.958C275.849 575.802 276.894 576.192 277.27 577.5ZM187.953 585.683C189.944 589.612 191.611 597.75 190.425 597.75C190.013 597.75 187.498 596.353 184.838 594.646C179.422 591.171 178.869 589.189 181.675 583.306C183.61 579.247 184.95 579.754 187.953 585.683ZM224.853 621.75C233.89 621.75 235.136 621.952 234.607 623.332C234.273 624.202 234 625.327 234 625.832C234 626.337 229.715 626.75 224.478 626.75H214.956L198.228 615.61C189.028 609.482 181.451 604.42 181.391 604.36C181.331 604.299 180.982 603.001 180.615 601.474C180.007 598.939 181.443 599.696 197.22 610.224L214.491 621.75H224.853ZM257.497 602.659C259.145 603.594 261.54 605.909 262.82 607.804L265.147 611.25L258.455 611.548C254.775 611.712 251.648 611.712 251.507 611.548C251.366 611.384 250.931 608.62 250.542 605.406C249.84 599.621 249.856 599.569 252.166 600.261C253.45 600.645 255.848 601.724 257.497 602.659ZM317.163 604C318.957 605.452 322 609.838 322 610.973C322 611.4 319.975 611.75 317.5 611.75H313V607.25C313 602.528 314.193 601.597 317.163 604ZM232.171 612.405C234.783 614.769 234.44 615.75 231 615.75C228.758 615.75 228 615.287 228 613.917C228 610.518 229.49 609.978 232.171 612.405ZM494.75 614.437L505 618.167V621.958V625.75H424.5H344V622.269C344 619.307 344.41 618.685 346.75 618.093C348.263 617.711 355.125 615.944 362 614.165L374.5 610.932L429.5 610.819L484.5 610.707L494.75 614.437ZM324 619.25C324 620.556 319.278 620.75 287.5 620.75C255.722 620.75 251 620.556 251 619.25C251 617.944 255.722 617.75 287.5 617.75C319.278 617.75 324 617.944 324 619.25Z" fill="#2D3E50"/>
</svg>
