<svg width="624" height="574" viewBox="0 0 624 574" fill="none" xmlns="http://www.w3.org/2000/svg">
<g opacity="0.7">
<path opacity="0.7" d="M588.191 266.649L265.471 454.199L0.550781 301.249L323.281 113.699L588.191 266.649Z" fill="#B0F2F7"/>
</g>
<g opacity="0.5">
<path opacity="0.5" d="M565.1 312.01L267.74 484.81L23.6602 343.89L321.01 171.09L565.1 312.01Z" fill="#B0F2F7"/>
</g>
<g opacity="0.2">
<path opacity="0.2" d="M532.731 356.82L270.751 509.06L55.7012 384.9L317.681 232.66L532.731 356.82Z" fill="#B0F2F7"/>
</g>
<g opacity="0.58">
<path opacity="0.58" d="M105.691 530.771L53.5415 561.081L8.85156 535.281L61.0015 504.971L105.691 530.771Z" fill="#B0F2F7"/>
</g>
<g opacity="0.58">
<path opacity="0.58" d="M613.392 470.36L580.651 489.39L552.602 473.19L585.341 454.16L613.392 470.36Z" fill="#B0F2F7"/>
</g>
<g opacity="0.58">
<path opacity="0.58" d="M623.431 453.17L585.661 475.12L553.291 456.43L591.061 434.48L623.431 453.17Z" fill="#B0F2F7"/>
</g>
<g opacity="0.58">
<path opacity="0.58" d="M71.8411 560.029L49.291 573.129L29.9609 561.979L52.511 548.869L71.8411 560.029Z" fill="#B0F2F7"/>
</g>
<g opacity="0.58">
<path opacity="0.58" d="M257.771 556.84L230.991 572.41L208.031 559.16L234.811 543.59L257.771 556.84Z" fill="#B0F2F7"/>
</g>
<g opacity="0.58">
<path opacity="0.58" d="M261.32 539.541L227.48 559.201L198.49 542.461L232.32 522.801L261.32 539.541Z" fill="#B0F2F7"/>
</g>
<g opacity="0.58">
<path opacity="0.58" d="M537.771 183.84L510.981 199.41L488.031 186.16L514.821 170.59L537.771 183.84Z" fill="#B0F2F7"/>
</g>
<g opacity="0.58">
<path opacity="0.58" d="M541.31 166.541L507.48 186.201L478.49 169.461L512.32 149.801L541.31 166.541Z" fill="#B0F2F7"/>
</g>
<g opacity="0.58">
<path opacity="0.58" d="M451.53 531.409L414.88 552.709L383.471 534.579L420.121 513.279L451.53 531.409Z" fill="#B0F2F7"/>
</g>
<g opacity="0.58">
<path opacity="0.58" d="M453.01 512.13L417.07 533.021L382.15 512.87L418.09 491.98L453.01 512.13Z" fill="#B0F2F7"/>
</g>
<g opacity="0.58">
<path opacity="0.58" d="M126.171 528.85L87.4114 551.37L54.1914 532.19L92.9514 509.67L126.171 528.85Z" fill="#B0F2F7"/>
</g>
<g opacity="0.76">
<path opacity="0.76" d="M165.172 167.81L136.952 184.21L112.762 170.24L140.982 153.84L165.172 167.81Z" fill="#B0F2F7"/>
</g>
<g opacity="0.58">
<path opacity="0.58" d="M156.251 182.759L135.271 194.949L117.301 184.569L138.271 172.379L156.251 182.759Z" fill="#B0F2F7"/>
</g>
<path d="M576.691 110.67L583.892 126.7" stroke="white" stroke-width="3" stroke-miterlimit="10" stroke-linecap="round"/>
<path d="M571.932 122.439L588.211 115.129" stroke="white" stroke-width="3" stroke-miterlimit="10" stroke-linecap="round"/>
<path d="M555.5 104.02L558.85 111.46" stroke="white" stroke-width="2" stroke-miterlimit="10" stroke-linecap="round"/>
<path d="M553.291 109.49L560.851 106.09" stroke="white" stroke-width="2" stroke-miterlimit="10" stroke-linecap="round"/>
<path d="M558.701 127.48L561.631 134.01" stroke="white" stroke-width="2" stroke-miterlimit="10" stroke-linecap="round"/>
<path d="M556.75 132.281L563.39 129.301" stroke="white" stroke-width="2" stroke-miterlimit="10" stroke-linecap="round"/>
<path d="M28.4512 189.99L10.9512 188.35" stroke="white" stroke-width="3" stroke-miterlimit="10" stroke-linecap="round"/>
<path d="M20.5508 180.039L18.8906 197.819" stroke="white" stroke-width="3" stroke-miterlimit="10" stroke-linecap="round"/>
<path d="M44.6804 174.83L36.5605 174.07" stroke="white" stroke-width="2" stroke-miterlimit="10" stroke-linecap="round"/>
<path d="M41.0203 170.209L40.2402 178.469" stroke="white" stroke-width="2" stroke-miterlimit="10" stroke-linecap="round"/>
<path d="M22.6902 166.049L15.5703 165.379" stroke="white" stroke-width="2" stroke-miterlimit="10" stroke-linecap="round"/>
<path d="M19.4807 161.99L18.8008 169.23" stroke="white" stroke-width="2" stroke-miterlimit="10" stroke-linecap="round"/>
<g opacity="0.46">
<path opacity="0.46" d="M457.111 67.6693C458.746 68.7358 460.105 70.1727 461.08 71.8633C462.055 73.5539 462.617 75.4506 462.722 77.3993L462.222 253.029C462.222 256.609 459.681 258.029 456.571 256.259L375.892 209.679C374.256 208.615 372.894 207.178 371.919 205.487C370.944 203.796 370.383 201.899 370.281 199.949L370.781 24.3093C370.781 20.7293 373.322 19.3093 376.432 21.0993L457.111 67.6693Z" fill="#AEF1F5"/>
</g>
<path d="M434.172 267.129L448.272 258.939C448.272 259.039 448.272 259.139 448.272 259.239L434.182 267.429V267.129" fill="#A3CCCE"/>
<path d="M434.171 267.43L448.261 259.24C448.252 259.611 448.206 259.979 448.122 260.34L434.021 268.53C434.105 268.169 434.155 267.801 434.171 267.43Z" fill="#A0CACC"/>
<path d="M434.001 268.53L448.102 260.34C448.019 260.69 447.887 261.026 447.711 261.34L433.611 269.54C433.789 269.209 433.92 268.856 434.001 268.49" fill="#9CC8C9"/>
<path d="M433.631 269.579L447.731 261.379C447.482 261.865 447.101 262.27 446.631 262.549L432.531 270.749C432.997 270.466 433.378 270.062 433.631 269.579Z" fill="#98C6C7"/>
<path d="M344.371 34.7997L358.461 26.6097C358.859 26.396 359.297 26.2662 359.748 26.2284C360.199 26.1906 360.652 26.2455 361.081 26.3897L346.981 34.5797C346.554 34.438 346.102 34.3845 345.653 34.4223C345.205 34.4601 344.769 34.5885 344.371 34.7997Z" fill="#98C6C7"/>
<path d="M347 34.5806L361.1 26.3906C361.501 26.5128 361.889 26.6736 362.26 26.8706L348.16 35.0606C347.791 34.8618 347.402 34.701 347 34.5806Z" fill="#9CC8C9"/>
<path d="M348.141 35.0591L362.241 26.8691L362.48 26.9991L348.38 35.1891L348.141 35.0591Z" fill="#A0CACC"/>
<path d="M434.67 91.4888L448.76 83.2988L448.27 258.939L434.17 267.129L434.67 91.4888Z" fill="#ACD1D3"/>
<path d="M348.381 35.19L362.471 27L443.151 73.58L429.061 81.77L348.381 35.19Z" fill="#A8CFD1"/>
<path d="M429.061 81.7701L443.15 73.5801C443.43 73.7401 443.701 73.9201 443.971 74.1101L429.871 82.3101C429.61 82.1164 429.34 81.9361 429.061 81.7701Z" fill="#A0CACC"/>
<path d="M429.871 82.3094L443.971 74.1094C444.323 74.3883 444.657 74.6889 444.971 75.0094L430.871 83.1994C430.561 82.8772 430.227 82.5796 429.871 82.3094Z" fill="#A3CCCE"/>
<path d="M430.911 83.2L445 75C445.451 75.4498 445.868 75.931 446.25 76.44L432.15 84.63C431.774 84.1163 431.356 83.6347 430.9 83.19" fill="#A7CED0"/>
<path d="M432.16 84.6392L446.26 76.4492C447.183 77.69 447.887 79.0802 448.34 80.5592L434.25 88.7592C433.8 87.2741 433.093 85.8796 432.16 84.6392Z" fill="#AAD0D2"/>
<path d="M434.25 88.7606L448.34 80.5605C448.514 81.1321 448.638 81.7176 448.71 82.3105L434.61 90.5005C434.542 89.911 434.421 89.3287 434.25 88.7606Z" fill="#A7CED0"/>
<path d="M434.609 90.5005L448.709 82.3105C448.749 82.6424 448.769 82.9763 448.77 83.3105L434.669 91.5005C434.669 91.1663 434.649 90.8324 434.609 90.5005Z" fill="#A3CCCE"/>
<path d="M429.061 81.7705C430.695 82.8342 432.055 84.2691 433.03 85.9583C434.005 87.6474 434.567 89.5429 434.67 91.4905L434.17 267.13C434.17 270.71 431.631 272.13 428.521 270.35L347.851 223.78C346.213 222.717 344.85 221.281 343.873 219.59C342.896 217.899 342.333 216.001 342.23 214.05L342.73 38.4105C342.73 34.8305 345.27 33.4105 348.38 35.1905L429.061 81.7705Z" fill="#E7F2F6"/>
<path d="M424.611 94.829C425.959 95.7018 427.079 96.8824 427.881 98.2733C428.682 99.6642 429.142 101.226 429.222 102.829L428.781 257.999C428.781 260.939 426.702 262.119 424.142 260.649L350.392 218.059C349.045 217.186 347.924 216.005 347.123 214.614C346.322 213.223 345.862 211.662 345.781 210.059L346.222 54.829C346.222 51.899 348.311 50.7091 350.861 52.1791L424.611 94.829Z" fill="#55AAD8"/>
<path d="M498.82 73.4994L509.39 67.3594L509.32 67.4094L498.75 73.5494L498.82 73.4994Z" fill="#8C375C"/>
<path d="M504.94 68.0892L515.51 61.9492L509.391 67.3592L498.82 73.4992L504.94 68.0892Z" fill="#893659"/>
<path d="M472.93 7.08988L483.5 0.939883C483.925 0.736807 484.397 0.651931 484.867 0.694155C485.337 0.736379 485.787 0.90414 486.169 1.17987L475.6 7.31989C475.216 7.04575 474.766 6.87976 474.296 6.8393C473.826 6.79883 473.354 6.88538 472.93 7.08988Z" fill="#8C375C"/>
<path d="M523.391 73.9994L533.96 67.8594V67.9394L523.391 74.0894V73.9994Z" fill="#91395F"/>
<path d="M523.391 74.0699L533.96 67.9199C534.001 68.4408 533.907 68.9632 533.688 69.4376C533.47 69.912 533.133 70.3225 532.71 70.6299L522.141 76.7699C522.561 76.4634 522.897 76.0545 523.116 75.5821C523.334 75.1096 523.429 74.5891 523.391 74.0699Z" fill="#8C375C"/>
<path d="M523.771 40.2203L534.34 34.0703L533.96 67.8403L523.391 73.9803L523.771 40.2203Z" fill="#953B62"/>
<path d="M475.59 7.3197L486.16 1.17969L530.48 26.9397L519.91 33.0797L475.59 7.3197Z" fill="#913A5F"/>
<path d="M519.92 33.0794L530.49 26.9395C530.945 27.2175 531.362 27.5537 531.73 27.9395L521.16 34.0894C520.791 33.7043 520.374 33.3682 519.92 33.0894" fill="#8C375C"/>
<path d="M521.16 34.0602L531.73 27.9102C533.339 29.5654 534.27 31.7629 534.34 34.0702L523.77 40.2202C523.702 37.9125 522.771 35.7143 521.16 34.0602Z" fill="#91395F"/>
<path d="M475.6 7.32075L519.92 33.0807C521.082 33.8801 522.038 34.9445 522.707 36.186C523.376 37.4275 523.741 38.8105 523.77 40.2207L523.39 73.9808C523.39 76.6408 521.61 77.7807 519.47 76.5407L504.94 68.0907L498.82 73.5007C498.719 73.577 498.597 73.6182 498.47 73.6182C498.344 73.6182 498.221 73.577 498.12 73.5007C497.828 73.3141 497.593 73.0513 497.44 72.7407L490.85 59.9007L475.35 50.9007C474.194 50.1041 473.241 49.046 472.571 47.8124C471.9 46.5788 471.53 45.2043 471.49 43.8007L471.68 9.92075C471.69 7.23075 473.45 6.08075 475.6 7.32075Z" fill="#F862A3"/>
<path d="M501.28 32.2402L503.141 33.3102L490.42 51.5703L488.561 50.5002L501.28 32.2402Z" fill="#FEFEFE"/>
<path d="M503.001 43.4793C506.001 45.2193 508.001 49.0093 507.951 53.7293C507.951 58.9393 505.541 60.1493 502.791 58.5593C500.041 56.9693 497.791 53.1992 497.791 48.2392C497.791 43.2792 500.161 41.8293 503.001 43.4793ZM502.871 56.5792C504.781 57.6892 505.651 55.8292 505.661 52.5792C505.661 49.5792 504.921 46.5792 502.901 45.4592C501.081 44.4092 500.081 46.3092 500.071 49.4592C500.061 52.6092 501.071 55.6093 502.871 56.6393" fill="#FEFEFE"/>
<path d="M494 35.4105C494 40.6205 491.6 41.8305 488.82 40.2205C486.04 38.6105 483.82 34.8705 483.82 29.8705C483.82 24.8705 486.191 23.5005 489.041 25.1505C492.001 26.8905 494 30.7005 494 35.4105ZM486.121 31.0905C486.051 34.2105 487.071 37.2005 488.891 38.2505C490.711 39.3005 491.68 37.5005 491.69 34.2505C491.69 31.2505 490.94 28.3105 488.92 27.1405C487.1 26.0905 486.131 28.0105 486.121 31.1405" fill="#FEFEFE"/>
<path d="M424.621 120.111L433.081 115.201H433.021L424.561 120.121L424.621 120.071" fill="#8C375C"/>
<path d="M429.419 115.861L437.879 110.951L433.069 115.201L424.609 120.111L429.419 115.861Z" fill="#893659"/>
<path d="M404.289 68.0005L412.749 63.0805C413.081 62.9154 413.452 62.8458 413.821 62.8793C414.19 62.9129 414.542 63.0483 414.839 63.2705L406.389 68.1805C406.087 67.9661 405.732 67.8364 405.363 67.8048C404.994 67.7731 404.623 67.8407 404.289 68.0005Z" fill="#8C375C"/>
<path d="M443.911 120.49L452.36 115.58V115.64L443.9 120.56V120.49" fill="#91395F"/>
<path d="M443.9 120.561L452.36 115.641C452.391 116.05 452.315 116.461 452.14 116.832C451.964 117.204 451.696 117.524 451.36 117.761L442.9 122.681C443.236 122.444 443.504 122.124 443.68 121.752C443.855 121.381 443.931 120.97 443.9 120.561Z" fill="#8C375C"/>
<path d="M444.201 93.9803L452.661 89.0703L452.36 115.58L443.9 120.49L444.201 93.9803Z" fill="#953B62"/>
<path d="M406.379 68.17L414.839 63.25L449.629 83.47L441.169 88.38L406.379 68.17Z" fill="#913A5F"/>
<path d="M441.18 88.3807L449.63 83.4707C449.996 83.6781 450.332 83.9337 450.63 84.2307L442.17 89.1507C441.873 88.8495 441.537 88.5904 441.17 88.3807" fill="#8C375C"/>
<path d="M442.15 89.1505L450.61 84.2305C451.874 85.5311 452.606 87.2577 452.661 89.0705L444.21 93.9805C444.151 92.1696 443.416 90.4465 442.15 89.1505Z" fill="#91395F"/>
<path d="M406.39 68.1599L441.18 88.3799C442.086 89.0106 442.831 89.8467 443.352 90.82C443.873 91.7932 444.157 92.876 444.18 93.9799L443.88 120.49C443.88 122.57 442.48 123.49 440.8 122.49L429.39 115.86L424.59 120.11C424.511 120.171 424.414 120.204 424.315 120.204C424.215 120.204 424.119 120.171 424.04 120.11C423.807 119.965 423.62 119.757 423.5 119.51L418.33 109.44L406.16 102.36C405.258 101.732 404.516 100.901 403.995 99.9332C403.473 98.9655 403.188 97.8887 403.16 96.7899L403.31 70.1899C403.32 68.0899 404.7 67.1799 406.39 68.1599Z" fill="#F862A3"/>
<path d="M420.9 90.1589C420.9 94.2489 419.021 95.1589 416.831 93.9389C414.641 92.7189 412.91 89.7389 412.9 85.7989C412.89 81.8589 414.761 80.7989 416.991 82.0989C419.221 83.3989 420.91 86.4589 420.9 90.1589ZM414.721 86.7689C414.661 89.2189 415.461 91.5589 416.891 92.3789C418.321 93.1989 419.081 91.799 419.081 89.229C419.081 86.869 418.501 84.549 416.911 83.639C415.481 82.809 414.721 84.3189 414.721 86.7689Z" fill="#FEFEFE"/>
<path d="M426.63 87.6699L428.09 88.5099L418.101 102.85L416.65 102.01L426.63 87.6699Z" fill="#FEFEFE"/>
<path d="M428.001 96.4898C430.361 97.8598 431.901 100.84 431.891 104.54C431.891 108.63 430 109.54 427.84 108.34C425.68 107.14 423.921 104.13 423.901 100.23C423.881 96.3298 425.761 95.1998 428.001 96.4898ZM427.891 106.79C429.401 107.66 430.08 106.19 430.09 103.62C430.09 101.26 429.501 98.9498 427.921 98.0398C426.341 97.1298 425.701 98.6998 425.701 101.15C425.701 103.6 426.491 105.98 427.891 106.79Z" fill="#FEFEFE"/>
<path d="M408.001 215.779C409.71 216.888 411.132 218.386 412.151 220.15C413.169 221.915 413.755 223.895 413.861 225.929V234.429C413.861 238.159 411.211 239.659 407.961 237.789L361.961 211.219C360.254 210.109 358.833 208.611 357.814 206.847C356.796 205.083 356.209 203.103 356.102 201.069V192.569C356.102 188.839 358.751 187.329 362.001 189.209L408.001 215.779Z" fill="#E0C221"/>
<path d="M379.14 206.84C379.181 207.168 379.123 207.5 378.973 207.794C378.823 208.088 378.589 208.331 378.3 208.49C378.808 209.269 379.095 210.171 379.13 211.1V211.72C379.165 212.026 379.115 212.337 378.987 212.617C378.858 212.897 378.655 213.137 378.4 213.31C378.124 213.444 377.816 213.5 377.511 213.47C377.205 213.44 376.914 213.326 376.67 213.14L372.91 210.97V199.83L376.66 201.99C377.375 202.456 377.969 203.086 378.393 203.826C378.817 204.567 379.06 205.398 379.1 206.25L379.14 206.84ZM377.88 206.09V205.52C377.867 205.089 377.743 204.669 377.52 204.3C377.317 203.922 377.016 203.604 376.65 203.38L374.16 201.94V205.36L376.65 206.8C376.774 206.891 376.921 206.946 377.074 206.96C377.227 206.975 377.381 206.947 377.52 206.88C377.647 206.794 377.748 206.675 377.812 206.536C377.875 206.396 377.899 206.242 377.88 206.09ZM377.88 210.99V210.41C377.873 209.983 377.752 209.565 377.53 209.2C377.329 208.82 377.029 208.501 376.66 208.28L374.18 206.85V210.27L376.66 211.7C376.783 211.789 376.928 211.843 377.079 211.857C377.23 211.872 377.383 211.845 377.52 211.78C377.65 211.697 377.753 211.578 377.819 211.438C377.884 211.299 377.909 211.143 377.89 210.99" fill="#F7F7F7"/>
<path d="M387.59 211.32C387.772 211.436 387.92 211.598 388.02 211.79C388.133 211.974 388.195 212.184 388.2 212.4V219.08C388.209 219.155 388.197 219.232 388.165 219.3C388.133 219.369 388.083 219.428 388.02 219.47C387.955 219.509 387.881 219.529 387.805 219.529C387.729 219.529 387.655 219.509 387.59 219.47C387.41 219.355 387.26 219.199 387.152 219.014C387.044 218.83 386.982 218.623 386.97 218.41V217.86L385.91 218.05C385.467 218.101 385.02 218.002 384.64 217.77L384.07 217.44C383.528 217.112 383.083 216.646 382.78 216.09C382.441 215.548 382.245 214.928 382.21 214.29L382.05 208.87C382.033 208.796 382.04 208.72 382.069 208.65C382.097 208.58 382.147 208.521 382.21 208.48C382.278 208.439 382.356 208.418 382.435 208.418C382.514 208.418 382.592 208.439 382.66 208.48C382.841 208.59 382.986 208.75 383.08 208.94C383.196 209.119 383.261 209.327 383.27 209.54L383.42 214.84C383.423 215.088 383.495 215.33 383.628 215.54C383.76 215.75 383.947 215.92 384.17 216.03L384.92 216.46L386.98 216.14V211.68C386.972 211.603 386.985 211.526 387.016 211.456C387.048 211.386 387.098 211.325 387.16 211.28C387.229 211.247 387.305 211.233 387.38 211.24C387.456 211.247 387.528 211.275 387.59 211.32Z" fill="#F7F7F7"/>
<path d="M396.602 216.52C396.781 216.64 396.928 216.801 397.031 216.99C397.142 217.168 397.205 217.371 397.211 217.58V219L393.881 225.68C393.761 225.92 393.571 225.96 393.291 225.8L391.591 224.8C391.41 224.692 391.262 224.536 391.162 224.35C391.049 224.166 390.986 223.956 390.981 223.74C390.972 223.665 390.984 223.589 391.016 223.52C391.048 223.451 391.098 223.392 391.162 223.35C391.228 223.311 391.304 223.29 391.381 223.29C391.459 223.29 391.535 223.311 391.602 223.35L392.912 224.11L393.761 222.36L393.461 222.18C393.159 221.99 392.943 221.688 392.861 221.34L391.031 215.34V214C391.02 213.925 391.031 213.848 391.063 213.778C391.095 213.709 391.147 213.651 391.211 213.61C391.275 213.571 391.347 213.551 391.421 213.551C391.496 213.551 391.568 213.571 391.631 213.61C391.814 213.725 391.965 213.883 392.071 214.07C392.183 214.255 392.245 214.465 392.251 214.68V215.68L393.852 220.91L394.271 221.15L395.952 217.83V216.76C395.946 216.684 395.96 216.608 395.994 216.54C396.027 216.471 396.078 216.413 396.142 216.37C396.224 216.345 396.313 216.346 396.395 216.372C396.477 216.399 396.55 216.451 396.602 216.52Z" fill="#F7F7F7"/>
<path d="M400 73.2294C400.39 73.4813 400.715 73.822 400.948 74.2235C401.181 74.625 401.315 75.0759 401.34 75.5394C401.34 76.3894 400.741 76.7294 399.991 76.3094L374.991 61.8894C374.599 61.6371 374.273 61.295 374.04 60.8915C373.807 60.488 373.673 60.0348 373.65 59.5694C373.65 58.7194 374.25 58.3694 375 58.7994L400 73.2294Z" fill="#5F5A60"/>
<path d="M369 55.3695C369.414 55.6364 369.758 55.9976 370.005 56.4235C370.252 56.8495 370.394 57.3279 370.42 57.8195C370.42 58.7195 369.78 59.0895 368.99 58.6295C368.579 58.3604 368.238 57.9984 367.993 57.5728C367.748 57.1471 367.606 56.6699 367.58 56.1795C367.58 55.2795 368.22 54.9195 369 55.3695Z" fill="#5F5A60"/>
<path d="M404.9 108.72C405.272 108.935 405.609 109.204 405.9 109.52L410.9 114.6C411.573 115.294 412.103 116.113 412.46 117.01C412.79 117.768 412.963 118.584 412.97 119.41C413.019 119.844 412.946 120.283 412.76 120.678C412.575 121.073 412.284 121.41 411.92 121.65L411.49 121.87C414.452 127.528 416.763 133.503 418.38 139.68C419.54 144.145 420.138 148.737 420.16 153.35C420.164 155.207 420.033 157.062 419.77 158.9C418.77 165.37 415.77 170.01 410.93 171.37C407.16 172.45 403.18 171.29 399.62 169.24C399.07 168.91 398.55 168.59 398.04 168.24C392.17 164.33 386.77 157.63 382.9 150.18L382.19 148.77C381.7 147.77 381.8 146.82 382.41 146.6C382.561 146.561 382.718 146.554 382.871 146.58C383.025 146.606 383.171 146.664 383.3 146.75C383.776 147.052 384.157 147.482 384.4 147.99L385.08 149.35C388.53 155.97 393.28 161.8 398.26 165.11C398.7 165.4 399.15 165.68 399.6 165.94C402.66 167.7 405.97 168.69 409.24 167.77C413.36 166.61 416.11 162.55 416.97 156.77C417.208 155.088 417.325 153.39 417.32 151.69C417.297 147.466 416.75 143.26 415.69 139.17C414.248 133.568 412.122 128.164 409.36 123.08C408.894 122.241 408.64 121.3 408.62 120.34C408.576 119.955 408.638 119.564 408.8 119.212C408.962 118.859 409.218 118.557 409.54 118.34L409.97 118.12C410.07 118.07 410.13 117.95 410.13 117.73C410.134 117.579 410.103 117.428 410.04 117.29C410.005 117.185 409.947 117.09 409.87 117.01L404.95 112.01L405.72 119.33C405.747 119.588 405.8 119.843 405.88 120.09L406.16 119.87C406.328 119.774 406.52 119.728 406.714 119.738C406.907 119.749 407.094 119.816 407.25 119.93C407.623 120.166 407.938 120.484 408.17 120.86C408.76 121.79 408.83 122.86 408.31 123.25L407.75 123.67C407.486 123.832 407.179 123.908 406.87 123.89C406.515 123.87 406.171 123.76 405.87 123.57C405.382 123.273 404.954 122.886 404.61 122.43C404.274 121.992 403.986 121.52 403.75 121.02C403.323 120.118 403.05 119.152 402.94 118.16L402.15 111.04C402.136 110.857 402.136 110.673 402.15 110.49C402.118 110.129 402.176 109.765 402.319 109.432C402.462 109.098 402.686 108.806 402.97 108.58C403.275 108.43 403.615 108.363 403.954 108.388C404.293 108.412 404.62 108.527 404.9 108.72Z" fill="#14181C"/>
<path d="M384.001 128.889L384.551 129.219C386.946 130.815 388.9 132.988 390.231 135.539C391.538 137.879 392.259 140.5 392.331 143.179C392.35 144.266 392.16 145.345 391.771 146.359C391.444 147.184 390.889 147.898 390.171 148.419L388.441 149.629C388.235 149.742 388.002 149.793 387.768 149.777C387.534 149.761 387.31 149.679 387.121 149.539C386.633 149.241 386.227 148.825 385.941 148.329C385.211 147.149 385.161 145.829 385.821 145.329L387.531 144.149C387.938 143.842 388.256 143.431 388.451 142.959C388.683 142.364 388.795 141.728 388.781 141.089C388.724 139.514 388.296 137.975 387.532 136.597C386.767 135.219 385.687 134.041 384.381 133.159L384.001 132.999C383.288 132.522 382.458 132.248 381.601 132.209C381.343 132.213 381.089 132.27 380.854 132.374C380.618 132.479 380.406 132.631 380.231 132.819C379.648 133.525 379.333 134.414 379.341 135.329C379.341 135.459 379.341 135.589 379.341 135.719C379.398 137.493 379.867 139.229 380.711 140.789L385.411 149.849C386.041 151.069 385.941 152.309 385.201 152.609C385.008 152.669 384.805 152.683 384.605 152.652C384.406 152.621 384.216 152.545 384.051 152.429C383.47 152.064 383.003 151.545 382.701 150.929L378.011 141.929C376.643 139.399 375.884 136.585 375.791 133.709C375.791 133.489 375.791 133.279 375.791 133.059C375.797 131.512 376.346 130.015 377.341 128.829C377.677 128.474 378.081 128.189 378.53 127.994C378.978 127.798 379.462 127.694 379.951 127.689C381.385 127.713 382.786 128.128 384.001 128.889Z" fill="#EAEEEF"/>
<path d="M405.341 139.45L405.201 156C405.201 156.89 404.561 157.25 403.781 156.8C403.366 156.532 403.021 156.17 402.774 155.742C402.527 155.314 402.385 154.834 402.361 154.34L402.511 137.91C402.461 136.915 402.093 135.961 401.461 135.19L385.331 114.19C384.956 113.689 384.487 113.264 383.951 112.94C383.542 112.675 383.057 112.552 382.571 112.59L366.351 114.9C366.019 114.968 365.724 115.16 365.527 115.436C365.331 115.713 365.246 116.054 365.291 116.39L365.201 143C365.235 143.767 365.469 144.512 365.881 145.16C366.306 145.893 366.908 146.509 367.631 146.95L374.871 151.13C375.355 151.465 375.907 151.689 376.488 151.786C377.069 151.883 377.664 151.85 378.231 151.69L380.391 150.69C380.549 150.637 380.717 150.621 380.881 150.644C381.046 150.667 381.203 150.727 381.341 150.82C381.791 151.106 382.157 151.506 382.401 151.98C382.921 152.98 382.861 153.98 382.271 154.22L380.071 155.22C379.193 155.477 378.269 155.535 377.366 155.39C376.463 155.244 375.604 154.9 374.851 154.38L367.621 150.19C366.092 149.253 364.823 147.946 363.931 146.39C362.976 144.892 362.438 143.166 362.371 141.39L362.461 114.7C362.461 112.7 363.391 111.43 364.851 111.23L381.071 108.91C382.088 108.826 383.105 109.083 383.961 109.64C385.086 110.312 386.068 111.199 386.851 112.25L402.981 133.25C404.397 135.019 405.223 137.187 405.341 139.45Z" fill="#EAEEEF"/>
<path d="M384.111 135.55C384.663 135.911 385.123 136.397 385.453 136.968C385.783 137.54 385.974 138.181 386.011 138.84C386.011 140.05 385.151 140.54 384.101 139.93C383.547 139.57 383.086 139.085 382.755 138.513C382.425 137.941 382.235 137.299 382.201 136.64C382.201 135.43 383.051 134.94 384.111 135.55Z" fill="#EAEEEF"/>
<path d="M399.251 351.369C402.181 353.059 402.191 355.799 399.251 357.489L285.101 423.849C283.462 424.683 281.649 425.117 279.811 425.117C277.972 425.117 276.16 424.683 274.521 423.849L208.391 385.669C205.461 383.979 205.441 381.229 208.391 379.539L322.57 313.189C324.208 312.351 326.021 311.914 327.861 311.914C329.7 311.914 331.513 312.351 333.151 313.189L399.251 351.369Z" fill="#7ED6D6"/>
<path d="M239.801 309.15C240.971 309.82 241.201 310.9 240.251 311.73L205.601 342.21C204.889 342.698 204.069 343.005 203.212 343.106C202.355 343.207 201.486 343.099 200.681 342.79L177.921 334.09C177.731 334.014 177.547 333.924 177.371 333.82C176.201 333.15 175.961 332.07 176.911 331.24L211.571 300.75C212.281 300.263 213.1 299.957 213.955 299.858C214.811 299.758 215.678 299.869 216.481 300.18L239.241 308.88C239.434 308.956 239.621 309.046 239.801 309.15Z" fill="#7ED6D6"/>
<path d="M195.491 297.27C196.881 298.07 196.881 299.37 195.491 300.17L156.581 322.79C155.806 323.181 154.95 323.385 154.081 323.385C153.213 323.385 152.357 323.181 151.581 322.79L132.431 311.73C131.051 310.93 131.041 309.63 132.431 308.83L171.341 286.21C172.117 285.819 172.973 285.615 173.841 285.615C174.71 285.615 175.566 285.819 176.341 286.21L195.491 297.27Z" fill="#7ED6D6"/>
<path d="M260.901 268.85C261.901 269.44 262.261 270.35 261.641 271.15L241.001 297.79C240.201 298.79 238.101 299.28 236.311 298.79L220.061 294.55C219.694 294.458 219.341 294.316 219.011 294.13C218.011 293.54 217.651 292.63 218.271 291.83L238.901 265.19C239.701 264.19 241.801 263.69 243.591 264.19L259.841 268.44C260.21 268.533 260.566 268.67 260.901 268.85Z" fill="#7ED6D6"/>
<path d="M401.459 340.789V344.049C401.392 344.695 401.156 345.313 400.775 345.839C400.394 346.366 399.882 346.783 399.289 347.049V343.789C399.884 343.524 400.398 343.108 400.781 342.581C401.163 342.054 401.401 341.436 401.469 340.789" fill="#55A1C9"/>
<path d="M208.399 371.999V375.259C207.806 374.934 207.283 374.495 206.859 373.969V370.709C207.283 371.236 207.806 371.674 208.399 371.999Z" fill="#55A2CA"/>
<path d="M206.86 370.709V373.999C206.438 373.497 206.202 372.865 206.189 372.209V368.939C206.2 369.598 206.437 370.234 206.86 370.739" fill="#55A1C9"/>
<path d="M399.28 343.83L399.27 347.09L285.09 413.44L285.1 410.18L399.28 343.83Z" fill="#55A1C9"/>
<path d="M274.531 410.18L274.521 413.44L208.391 375.26V372L274.531 410.18Z" fill="#55A2CB"/>
<path d="M285.11 410.18V413.44C283.493 414.305 281.683 414.742 279.85 414.71V411.45C281.683 411.482 283.493 411.045 285.11 410.18Z" fill="#55A1C9"/>
<path d="M279.849 411.45V414.71C277.997 414.747 276.165 414.31 274.529 413.44V410.18C276.165 411.05 277.997 411.487 279.849 411.45Z" fill="#55A2CA"/>
<path d="M399.25 337.7C402.18 339.39 402.2 342.14 399.25 343.83L285.08 410.18C283.441 411.013 281.628 411.448 279.79 411.448C277.951 411.448 276.139 411.013 274.5 410.18L208.4 372C205.47 370.31 205.4 367.56 208.4 365.87L322.58 299.52C324.219 298.686 326.031 298.252 327.87 298.252C329.708 298.252 331.521 298.686 333.16 299.52L399.25 337.7Z" fill="#58AEDD"/>
<path d="M288.4 368.09C288.4 365.62 286.57 363.37 283.65 361.76C280.135 359.961 276.228 359.061 272.28 359.14C271.94 359.14 271.66 359.31 271.66 359.5C271.66 359.69 271.94 359.86 272.28 359.86C275.933 359.78 279.549 360.612 282.8 362.28C285.48 363.77 287.15 365.82 287.16 368.09C287.16 368.29 287.44 368.45 287.78 368.45C288.12 368.45 288.4 368.29 288.4 368.09Z" fill="#EFF9F9"/>
<path d="M284.07 368.45C284.07 364.69 278.78 361.65 272.29 361.65C271.95 361.65 271.67 361.81 271.68 362.01C271.69 362.21 271.96 362.37 272.3 362.37C274.891 362.319 277.453 362.932 279.74 364.15C281.64 365.25 282.83 366.77 282.84 368.45C282.84 368.65 283.12 368.81 283.46 368.81C283.8 368.81 284.07 368.65 284.07 368.45Z" fill="#EFF9F9"/>
<path d="M279.75 368.09C279.75 365.92 276.68 364.15 272.92 364.15C272.58 364.15 272.311 364.32 272.311 364.52C272.311 364.72 272.59 364.87 272.93 364.87C274.302 364.844 275.658 365.168 276.871 365.81C277.319 366.015 277.706 366.333 277.993 366.733C278.281 367.132 278.459 367.6 278.51 368.09C278.51 368.29 278.79 368.45 279.13 368.45C279.47 368.45 279.75 368.29 279.75 368.09Z" fill="#EFF9F9"/>
<path d="M276.001 367.74C276.001 367.14 275.161 366.66 274.141 366.66C273.121 366.66 272.281 367.14 272.291 367.74C272.301 368.34 273.121 368.81 274.151 368.81C275.181 368.81 276.001 368.33 276.001 367.74Z" fill="#EFF9F9"/>
<path d="M324.201 312.699C326.391 313.969 327.461 315.839 326.751 317.699C325.641 320.629 320.64 322.469 315.59 321.819C313.98 321.64 312.421 321.147 311.001 320.369C308.801 319.099 307.731 317.219 308.441 315.369C309.551 312.439 314.551 310.599 319.601 311.259C321.213 311.435 322.776 311.924 324.201 312.699Z" fill="#DAE8E8"/>
<g opacity="0.46">
<path opacity="0.46" d="M234.92 32.5296C238.56 30.4196 241.53 32.1096 241.54 36.3096L241.62 64.3096C241.501 66.5943 240.843 68.8184 239.699 70.7998C238.556 72.7813 236.959 74.4637 235.04 75.7096L143.7 128.45C140.04 130.56 137.08 128.87 137.07 124.67L136.99 96.6696C137.108 94.3845 137.765 92.1598 138.909 90.1781C140.053 88.1964 141.65 86.5142 143.57 85.2696L234.92 32.5296Z" fill="#AFF0F4"/>
</g>
<path d="M331.66 308.311C333.86 309.581 334.93 311.451 334.22 313.311C333.11 316.241 328.11 318.081 323.06 317.431C321.445 317.253 319.882 316.757 318.46 315.971C316.26 314.701 315.2 312.831 315.91 310.971C317.02 308.051 322.02 306.201 327.07 306.851C328.68 307.035 330.24 307.53 331.66 308.311Z" fill="#3F5382"/>
<path d="M336.22 365.461C336.83 365.821 336.84 366.391 336.22 366.741L276.11 401.671C275.768 401.845 275.389 401.936 275.005 401.936C274.621 401.936 274.242 401.845 273.9 401.671L270.62 399.771C270.489 399.723 270.375 399.636 270.294 399.522C270.213 399.407 270.17 399.271 270.17 399.131C270.17 398.991 270.213 398.854 270.294 398.739C270.375 398.625 270.489 398.538 270.62 398.491L330.73 363.561C331.071 363.386 331.448 363.295 331.83 363.295C332.213 363.295 332.59 363.386 332.93 363.561L336.22 365.461Z" fill="#3F739E"/>
<path d="M265.361 381.27C265.494 381.314 265.609 381.4 265.691 381.514C265.773 381.627 265.817 381.764 265.817 381.905C265.817 382.045 265.773 382.182 265.691 382.295C265.609 382.409 265.494 382.495 265.361 382.539L258.491 386.539C258.151 386.712 257.776 386.801 257.396 386.801C257.015 386.801 256.64 386.712 256.301 386.539L243.741 379.289C243.131 378.939 243.131 378.38 243.741 378.03L250.621 374.03C250.96 373.857 251.335 373.768 251.716 373.768C252.096 373.768 252.471 373.857 252.811 374.03L265.361 381.27Z" fill="#F7C24A"/>
<path d="M267 371.179C267.092 371.213 267.171 371.275 267.227 371.355C267.283 371.436 267.313 371.531 267.313 371.629C267.313 371.727 267.283 371.823 267.227 371.903C267.171 371.984 267.092 372.045 267 372.079L260.28 375.989C260.039 376.11 259.774 376.173 259.505 376.173C259.236 376.173 258.97 376.11 258.73 375.989L254.11 373.319C254.018 373.285 253.939 373.224 253.883 373.143C253.827 373.063 253.797 372.967 253.797 372.869C253.797 372.771 253.827 372.676 253.883 372.595C253.939 372.515 254.018 372.453 254.11 372.419L260.83 368.509C261.071 368.386 261.339 368.322 261.61 368.322C261.881 368.322 262.148 368.386 262.39 368.509L267 371.179Z" fill="#F7C24A"/>
<path d="M274.941 375.92C275.451 376.21 275.451 376.68 274.941 376.97L268.481 380.73C268.199 380.874 267.887 380.949 267.571 380.949C267.254 380.949 266.942 380.874 266.66 380.73L262.301 378.22C261.801 377.93 261.791 377.46 262.301 377.17L268.771 373.41C269.051 373.267 269.361 373.193 269.676 373.193C269.99 373.193 270.3 373.267 270.581 373.41L274.941 375.92Z" fill="#F7C24A"/>
<path d="M195.602 248.07L226.731 212.74L228.531 217.86L237.112 214.73L205.401 251.2L203.352 245.35L195.602 248.07Z" fill="#471C30"/>
<path d="M195.602 248.07L209.461 298.6L225.292 299.62L255.001 267.13L237.112 214.73L205.691 250.63L203.352 245.35L195.602 248.07Z" fill="#FF65A7"/>
<path d="M237.111 214.73L229.061 216.62L226.73 212.74L228.531 217.86L237.111 214.73Z" fill="#FFD049"/>
<path d="M218 247.241C218 247.241 225.21 260.841 233.29 252.241C242.43 242.461 232.57 230.891 232.57 230.891" stroke="#FFFCFA" stroke-miterlimit="10"/>
<path d="M218.341 248.125C218.815 247.958 219.067 247.447 218.905 246.983C218.742 246.52 218.226 246.278 217.751 246.445C217.277 246.611 217.024 247.122 217.187 247.586C217.35 248.05 217.866 248.291 218.341 248.125Z" fill="#FFFCFA"/>
<path d="M232.335 231.482C232.809 231.316 233.061 230.805 232.899 230.341C232.736 229.877 232.22 229.636 231.745 229.802C231.271 229.969 231.019 230.479 231.181 230.943C231.344 231.407 231.86 231.648 232.335 231.482Z" fill="#FFFCFA"/>
<path d="M207.141 253.41L225.292 299.62L209.461 298.6L195.602 248.07L203.352 245.35L207.141 253.41Z" fill="#913762"/>
<path d="M140.951 231.38L198.731 198V205.87L211.571 205.7L152.511 240.37V231.38H140.951Z" fill="#724424"/>
<path d="M140.95 231.379L135.82 307.129L156.36 316.119L210.93 285.949L211.57 205.699L153.15 239.729L152.51 231.379H140.95Z" fill="#FFD049"/>
<path d="M211.571 205.7L200.01 204.42L198.73 198V205.87L211.571 205.7Z" fill="#FFD049"/>
<path d="M171.131 241C171.131 241 174.371 263.06 189.131 255.12C205.831 246.12 198.131 225.59 198.131 225.59" stroke="#FFFCFA" stroke-miterlimit="10"/>
<path d="M171.131 242.29C171.838 242.29 172.411 241.717 172.411 241.01C172.411 240.304 171.838 239.73 171.131 239.73C170.424 239.73 169.852 240.304 169.852 241.01C169.852 241.717 170.424 242.29 171.131 242.29Z" fill="#FFFCFA"/>
<path d="M197.45 226.24C198.157 226.24 198.73 225.667 198.73 224.96C198.73 224.253 198.157 223.68 197.45 223.68C196.743 223.68 196.17 224.253 196.17 224.96C196.17 225.667 196.743 226.24 197.45 226.24Z" fill="#FFFCFA"/>
<path d="M153.79 244.219L156.36 316.119L135.82 307.129L140.95 231.379H152.51L153.79 244.219Z" fill="#AF892B"/>
<path d="M173.461 272.489L212.601 241.199L213.491 247.039L223.001 245.479L183.051 277.859L182.041 271.189L173.461 272.489Z" fill="#172D3A"/>
<path d="M173.461 272.49L178.161 329.31L194.431 333.68L231.551 305.13L223.001 245.48L183.451 277.31L182.041 271.19L173.461 272.49Z" fill="#65B8F6"/>
<path d="M223.001 245.479L214.281 245.819L212.602 241.199L213.491 247.039L223.001 245.479Z" fill="#FFD049"/>
<path d="M197 276.24C197 276.24 201.88 292.24 211.93 284.71C223.32 276.16 215.28 261.77 215.28 261.77" stroke="#FFFCFA" stroke-miterlimit="10"/>
<path d="M196.94 277.199C197.471 277.199 197.9 276.769 197.9 276.239C197.9 275.709 197.471 275.279 196.94 275.279C196.41 275.279 195.98 275.709 195.98 276.239C195.98 276.769 196.41 277.199 196.94 277.199Z" fill="#FFFCFA"/>
<path d="M214.681 262.33C215.211 262.33 215.641 261.9 215.641 261.37C215.641 260.84 215.211 260.41 214.681 260.41C214.15 260.41 213.721 260.84 213.721 261.37C213.721 261.9 214.15 262.33 214.681 262.33Z" fill="#FFFCFA"/>
<path d="M184.431 280.579L194.431 333.679L178.161 329.309L173.461 272.489L182.041 271.189L184.431 280.579Z" fill="#457FA3"/>
<path d="M253.381 39.9994L248.451 37.1294C250.291 36.0694 251.951 35.9694 253.151 36.6694L258.091 39.5394C256.881 38.8394 255.221 38.9394 253.381 39.9994Z" fill="#ADD4D4"/>
<path d="M157.461 136.37L152.531 133.5C151.341 132.81 150.612 131.34 150.602 129.26L155.531 132.13C155.531 134.21 156.281 135.68 157.461 136.37Z" fill="#ADD4D4"/>
<path d="M155.531 132.13L150.602 129.26L150.521 101.24L155.451 104.1L155.531 132.13Z" fill="#ADD4D4"/>
<path d="M162.042 92.6996L157.102 89.8296L248.441 37.0996L253.381 39.9696L162.042 92.6996Z" fill="#AAD3D2"/>
<path d="M155.461 104.1L150.521 101.24C150.644 98.9537 151.305 96.7285 152.45 94.7458C153.595 92.763 155.192 91.0787 157.112 89.8301L162.042 92.7001C160.122 93.9453 158.525 95.6277 157.381 97.6092C156.238 99.5908 155.58 101.815 155.461 104.1Z" fill="#ADD4D4"/>
<path d="M253.381 39.9986C257.031 37.8886 260.001 39.5786 260.011 43.7686L260.091 71.7686C259.971 74.0555 259.311 76.2816 258.166 78.2647C257.02 80.2479 255.422 81.9317 253.501 83.1786L162.161 135.919C158.511 138.029 155.551 136.329 155.531 132.139L155.461 104.139C155.579 101.854 156.237 99.6292 157.381 97.6477C158.525 95.6661 160.122 93.9838 162.041 92.7386L253.381 39.9986Z" fill="#EAF4F8"/>
<path d="M172.48 103.651C172.65 103.551 172.83 103.551 172.92 103.711L174.41 106.321C174.447 106.382 174.507 106.425 174.576 106.442C174.646 106.459 174.719 106.448 174.78 106.411L178.11 105.041C178.51 104.881 178.66 105.351 178.38 105.841L175.98 109.931C175.866 110.098 175.817 110.3 175.84 110.501L176.42 113.981C176.432 114.163 176.393 114.346 176.309 114.508C176.224 114.67 176.096 114.806 175.94 114.901C175.876 114.946 175.799 114.971 175.72 114.971L172.72 114.891C172.64 114.893 172.561 114.914 172.49 114.951C172.407 115.006 172.333 115.074 172.27 115.151L169.27 118.671C169.207 118.745 169.133 118.809 169.05 118.861C168.77 119.021 168.52 118.861 168.57 118.491L169.13 114.351C169.151 114.276 169.149 114.197 169.124 114.124C169.099 114.051 169.052 113.987 168.99 113.941L166.57 112.631C166.28 112.471 166.44 111.821 166.84 111.531L170.17 109.051C170.335 108.918 170.46 108.741 170.53 108.541L172.01 104.211C172.095 103.974 172.262 103.776 172.48 103.651Z" fill="#EEBB47"/>
<path d="M192.48 92.6502C192.512 92.6233 192.55 92.6035 192.59 92.5919C192.63 92.5803 192.672 92.5772 192.714 92.5828C192.755 92.5885 192.795 92.6027 192.83 92.6247C192.866 92.6466 192.897 92.6757 192.92 92.7102L194.41 95.3202C194.449 95.3791 194.509 95.4211 194.578 95.4378C194.646 95.4545 194.719 95.4446 194.78 95.4102L198.11 94.0502C198.51 93.8802 198.67 94.3502 198.38 94.8402L195.98 98.9302C195.87 99.0985 195.824 99.3007 195.85 99.5002L196.42 102.98C196.435 103.163 196.399 103.347 196.316 103.511C196.233 103.675 196.107 103.813 195.95 103.91C195.88 103.949 195.801 103.969 195.72 103.97L192.72 103.9C192.639 103.898 192.56 103.918 192.49 103.96C192.408 104.012 192.333 104.076 192.27 104.15L189.27 107.67C189.209 107.75 189.13 107.815 189.04 107.86C188.76 108.03 188.51 107.86 188.57 107.49L189.12 103.35C189.12 103.15 189.12 103 188.98 102.94L186.57 101.63C186.28 101.48 186.44 100.83 186.83 100.53L190.16 98.0502C190.329 97.9162 190.454 97.7353 190.52 97.5302L192 93.2102C192.091 92.9738 192.261 92.776 192.48 92.6502Z" fill="#EEBB47"/>
<path d="M210.48 81.659C210.65 81.559 210.83 81.559 210.92 81.659L212.41 84.269C212.449 84.3278 212.508 84.3704 212.577 84.3888C212.645 84.4072 212.717 84.4002 212.78 84.369L216.11 82.989C216.51 82.829 216.67 83.299 216.38 83.789L213.98 87.879C213.87 88.0473 213.824 88.2496 213.85 88.449L214.42 91.929C214.435 92.1122 214.399 92.296 214.316 92.46C214.233 92.6241 214.107 92.7621 213.95 92.859C213.882 92.9018 213.801 92.9228 213.72 92.919L210.72 92.849C210.64 92.8513 210.561 92.8718 210.49 92.909C210.407 92.9643 210.333 93.0317 210.27 93.109L207.27 96.619C207.206 96.699 207.128 96.7667 207.04 96.819C206.76 96.979 206.51 96.819 206.57 96.439L207.12 92.299C207.143 92.2246 207.142 92.1449 207.117 92.0713C207.091 91.9977 207.044 91.9339 206.98 91.889L204.57 90.579C204.28 90.429 204.44 89.769 204.83 89.479L208.16 86.999C208.329 86.869 208.454 86.6913 208.52 86.489L210 82.159C210.1 81.9437 210.269 81.7678 210.48 81.659Z" fill="#EEBB47"/>
<path d="M229.48 70.6502C229.512 70.6233 229.55 70.6035 229.59 70.5919C229.63 70.5803 229.672 70.5772 229.714 70.5828C229.755 70.5885 229.795 70.6027 229.83 70.6247C229.866 70.6466 229.897 70.6757 229.92 70.7102L231.41 73.3202C231.448 73.3808 231.507 73.4248 231.576 73.4434C231.644 73.462 231.718 73.4537 231.78 73.4202L235.11 72.0402C235.51 71.8802 235.67 72.3502 235.38 72.8402L232.98 76.9202C232.876 77.0948 232.827 77.2971 232.84 77.5002L233.42 80.9802C233.429 81.1626 233.39 81.344 233.307 81.5069C233.225 81.6699 233.102 81.8088 232.95 81.9102C232.88 81.9488 232.801 81.9694 232.72 81.9702L229.72 81.8902C229.639 81.8963 229.561 81.9202 229.49 81.9602C229.408 82.0116 229.333 82.0757 229.27 82.1502L226.27 85.6702C226.207 85.7479 226.129 85.8124 226.04 85.8602C225.76 86.0302 225.51 85.8602 225.57 85.4802L226.12 81.3502C226.143 81.2758 226.142 81.1962 226.117 81.1226C226.091 81.049 226.044 80.9851 225.98 80.9402L223.57 79.6402C223.28 79.4802 223.44 78.8202 223.83 78.5302L227.16 76.0602C227.325 75.9225 227.449 75.7428 227.52 75.5402L229 71.2202C229.088 70.9793 229.258 70.7772 229.48 70.6502Z" fill="#EEBB47"/>
<path d="M247.48 59.6508C247.65 59.5508 247.83 59.5508 247.92 59.7108L249.41 62.3209C249.448 62.3817 249.507 62.4253 249.577 62.4422C249.646 62.4591 249.719 62.4478 249.78 62.4109L253.11 61.0409C253.51 60.8809 253.67 61.3508 253.38 61.8408L250.98 65.9308C250.872 66.1002 250.823 66.3006 250.84 66.5008L251.42 69.9809C251.435 70.1641 251.399 70.3478 251.316 70.5119C251.233 70.676 251.107 70.814 250.95 70.9109C250.88 70.9494 250.801 70.97 250.72 70.9708L247.72 70.8909C247.639 70.8969 247.561 70.9208 247.49 70.9608C247.41 71.0153 247.336 71.0791 247.27 71.1508L244.27 74.6709C244.204 74.7453 244.126 74.8094 244.04 74.8608C243.76 75.0308 243.51 74.8608 243.57 74.4908L244.12 70.3509C244.143 70.2765 244.142 70.1968 244.117 70.1232C244.091 70.0496 244.044 69.9858 243.98 69.9409L241.57 68.6309C241.28 68.4709 241.44 67.8208 241.83 67.5308L245.16 65.0508C245.329 64.9208 245.454 64.7431 245.52 64.5409L247 60.2108C247.088 59.9727 247.258 59.774 247.48 59.6508Z" fill="#EEBB47"/>
<path d="M352.291 355.59L352.621 355.79L352.901 356C353.101 356.19 353.061 356.36 352.771 356.53H352.721C352.522 356.636 352.292 356.671 352.071 356.63C351.766 356.564 351.475 356.446 351.211 356.28L345.53 353C345.295 352.886 345.087 352.722 344.921 352.52C344.861 352.38 344.921 352.26 345.121 352.12C345.329 352.014 345.562 351.964 345.795 351.976C346.029 351.989 346.255 352.062 346.451 352.19L346.611 352.28L352.291 355.59Z" fill="#FCFCFC"/>
<path d="M356.76 354C356.563 354.263 356.315 354.484 356.03 354.65C355.448 354.984 354.791 355.166 354.12 355.18C353.491 355.222 352.863 355.083 352.31 354.78H352.25C351.34 354.23 351.43 353.58 352.53 352.78L353 352.46L353.33 352.26C353.88 351.93 354 351.67 353.67 351.48C353.446 351.374 353.195 351.339 352.95 351.38C352.638 351.402 352.331 351.473 352.04 351.59L351.87 351.68L351.63 351.84L351.28 352.13C351.212 352.196 351.149 352.266 351.09 352.34L351 352.46L350.89 352.56C350.836 352.611 350.776 352.655 350.71 352.69C350.62 352.745 350.517 352.779 350.411 352.787C350.305 352.796 350.199 352.78 350.1 352.74L349.98 352.69C349.66 352.51 349.66 352.22 349.98 351.82C350.202 351.546 350.469 351.312 350.77 351.13L350.99 351C351.595 350.632 352.284 350.426 352.99 350.4C353.654 350.358 354.316 350.503 354.9 350.82L355.41 351.09L356.48 351.71L356.86 351.93L357.23 352.13C357.588 352.314 357.923 352.539 358.23 352.8C358.39 352.95 358.36 353.08 358.14 353.21C357.978 353.291 357.806 353.355 357.63 353.4C357.467 353.449 357.309 353.516 357.16 353.6C357 353.703 356.863 353.839 356.76 354ZM354.38 354.2C354.69 354.169 354.99 354.074 355.26 353.92C355.42 353.852 355.563 353.746 355.674 353.613C355.785 353.479 355.863 353.32 355.9 353.15C355.918 353.026 355.896 352.9 355.837 352.79C355.777 352.68 355.683 352.592 355.57 352.54C355.361 352.442 355.13 352.403 354.901 352.428C354.671 352.453 354.453 352.54 354.27 352.68L354 352.84L353.78 352.99C353.41 353.28 353.21 353.5 353.19 353.64C353.17 353.78 353.27 353.93 353.5 354.06C353.77 354.203 354.079 354.252 354.38 354.2Z" fill="#FCFCFC"/>
<path d="M346.27 359.551C346.65 359.821 346.66 360.061 346.27 360.261C346.029 360.361 345.766 360.398 345.506 360.366C345.247 360.334 345 360.236 344.79 360.081L340.72 357.731L339.41 356.971C339.04 356.741 338.84 356.561 338.84 356.421C338.84 356.281 339.03 356.111 339.43 355.871L340.07 355.491C340.737 355.079 341.436 354.722 342.16 354.421C342.871 354.12 343.641 353.988 344.412 354.035C345.182 354.081 345.931 354.306 346.6 354.691L346.94 354.911C347.49 355.281 347.77 355.661 347.77 356.061C347.77 356.461 347.46 356.901 346.85 357.371L346.24 357.841C346.16 357.841 346.04 357.981 345.87 358.081L345.5 358.301C345.31 358.441 345.2 358.571 345.2 358.681C345.2 358.791 345.28 358.901 345.47 359.041L345.85 359.291L346.27 359.551ZM344.36 357.631L344.84 357.371C345.52 356.981 345.89 356.621 345.95 356.371C346.01 356.121 345.79 355.781 345.32 355.501C344.874 355.235 344.357 355.116 343.84 355.161C343.195 355.244 342.575 355.462 342.02 355.801C341.52 356.091 341.26 356.311 341.24 356.451C341.22 356.591 341.46 356.811 341.95 357.101L342.28 357.291L342.66 357.511L343.04 357.711C343.255 357.818 343.49 357.879 343.73 357.891C343.962 357.878 344.187 357.813 344.39 357.701" fill="#FCFCFC"/>
<path d="M368.7 346.81C368.467 347.299 368.081 347.7 367.6 347.95C366.906 348.34 366.139 348.581 365.347 348.656C364.555 348.732 363.755 348.641 363 348.39L362.66 348.28C362.383 348.166 362.112 348.036 361.85 347.89C361.06 347.43 360.67 346.89 360.67 346.31C360.695 345.979 360.811 345.661 361.005 345.391C361.199 345.121 361.464 344.91 361.77 344.78C362.512 344.346 363.351 344.105 364.21 344.08C365.034 344.029 365.858 344.18 366.61 344.52L366.78 344.61C367.02 344.75 367.12 344.9 367.06 345.05C366.739 345.434 366.366 345.771 365.95 346.05L364.95 346.88L364.82 346.99C364.48 347.28 364.39 347.48 364.54 347.62C364.829 347.741 365.15 347.759 365.45 347.67C365.819 347.622 366.176 347.503 366.5 347.32C366.843 347.14 367.117 346.852 367.28 346.5L367.43 346.2C367.494 346.065 367.599 345.953 367.73 345.88C367.871 345.793 368.036 345.755 368.2 345.77C368.333 345.783 368.461 345.82 368.58 345.88C368.86 346.07 368.9 346.37 368.7 346.81ZM362.47 346.89C362.591 346.968 362.731 347.009 362.875 347.009C363.019 347.009 363.159 346.968 363.28 346.89C363.459 346.777 363.63 346.65 363.79 346.51L364 346.35L364.07 346.28L364.47 345.97C364.93 345.6 365.08 345.35 364.93 345.19H364.84C364.564 345.065 364.259 345.024 363.96 345.07C363.609 345.111 363.269 345.219 362.96 345.39C362.776 345.471 362.611 345.589 362.475 345.737C362.339 345.885 362.235 346.06 362.17 346.25C362.133 346.391 362.147 346.54 362.209 346.672C362.271 346.804 362.378 346.909 362.51 346.97" fill="#FCFCFC"/>
<path d="M359.49 347.14C359.552 347.167 359.604 347.21 359.643 347.265C359.682 347.32 359.705 347.384 359.71 347.45C359.703 347.52 359.677 347.587 359.634 347.643C359.592 347.7 359.535 347.744 359.47 347.77C359.369 347.825 359.261 347.868 359.15 347.9L358.97 347.96H358.78C358.432 348.034 358.095 348.155 357.78 348.32C357.559 348.371 357.362 348.495 357.221 348.672C357.079 348.849 357.003 349.069 357.003 349.295C357.003 349.522 357.079 349.742 357.221 349.919C357.362 350.096 357.559 350.22 357.78 350.27L357.88 350.33C358.421 350.604 359.024 350.731 359.63 350.7C360.198 350.7 360.757 350.563 361.26 350.3C361.455 350.186 361.628 350.037 361.77 349.86L361.87 349.74L361.94 349.6C362.035 349.44 362.165 349.303 362.32 349.2C362.435 349.127 362.569 349.089 362.705 349.089C362.841 349.089 362.975 349.127 363.09 349.2L363.19 349.27C363.35 349.41 363.42 349.53 363.4 349.63L363.33 349.81C363.145 350.303 362.791 350.715 362.33 350.97C361.729 351.302 361.071 351.515 360.39 351.6C359.639 351.722 358.872 351.698 358.13 351.53C357.623 351.422 357.135 351.24 356.68 350.99L356.39 350.8C356.111 350.646 355.88 350.415 355.724 350.136C355.569 349.857 355.494 349.54 355.51 349.22C355.582 348.868 355.736 348.537 355.958 348.254C356.18 347.972 356.465 347.744 356.79 347.59C357.271 347.319 357.795 347.133 358.34 347.04C358.725 346.96 359.125 346.995 359.49 347.14Z" fill="#FCFCFC"/>
<path d="M380.6 337.41L383.14 338.88L381.77 339.67L375.16 335.86L377.68 334.4C378.178 334.101 378.722 333.888 379.29 333.77C379.802 333.653 380.33 333.629 380.85 333.7C381.322 333.761 381.777 333.914 382.19 334.15C382.5 334.311 382.754 334.562 382.92 334.87C382.987 335.013 383.015 335.171 383.003 335.329C382.991 335.487 382.938 335.638 382.85 335.77C382.577 336.197 382.193 336.542 381.74 336.77L380.6 337.41ZM379.53 336.79L380.61 336.16C380.99 335.94 381.19 335.73 381.21 335.53C381.21 335.33 381.08 335.14 380.78 334.96C380.457 334.784 380.093 334.7 379.726 334.718C379.359 334.735 379.004 334.854 378.7 335.06L377.61 335.69L379.53 336.79Z" fill="#282E34"/>
<path d="M377.92 339.001C378.372 339.207 378.742 339.559 378.97 340.001C379.034 340.181 379.054 340.373 379.03 340.562C379.005 340.752 378.937 340.933 378.83 341.091C378.551 341.509 378.173 341.853 377.73 342.091C377.206 342.395 376.635 342.611 376.04 342.731C375.432 342.861 374.805 342.881 374.19 342.791C373.561 342.712 372.955 342.504 372.41 342.181L368.33 339.831L369.7 339.041L373.78 341.401C374.196 341.652 374.674 341.785 375.16 341.785C375.647 341.785 376.124 341.652 376.54 341.401C376.99 341.141 377.21 340.871 377.21 340.601C377.21 340.331 377 340.051 376.55 339.801L372.47 337.441L373.84 336.641L377.92 339.001Z" fill="#282E34"/>
</svg>
