<svg width="796" height="900" viewBox="0 0 796 900" fill="none" xmlns="http://www.w3.org/2000/svg">
    <path
        d="M312.28 0L220.48 50.4C198.849 62.2775 179.867 78.4395 164.692 97.8991C149.517 117.359 138.468 139.707 132.22 163.58L6.05983 645.63C-4.33562 685.359 -0.955124 727.44 15.6497 765L75.3399 900H748V0H312.28Z"
        fill="#A0D1DC" />
    <path
        d="M360.28 0L268.48 50.4C246.849 62.2775 227.867 78.4395 212.692 97.8991C197.517 117.359 186.468 139.707 180.22 163.58L54.0598 645.63C43.6644 685.359 47.0449 727.44 63.6497 765L123.34 900H796V0H360.28Z"
        fill="#2980B9" />
</svg>