<svg width="46" height="33" viewBox="0 0 46 33" fill="none" xmlns="http://www.w3.org/2000/svg">
<path d="M45.5712 27.1476C45.8275 27.6539 45.7353 28.2669 45.3414 28.6754C44.9475 29.0839 44.3382 29.1983 43.8229 28.9605L37.158 25.8844C31.5564 23.2991 25.4435 22.1164 19.3411 22.3946C19.2686 24.3542 19.1611 26.3128 19.0184 28.2696L18.8359 30.7735C18.7252 32.2925 17.0314 33.1417 15.7479 32.3216C10.1773 28.7621 5.33446 24.1756 1.47761 18.8065L0.250439 17.0982C-0.0834796 16.6333 -0.0834796 16.0072 0.250439 15.5424L1.4776 13.8341C5.33446 8.46498 10.1773 3.87844 15.7479 0.318917C17.0314 -0.501176 18.7252 0.347991 18.8359 1.86705L19.0184 4.37095C19.1409 6.05056 19.2375 7.73159 19.3082 9.41343H21.0231C30.5724 9.41343 39.3103 14.7832 43.6242 23.3025L45.5712 27.1476Z" fill="#2980B9"/>
</svg>
