<svg width="493" height="618" viewBox="0 0 520 700" fill="none" xmlns="http://www.w3.org/2000/svg">
    <path
        d="M297.266 143.881H86.0979C76.5935 143.881 68.8887 151.586 68.8887 161.09C68.8887 170.594 76.5935 178.299 86.0979 178.299H297.266C306.77 178.299 314.475 170.594 314.475 161.09C314.475 151.586 306.77 143.881 297.266 143.881Z"
        fill="#DBD5D5" />
    <path
        d="M462.551 143.881H378.893C369.388 143.881 361.684 151.586 361.684 161.09C361.684 170.594 369.388 178.299 378.893 178.299H462.551C472.056 178.299 479.76 170.594 479.76 161.09C479.76 151.586 472.056 143.881 462.551 143.881Z"
        fill="#DBD5D5" />
    <path
        d="M137.727 262.195H54.0686C44.5642 262.195 36.8594 269.9 36.8594 279.405C36.8594 288.909 44.5642 296.614 54.0686 296.614H137.727C147.231 296.614 154.936 288.909 154.936 279.405C154.936 269.9 147.231 262.195 137.727 262.195Z"
        fill="#DBD5D5" />
    <path
        d="M78.569 198.736H41.1604C31.656 198.736 23.9512 206.441 23.9512 215.946C23.9512 225.45 31.656 233.155 41.1604 233.155H78.569C88.0734 233.155 95.7782 225.45 95.7782 215.946C95.7782 206.441 88.0734 198.736 78.569 198.736Z"
        fill="#DBD5D5" />
    <path
        d="M260.342 98.707H179.91C170.406 98.707 162.701 106.412 162.701 115.916C162.701 125.421 170.406 133.125 179.91 133.125H260.342C269.846 133.125 277.551 125.421 277.551 115.916C277.551 106.412 269.846 98.707 260.342 98.707Z"
        fill="#DBD5D5" />
    <path
        d="M329.18 98.707H315.434C305.929 98.707 298.225 106.412 298.225 115.916C298.225 125.421 305.929 133.125 315.434 133.125H329.18C338.684 133.125 346.389 125.421 346.389 115.916C346.389 106.412 338.684 98.707 329.18 98.707Z"
        fill="#DBD5D5" />
    <path
        d="M401.304 197.66H143.403C133.898 197.66 126.193 205.365 126.193 214.869C126.193 224.374 133.898 232.079 143.403 232.079H401.304C410.809 232.079 418.514 224.374 418.514 214.869C418.514 205.365 410.809 197.66 401.304 197.66Z"
        fill="#DBD5D5" />
    <path
        d="M475.792 250.365H258.192C248.687 250.365 240.982 258.07 240.982 267.574C240.982 277.079 248.687 284.784 258.192 284.784H475.792C485.296 284.784 493.001 277.079 493.001 267.574C493.001 258.07 485.296 250.365 475.792 250.365Z"
        fill="#DBD5D5" />
    <path
        d="M159.238 178.301C159.238 178.301 175.371 189.057 158.162 197.661H187.633C187.633 197.661 177.523 187.981 187.633 178.301H159.238Z"
        fill="#DBD5D5" />
    <path
        d="M376.632 331.033H438.886C448.391 331.033 456.096 323.328 456.096 313.824C456.096 304.32 448.391 296.615 438.886 296.615H376.632C367.128 296.615 359.423 304.32 359.423 313.824C359.423 323.328 367.128 331.033 376.632 331.033Z"
        fill="#DBD5D5" />
    <path d="M69.8672 591.409L238.528 688.792V494.026L69.8672 396.654V591.409Z" fill="url(#paint0_linear_994_164)" />
    <path d="M238.54 494.026L407.201 396.654L238.529 299.271L238.54 494.026Z" fill="url(#paint1_linear_994_164)" />
    <path d="M69.8672 396.654L238.539 494.026L238.528 299.271L69.8672 396.654Z" fill="url(#paint2_linear_994_164)" />
    <path
        d="M234.527 140.957C234.527 140.957 220.545 125.598 220.545 123.447C220.545 121.887 228.504 119.747 232.85 118.703C233.174 118.616 233.515 118.605 233.845 118.673C234.175 118.741 234.484 118.886 234.747 119.095C235.011 119.304 235.222 119.572 235.363 119.878C235.504 120.184 235.572 120.518 235.56 120.854C235.495 126.953 235.463 140.892 236.464 140.785L234.527 140.957Z"
        fill="#70C488" />
    <path
        d="M236.228 141.808C236.228 141.808 250.114 131.622 250.512 129.847C250.792 128.557 244.887 125.395 241.649 123.77C241.4 123.65 241.126 123.589 240.848 123.592C240.571 123.595 240.298 123.662 240.052 123.788C239.805 123.914 239.59 124.096 239.425 124.318C239.26 124.541 239.149 124.799 239.1 125.072C238.025 130.116 235.508 141.604 234.723 141.335L236.228 141.808Z"
        fill="#70C488" />
    <path
        d="M143.006 560.763C144.074 561.454 144.962 562.388 145.598 563.49C146.234 564.591 146.599 565.828 146.663 567.098C146.663 569.422 145.017 570.325 142.984 569.185C141.92 568.494 141.034 567.561 140.4 566.462C139.766 565.362 139.402 564.128 139.338 562.861C139.349 560.537 140.951 559.591 143.006 560.763Z"
        fill="#E2E6E7" />
    <path
        d="M142.889 546.46C143.233 546.654 143.566 546.869 143.9 547.073C146.248 548.558 148.374 550.369 150.213 552.451C152.108 554.603 153.746 556.967 155.096 559.496C157.676 564.106 159.097 569.274 159.237 574.554C159.286 576.691 158.921 578.816 158.162 580.814C157.526 582.442 156.44 583.856 155.032 584.891L151.698 587.214C151.255 587.455 150.753 587.566 150.25 587.531C149.747 587.497 149.264 587.32 148.858 587.02C147.814 586.367 146.941 585.475 146.309 584.417C144.749 581.89 144.631 579.039 146.051 578.061L149.278 575.791C150.036 575.247 150.629 574.502 150.988 573.64C151.417 572.54 151.629 571.368 151.612 570.187C151.573 568.1 151.143 566.039 150.342 564.11C149.524 562.065 148.364 560.174 146.911 558.517C145.92 557.399 144.78 556.422 143.523 555.613L142.867 555.226C141.556 554.342 140.026 553.835 138.446 553.763C137.979 553.764 137.517 553.86 137.088 554.045C136.659 554.229 136.272 554.5 135.951 554.839C134.883 556.147 134.305 557.786 134.316 559.475C134.316 559.711 134.316 559.948 134.316 560.195C134.427 563.484 135.3 566.702 136.865 569.596L145.857 587.02C145.993 587.27 146.112 587.529 146.212 587.795L145.556 586.525C144.973 585.335 144.068 584.332 142.942 583.632C142.621 583.411 142.254 583.265 141.869 583.206C141.483 583.146 141.089 583.174 140.716 583.288C139.275 583.88 139.092 586.267 140.318 588.666L141.716 591.366L142.05 591.979C141.225 591.255 140.543 590.383 140.038 589.408L131.025 571.962C128.337 566.996 126.841 561.472 126.658 555.828C126.658 555.409 126.658 554.979 126.658 554.559C126.863 551.16 127.82 548.17 129.702 546.213C130.368 545.511 131.168 544.951 132.055 544.565C132.942 544.178 133.898 543.974 134.865 543.965C137.717 544.049 140.492 544.911 142.889 546.46Z"
        fill="#E2E6E7" />
    <path
        d="M214.275 572.758C216.64 581.479 217.865 590.471 217.921 599.507C217.925 603.108 217.655 606.703 217.114 610.263C216.383 615.937 214.282 621.349 210.994 626.031C208.104 630.087 203.864 632.981 199.034 634.195C195.135 635.085 191.081 635.041 187.202 634.066C183.191 633.054 179.347 631.467 175.791 629.355C174.715 628.731 173.639 628.085 172.639 627.408C166.291 623.07 160.575 617.872 155.656 611.962C150.442 605.78 145.876 599.08 142.028 591.967C141.931 591.785 141.824 591.602 141.727 591.408L140.297 588.655C139.07 586.288 139.221 583.901 140.694 583.277C141.068 583.163 141.462 583.135 141.847 583.194C142.233 583.254 142.6 583.4 142.921 583.621C144.046 584.321 144.952 585.324 145.535 586.514L146.191 587.784L146.901 589.139C150.257 595.413 154.262 601.318 158.85 606.757C163.005 611.76 167.843 616.156 173.22 619.814C174.091 620.395 174.984 620.89 175.877 621.46C178.82 623.217 182.005 624.533 185.331 625.364C188.505 626.156 191.822 626.19 195.011 625.461C199.078 624.453 202.654 622.032 205.1 618.631C207.903 614.61 209.692 609.972 210.317 605.111C210.798 601.943 211.035 598.743 211.026 595.538C210.984 587.484 209.9 579.469 207.8 571.693C204.886 560.903 200.645 550.516 195.172 540.77C194.99 540.437 194.817 540.103 194.667 539.759C194.649 540.082 194.562 540.397 194.414 540.684C194.266 540.971 194.059 541.224 193.806 541.426L192.656 542.222C192.06 542.545 191.385 542.694 190.709 542.652C189.909 542.579 189.137 542.325 188.45 541.91C187.382 541.258 186.438 540.42 185.664 539.436C184.924 538.519 184.285 537.524 183.761 536.468C182.822 534.557 182.208 532.503 181.943 530.391L180.34 516.613C180.298 516.23 180.276 515.846 180.276 515.462C180.197 514.669 180.328 513.87 180.654 513.143C180.981 512.417 181.492 511.788 182.136 511.321C182.852 510.982 183.646 510.841 184.435 510.913C185.224 510.985 185.979 511.267 186.622 511.729C187.407 512.203 188.13 512.774 188.773 513.429L198.786 523.486C200.245 524.975 201.41 526.726 202.217 528.648C202.953 530.298 203.348 532.08 203.379 533.886C203.404 534.889 203.206 535.885 202.798 536.801C202.44 537.606 201.807 538.258 201.013 538.64L200.486 538.877C206.444 549.567 211.075 560.945 214.275 572.758ZM196.506 530.014V529.874C196.505 529.774 196.483 529.675 196.442 529.584L196.366 529.466L187.202 520.27L188.697 533.176C189.093 532.969 189.539 532.877 189.984 532.912C190.429 532.946 190.855 533.105 191.214 533.37C192.126 533.934 192.892 534.704 193.451 535.618C193.436 535.328 193.436 535.037 193.451 534.747C193.435 533.841 193.615 532.942 193.979 532.112C194.306 531.4 194.868 530.823 195.57 530.477L196.431 530.09L196.495 530.014"
        fill="#242B33" />
    <path
        d="M142.877 511.481C145.099 512.821 147.037 514.587 148.577 516.676L179.317 556.902C182.2 560.667 183.996 565.324 183.985 569.239L183.706 601.001C183.706 602.916 182.318 603.69 180.651 602.722C179.761 602.143 179.02 601.362 178.489 600.443C177.958 599.523 177.652 598.491 177.596 597.43L177.876 565.808C177.784 564.049 177.141 562.363 176.037 560.99L145.254 520.699C144.592 519.814 143.767 519.066 142.823 518.494C142.1 518.024 141.24 517.811 140.381 517.891L109.502 522.484C108.297 522.667 107.641 523.689 107.63 525.13L107.458 576.456C107.511 577.816 107.923 579.137 108.652 580.285C109.401 581.58 110.462 582.668 111.739 583.448L125.528 591.428C127.776 592.73 129.937 593.085 131.605 592.504L135.133 590.568C135.48 590.414 135.862 590.355 136.24 590.396C136.618 590.438 136.978 590.579 137.284 590.805C138.19 591.375 138.931 592.172 139.435 593.117C140.607 595.182 140.586 597.419 139.37 598.054L135.713 600.055C132.82 601.205 129.26 600.614 125.528 598.495L111.696 590.493C108.679 588.626 106.173 586.039 104.403 582.964C102.519 579.957 101.462 576.507 101.338 572.961L101.51 521.624C101.51 517.708 103.338 515.17 106.232 514.708L137.144 510.104C139.155 509.911 141.173 510.395 142.877 511.481Z"
        fill="#E2E6E7" />
    <path d="M407.201 591.409L238.529 688.792V494.026L407.201 396.654V591.409Z" fill="url(#paint3_linear_994_164)" />
    <path d="M168.788 517.02L0.148438 419.659L69.9964 395.996L238.636 493.357L168.788 517.02Z" fill="#E8C59A" />
    <path d="M302.343 280.426L470.972 377.798L404.211 396.115L235.582 298.754L302.343 280.426Z" fill="#E8C59A" />
    <path d="M169.727 279.406L1.09766 376.767L69.0634 397.171L237.692 299.81L169.727 279.406Z" fill="#E8C59A" />
    <path d="M310.968 523.507L479.802 426.028L405.996 395.643L237.162 493.122L310.968 523.507Z" fill="#E8C59A" />
    <path style="mix-blend-mode:multiply" d="M238.42 494.028L407.081 396.656L238.42 299.273V494.028Z"
        fill="url(#paint4_linear_994_164)" />
    <path opacity="0.51"
        d="M131.272 340.035C133.692 334.163 137.725 327.752 144.178 325.612C144.178 325.612 152.783 321.31 154.934 294.291C154.934 294.291 154.396 213.838 186.664 172.546C186.664 172.546 227.536 118.434 285.617 151.186C285.617 151.186 327.295 170.03 331.587 262.669C331.939 271.39 333.055 280.064 334.921 288.59C338.019 302.379 343.913 320.75 354.454 330.603C354.454 330.603 369.512 347.683 357.68 363.343C357.68 363.343 350.947 373.249 338.729 374.884C334.71 375.302 330.671 374.318 327.295 372.098C324.886 370.635 321.81 369.538 320.035 371.894C318.261 374.249 315.733 386.135 307.128 387.554C307.128 387.554 298.524 388.974 289.919 381.854C289.919 381.854 283.466 377.551 270.559 390.405C270.559 390.405 255.501 403.215 238.291 387.554C238.291 387.554 229.687 374.744 222.158 380.434C218.109 384.464 213.658 388.068 208.874 391.19C204.895 393.698 200.19 394.8 195.511 394.321C190.832 393.841 186.448 391.807 183.061 388.544C179.457 385.188 176.443 381.25 174.144 376.895C172.143 372.894 168.529 370.732 164.991 371.808C164.647 371.915 164.012 372.044 163.291 372.206C158.692 373.271 153.909 373.271 149.309 372.206C144.166 371.062 139.405 368.61 135.488 365.086C129.454 359.353 127.722 348.64 131.272 340.035Z"
        fill="#5BB6CE" />
    <path
        d="M123.742 340.035C126.162 334.163 130.196 327.752 136.649 325.612C136.649 325.612 145.254 321.31 147.405 294.291C147.405 294.291 146.867 213.838 179.134 172.546C179.134 172.546 220.006 118.434 278.088 151.186C278.088 151.186 319.766 170.03 324.058 262.669C324.41 271.39 325.525 280.064 327.392 288.59C330.49 302.379 336.384 320.75 346.924 330.603C346.924 330.603 361.983 347.683 350.151 363.343C350.151 363.343 343.418 373.249 331.2 374.884C327.181 375.302 323.142 374.318 319.766 372.098C317.357 370.635 314.281 369.538 312.506 371.894C310.731 374.249 308.204 386.135 299.599 387.554C299.599 387.554 290.994 388.974 282.39 381.854C282.39 381.854 275.936 377.551 263.029 390.405C263.029 390.405 247.971 403.215 230.762 387.554C230.762 387.554 222.158 374.744 214.628 380.434C210.58 384.464 206.129 388.068 201.345 391.19C197.366 393.698 192.661 394.8 187.982 394.321C183.302 393.841 178.919 391.807 175.531 388.544C171.928 385.188 168.914 381.25 166.615 376.895C164.614 372.894 161 370.732 157.462 371.808C157.117 371.915 156.483 372.044 155.762 372.206C151.162 373.271 146.38 373.271 141.78 372.206C136.636 371.062 131.875 368.61 127.958 365.086C121.924 359.353 120.193 348.64 123.742 340.035Z"
        fill="#E8DDDD" />
    <path
        d="M208.712 245.878C213.464 245.878 217.317 239.184 217.317 230.927C217.317 222.67 213.464 215.977 208.712 215.977C203.96 215.977 200.107 222.67 200.107 230.927C200.107 239.184 203.96 245.878 208.712 245.878Z"
        fill="#353131" />
    <path
        d="M207.518 245.879C203.28 244.448 200.107 238.35 200.107 230.928C200.107 223.507 203.334 217.397 207.518 215.967C204.195 218.43 201.85 224.206 201.85 230.928C201.85 237.65 204.195 243.416 207.518 245.879Z"
        fill="#DBD2D2" />
    <path
        d="M264.644 244.448C269.396 244.448 273.248 237.754 273.248 229.497C273.248 221.24 269.396 214.547 264.644 214.547C259.891 214.547 256.039 221.24 256.039 229.497C256.039 237.754 259.891 244.448 264.644 244.448Z"
        fill="#353131" />
    <path
        d="M265.838 244.448C270.076 243.017 273.249 236.919 273.249 229.497C273.249 222.076 270.022 215.977 265.838 214.547C269.161 217.01 271.506 222.786 271.506 229.497C271.506 236.209 269.161 241.985 265.838 244.448Z"
        fill="#DBD2D2" />
    <path
        d="M237.754 251.438C239.536 251.438 240.981 249.993 240.981 248.211C240.981 246.429 239.536 244.984 237.754 244.984C235.972 244.984 234.527 246.429 234.527 248.211C234.527 249.993 235.972 251.438 237.754 251.438Z"
        fill="#353131" />
    <path
        d="M380.872 250.365C380.872 250.365 370.052 243.911 380.872 232.08H358.629C358.629 232.08 370.88 244.987 358.629 250.365H380.872Z"
        fill="#DBD5D5" />
    <path
        d="M315.324 573.206L319.917 570.56V574.551L315.324 577.197V587.458L311.14 589.878V579.617L295.91 588.415V585.038L310.463 552.544L315.26 549.77L315.324 573.206ZM311.108 563.042C311.108 561.074 311.108 559.073 311.237 557.051L311.087 557.137C310.086 559.912 309.28 561.999 308.387 564.268L300.395 581.703V581.811L311.151 575.616V563.031"
        fill="#1F1C1C" />
    <path
        d="M334.167 538.259C341.083 534.258 345.041 539.055 345.073 551.058C345.073 563.858 340.986 573.323 333.726 577.518C327.272 581.207 322.97 576.818 322.83 564.417C322.798 551.779 327.574 542.099 334.167 538.259ZM333.962 573.43C338.501 570.817 340.663 563.471 340.631 553.844C340.631 544.573 338.48 539.69 333.93 542.335C330.047 544.583 327.24 551.65 327.272 561.911C327.272 571.709 329.94 575.764 333.962 573.43Z"
        fill="#1F1C1C" />
    <path
        d="M367.079 543.348L371.661 540.702V544.692L367.079 547.338V557.599L362.884 560.019V549.758L347.654 558.557V555.19L362.218 522.654L367.015 519.879L367.079 543.348ZM362.852 533.184C362.852 531.215 362.852 529.215 362.981 527.193L362.831 527.279C361.841 530.054 361.034 532.14 360.131 534.41L352.15 551.845V551.963L362.906 545.768V533.184"
        fill="#1F1C1C" />
    <defs>
        <linearGradient id="paint0_linear_994_164" x1="199.775" y1="513.29" x2="81.5587" y2="589.634"
            gradientUnits="userSpaceOnUse">
            <stop stop-color="#C3A277" />
            <stop offset="1" stop-color="#BB9A70" />
        </linearGradient>
        <linearGradient id="paint1_linear_994_164" x1="264.677" y1="397.568" x2="409.664" y2="402.645"
            gradientUnits="userSpaceOnUse">
            <stop stop-color="#AD885D" />
            <stop offset="1" stop-color="#BA9667" />
        </linearGradient>
        <linearGradient id="paint2_linear_994_164" x1="198.076" y1="310.189" x2="145.997" y2="470.622"
            gradientUnits="userSpaceOnUse">
            <stop stop-color="#9E7951" />
            <stop offset="0.87" stop-color="#8C6E50" />
        </linearGradient>
        <linearGradient id="paint3_linear_994_164" x1="329.394" y1="561.218" x2="273.271" y2="402.161"
            gradientUnits="userSpaceOnUse">
            <stop stop-color="#A78258" />
            <stop offset="0.7" stop-color="#926F45" />
        </linearGradient>
        <linearGradient id="paint4_linear_994_164" x1="224.857" y1="449.8" x2="359.82" y2="309.395"
            gradientUnits="userSpaceOnUse">
            <stop stop-color="#D0D2D3" />
            <stop offset="1" stop-color="white" />
        </linearGradient>
    </defs>
</svg>